<svg xmlns="http://www.w3.org/2000/svg" width="199" height="61" viewBox="0 0 198.68 60.29" focusable="false" aria-hidden="true"><path fill="#fff" d="M34.81 47.54l-1.34 9.54h-1.31l1.33-9.54h1.32zM36.62 50.8l-.16 1.11a2.77 2.77 0 012.08-1.23 1.31 1.31 0 011.13.54 2.2 2.2 0 01.41 1.38 4.57 4.57 0 010 .5l-.61 4h-1.18l.58-4a2.88 2.88 0 000-.39 1.16 1.16 0 00-.21-.75.59.59 0 00-.51-.26 1.08 1.08 0 00-.4.09 1.76 1.76 0 00-.47.27 5.3 5.3 0 00-.63.56 1.55 1.55 0 00-.39.48l-.57 4h-1.14l.88-6.28zm7.79 5.46l.65-4.67h-.31a2.91 2.91 0 00-2.15.81 2.62 2.62 0 00-.82 1.94 1.89 1.89 0 00.54 1.44 2.15 2.15 0 001.54.51 3.72 3.72 0 00.55 0m2.4-8.72l-1.34 9.53a5.58 5.58 0 01-1.61.2 3.58 3.58 0 01-2.44-.75 2.71 2.71 0 01-.86-2.15 3.74 3.74 0 011.11-2.57 4 4 0 013-1.2h.5l.42-3.06zm.65 1.26a.68.68 0 01.68-.69.68.68 0 01.68.69.68.68 0 01-.68.68.65.65 0 01-.48-.2.66.66 0 01-.2-.48m1.06 2l-.88 6.28h-1.19l.88-6.28zM54.22 50.8L51 57.2h-.59l-1.43-6.4h1.18l.85 3.98 2.01-3.98h1.2zM54.77 48.83a.7.7 0 01.2-.49.68.68 0 011.16.49.68.68 0 01-1.16.48.66.66 0 01-.2-.48m1.06 2l-.89 6.28h-1.18l.88-6.28zm3.96 5.43l.65-4.67h-.31a2.91 2.91 0 00-2.13.81 2.62 2.62 0 00-.82 1.94 1.89 1.89 0 00.54 1.44 2.15 2.15 0 001.54.51 3.82 3.82 0 00.55 0m2.4-8.72l-1.35 9.53a5.51 5.51 0 01-1.6.2 3.61 3.61 0 01-2.45-.75 2.74 2.74 0 01-.85-2.15 3.74 3.74 0 011.11-2.57 3.92 3.92 0 013-1.2h.5l.43-3.09zm5.42 3.23l-.89 6.28h-1.17l.11-1.08a3 3 0 01-2.07 1.16 1.46 1.46 0 01-1.08-.45 1.83 1.83 0 01-.44-1.3 2.59 2.59 0 010-.48l.58-4.14h1.23l-.59 4.14v.38c0 .63.23.94.69.94s1.12-.46 1.89-1.38l.58-4.08zm4.3 4.46l.51-3.62h-.37a2.61 2.61 0 00-2.13.89 3.12 3.12 0 00-.73 2 2.07 2.07 0 00.35 1.24 1.09 1.09 0 00.9.48 1.55 1.55 0 00.94-.42c.34-.29.52-.47.53-.54m1.81-4.46l-.89 6.28h-1.18l.11-.73a2.39 2.39 0 01-1.7.88 1.82 1.82 0 01-1.46-.73 2.66 2.66 0 01-.6-1.76 4 4 0 011.12-2.94 4.14 4.14 0 013.14-1.16 5.26 5.26 0 011.48.19M76.36 47.54l-1.35 9.54h-1.18l1.34-9.54h1.19z"></path><g fill="#fff"><path d="M83.47 50.8l-.16 1.05H82l-1 7.87h-1.13l1-7.87h-1L80 50.8h1a4.14 4.14 0 01.9-2.5 2.71 2.71 0 012.1-.88 4.67 4.67 0 011.52.29l-.17 1.18a2.45 2.45 0 00-1.22-.35c-1.18 0-1.83.75-2 2.26z"></path><path d="M86.26 51.54a1.49 1.49 0 00-1.26.9 4.22 4.22 0 00-.53 2.14 2.11 2.11 0 00.32 1.21.94.94 0 00.79.46 1.5 1.5 0 001.27-.85 4 4 0 00.53-2.13 2.26 2.26 0 00-.31-1.27.93.93 0 00-.81-.47m0-.93a2.12 2.12 0 011.7.74 3 3 0 01.64 2 4.5 4.5 0 01-.86 2.83 2.62 2.62 0 01-2.12 1.1 2.12 2.12 0 01-1.73-.74 3.12 3.12 0 01-.63-2.07 4.31 4.31 0 01.87-2.75 2.6 2.6 0 012.13-1.1m7.47 5.07l-.14 1.14a3.56 3.56 0 01-1.75.45 2.63 2.63 0 01-2-.79 2.87 2.87 0 01-.76-2.1 3.53 3.53 0 011.15-2.68 4 4 0 012.92-1.1 6.79 6.79 0 011.08.11l-.16 1a4.53 4.53 0 00-.91-.1 2.87 2.87 0 00-2.05.79 2.52 2.52 0 00-.81 1.85 2 2 0 00.46 1.4 1.62 1.62 0 001.26.51 3.34 3.34 0 001.72-.53M100 50.8l-.89 6.28H97.9L98 56a3 3 0 01-2.07 1.16 1.46 1.46 0 01-1.08-.45 1.83 1.83 0 01-.44-1.3 2.59 2.59 0 010-.48L95 50.8h1.19l-.59 4.14v.38c0 .63.23.94.69.94s1.12-.46 1.89-1.38l.58-4.08zm4.35.46v1.24a3.29 3.29 0 00-1.89-.82.92.92 0 00-.6.19.58.58 0 00-.25.47.66.66 0 00.15.38 5.83 5.83 0 001 .74 3.68 3.68 0 011.1 1 1.71 1.71 0 01.28.93 1.8 1.8 0 01-.54 1.35 2 2 0 01-1.4.52 3.73 3.73 0 01-2.18-.82l.21-1.15a3.47 3.47 0 001.93.94.85.85 0 00.58-.2.64.64 0 00.23-.5.82.82 0 00-.17-.46 4.69 4.69 0 00-1-.8 3.55 3.55 0 01-1.06-1 1.66 1.66 0 01-.26-.88 1.7 1.7 0 01.52-1.29 2 2 0 011.43-.49 3.32 3.32 0 011.9.65m.26 5.2a.82.82 0 11.24.57.78.78 0 01-.24-.57m12.58-9.04l-.25 1.2h-.7a5.12 5.12 0 00-3.79 1.32 4.36 4.36 0 00-1.33 3.21 3 3 0 00.68 2.07 2.32 2.32 0 001.83.78 3.86 3.86 0 001.38-.32 5.5 5.5 0 001.46-.86l-.2 1.54a5.76 5.76 0 01-2.83.84 3.46 3.46 0 01-2.65-1.11 4.06 4.06 0 01-1-2.86 5.41 5.41 0 011.76-4.23 6.77 6.77 0 014.73-1.62zm2.83 4.12a1.49 1.49 0 00-1.26.9 4.22 4.22 0 00-.53 2.14 2.11 2.11 0 00.32 1.21.94.94 0 00.79.46 1.5 1.5 0 001.27-.85 4 4 0 00.53-2.13 2.26 2.26 0 00-.31-1.26.93.93 0 00-.81-.47m0-.93a2.12 2.12 0 011.7.74 3 3 0 01.63 2 4.44 4.44 0 01-.86 2.83 2.59 2.59 0 01-2.11 1.1 2.11 2.11 0 01-1.73-.74 3.12 3.12 0 01-.63-2.07 4.36 4.36 0 01.86-2.75 2.61 2.61 0 012.14-1.1"></path></g><path fill="#fff" d="M125.05 47.54l-1.35 9.54h-1.18l1.34-9.54h1.19zm2.07 0l-1.35 9.54h-1.18l1.34-9.54h1.19zM128.29 53h2.63a1.62 1.62 0 00-.3-1 1 1 0 00-.83-.38c-.69 0-1.18.47-1.5 1.41m3.47 2.45l-.17 1.13a3.47 3.47 0 01-2.1.7 2.37 2.37 0 01-1.9-.83 3.22 3.22 0 01-.72-2.2 4 4 0 01.86-2.59 2.63 2.63 0 012.11-1 2 2 0 011.59.73 2.76 2.76 0 01.64 1.89v.59h-3.92a3.21 3.21 0 00-.06.6 1.91 1.91 0 00.48 1.37 1.58 1.58 0 001.19.5 3.64 3.64 0 002-.85m5.41.16l-.17 1.14a3.59 3.59 0 01-1.75.45 2.63 2.63 0 01-2-.79 2.87 2.87 0 01-.76-2.1 3.53 3.53 0 011.15-2.68 4 4 0 012.92-1.1 6.79 6.79 0 011.08.11l-.16 1a4.53 4.53 0 00-.91-.1 2.87 2.87 0 00-2.05.79 2.52 2.52 0 00-.81 1.85 2 2 0 00.46 1.4 1.59 1.59 0 001.26.51 3.37 3.37 0 001.72-.53m4.39-4.83l-.13.92h-1.25l-.61 3.44a2.53 2.53 0 000 .43c0 .41.22.62.66.62a2.42 2.42 0 001.15-.38l-.11 1.17a3.25 3.25 0 01-1.31.28 1.76 1.76 0 01-1.21-.39 1.31 1.31 0 01-.45-1 1.73 1.73 0 010-.32l.66-3.81h-1.11l.15-.92h1.15l.22-1.29h1.18l-.23 1.29zm.99-1.97a.68.68 0 01.68-.69.66.66 0 01.48.2.67.67 0 01.21.49.63.63 0 01-.21.48.62.62 0 01-.48.2.65.65 0 01-.48-.2.66.66 0 01-.2-.48m1.06 2l-.88 6.28h-1.19l.88-6.28zM149.29 50.8l-3.22 6.4h-.59l-1.43-6.4h1.18l.85 3.98 2.01-3.98h1.2zM150.47 53h2.63a1.62 1.62 0 00-.3-1 1 1 0 00-.84-.38c-.68 0-1.18.47-1.49 1.41m3.47 2.45l-.17 1.13a3.47 3.47 0 01-2.1.7 2.39 2.39 0 01-1.91-.83 3.22 3.22 0 01-.72-2.2 3.92 3.92 0 01.87-2.59 2.62 2.62 0 012.11-1 2 2 0 011.59.73 2.8 2.8 0 01.63 1.89 4 4 0 010 .59h-3.92a4.28 4.28 0 00-.05.6 2 2 0 00.47 1.37 1.61 1.61 0 001.2.5 3.64 3.64 0 002-.85m8.25-4.26v1.24a3.29 3.29 0 00-1.89-.82.92.92 0 00-.6.19.58.58 0 00-.25.47.66.66 0 00.15.38 5.83 5.83 0 001 .74 3.68 3.68 0 011.1 1 1.71 1.71 0 01.28.93 1.8 1.8 0 01-.54 1.35 2 2 0 01-1.4.52 3.73 3.73 0 01-2.18-.82l.14-1.14a3.47 3.47 0 001.93.94.85.85 0 00.58-.2.64.64 0 00.23-.5.82.82 0 00-.17-.46 4.69 4.69 0 00-1-.8 3.55 3.55 0 01-1.06-1 1.66 1.66 0 01-.26-.88 1.7 1.7 0 01.54-1.31 2 2 0 011.43-.49 3.32 3.32 0 011.9.65m4.21-.45l-.13.92H165l-.61 3.44a2.7 2.7 0 00-.05.43c0 .41.23.62.67.62a2.42 2.42 0 001.15-.38L166 57a3.25 3.25 0 01-1.31.28 1.76 1.76 0 01-1.21-.39 1.31 1.31 0 01-.45-1 1.73 1.73 0 010-.32l.66-3.81h-1.11l.15-.92h1.14l.23-1.29h1.18l-.23 1.29zm2.24 0l-.18 1.2a5.69 5.69 0 01.91-1 1.24 1.24 0 01.78-.26 1.27 1.27 0 01.52.1v1.34a1.48 1.48 0 00-.73-.21 1.18 1.18 0 00-.62.17 2.9 2.9 0 00-.66.75 3 3 0 00-.41.69l-.49 3.54h-1.18l.88-6.28zm3.33 2.2h2.63a1.68 1.68 0 00-.29-1 1 1 0 00-.84-.38q-1 0-1.5 1.41m3.47 2.45l-.17 1.13a3.42 3.42 0 01-2.09.7 2.39 2.39 0 01-1.91-.83 3.22 3.22 0 01-.72-2.2 4 4 0 01.86-2.59 2.64 2.64 0 012.12-1 2 2 0 011.58.73 2.76 2.76 0 01.64 1.89 4 4 0 010 .59h-3.92a4.28 4.28 0 00-.05.6 2 2 0 00.47 1.37 1.58 1.58 0 001.19.5 3.64 3.64 0 002-.85M178 50.8l-.16 1.11A2.77 2.77 0 01180 50.7a1.34 1.34 0 011.14.54 2.26 2.26 0 01.4 1.38 4.57 4.57 0 010 .5l-.6 4h-1.18l.58-4a2.88 2.88 0 000-.39 1.16 1.16 0 00-.21-.75.59.59 0 00-.51-.26 1.08 1.08 0 00-.4.09 1.76 1.76 0 00-.47.27 5.3 5.3 0 00-.63.56 1.55 1.55 0 00-.39.48l-.57 4h-1.17l.88-6.28zm6.44 3.69a1.09 1.09 0 00.89-.44 1.64 1.64 0 00.34-1 1.28 1.28 0 00-.31-.9 1 1 0 00-.81-.35 1.11 1.11 0 00-.86.44 1.51 1.51 0 00-.38 1 1.33 1.33 0 00.32.91 1.06 1.06 0 00.81.36m-.26 4.91a1.93 1.93 0 001-.22.66.66 0 00.36-.57c0-.23-.2-.43-.6-.62a2.46 2.46 0 00-.8-.27 3 3 0 00-1 .28c-.45.19-.67.4-.67.64s.15.41.45.55a3 3 0 001.24.21m3.55-8.6l-.13.92h-1.21a2.13 2.13 0 01.42 1.25 2.59 2.59 0 01-.34 1.32 2 2 0 01-.83.81 4.63 4.63 0 01-1.26.37 3.3 3.3 0 00-1 .28.42.42 0 00-.21.34.33.33 0 00.18.26 5.81 5.81 0 001.28.38 3.25 3.25 0 011.54.72 1.41 1.41 0 01.44 1 1.52 1.52 0 01-.72 1.28 3.12 3.12 0 01-1.84.51 3.84 3.84 0 01-2-.46 1.36 1.36 0 01-.77-1.16c0-.61.61-1 1.81-1.3-.73-.27-1.09-.64-1.09-1.11a1 1 0 01.33-.68 2.25 2.25 0 01.91-.48 1.86 1.86 0 01-1.13-1.8 2.52 2.52 0 01.68-1.78 2.21 2.21 0 011.65-.72z"></path><path fill="#fff" d="M191.18 50.8l-.13.92h-1.25l-.61 3.44a2.7 2.7 0 00-.05.43c0 .41.23.62.67.62a2.42 2.42 0 001.15-.38l-.07 1.17a3.25 3.25 0 01-1.31.28 1.76 1.76 0 01-1.21-.39 1.31 1.31 0 01-.45-1 1.73 1.73 0 010-.32l.66-3.81h-1.08l.15-.92h1.14l.23-1.29h1.18l-.2 1.25zm2.48-3.26l-.6 4.27a2.93 2.93 0 012.17-1.23 1.34 1.34 0 011.08.47 1.9 1.9 0 01.38 1.26 3.55 3.55 0 010 .46l-.6 4.28h-1.18l.6-4.34v-.31c0-.61-.25-.92-.73-.92a1.86 1.86 0 00-1.21.68 4.2 4.2 0 00-.7.81l-.57 4.08h-1.19l1.35-9.53zm3.4 8.92a.82.82 0 11.24.57.78.78 0 01-.24-.57"></path><path fill="#fff" d="M10.05 40.9L0 20.45h10.19l4.95 10.08-5.09 10.37z" opacity=".6"></path><path fill="#fff" d="M20.23 0H10.05L0 20.45h10.19L20.23 0z" opacity=".4"></path><path fill="#fff" d="M10.05 0l10.04 20.45h10.19L20.23 0H10.05z"></path><g><path fill="#fff" d="M10.05 40.9h10.18l10.05-20.45H20.09L10.05 40.9z" opacity=".8"></path></g><path fill="#fff" d="M50.68 5.82L62 34.49h-2.9l-3-7.82H42.39l-3 7.82h-2.94L47.79 5.82zm-7.47 18.47h12l-6-15.68zM64.5 5.82h17.57V8.2H67.14v10.81h13.53v2.38H67.14v13.1H64.5V5.82z"></path><g fill="#fff"><path d="M106.49 5.33c5.24 0 8.83 2 11.27 5.65l-2.19 1.36a10 10 0 00-9-4.55c-5.78 0-10.28 4.63-10.28 12.37 0 7.45 4.38 12.37 11 12.37 3.13 0 6.31-1.11 8-3.2v-7.21h-7.89v-2.37h10.48v10.57A13.49 13.49 0 01107.24 35c-8.38 0-13.66-6.47-13.66-14.82 0-8.68 5.28-14.83 12.91-14.83m17.45 13.42v15.72h-2.47V13.28h2.47v2.86a8.87 8.87 0 017-3.35c.41 0 .94 0 1.4.08v2.29c-.58 0-1.16-.08-1.78-.08a8.15 8.15 0 00-6.64 3.69M142.88 35c-6.07 0-10.11-4.66-10.11-11.09s4-11.1 10.11-11.1S153 17.46 153 23.89 148.94 35 142.88 35m0-19.9c-4.58 0-7.55 3.44-7.55 8.81s3 8.8 7.55 8.8 7.55-3.44 7.55-8.8-3-8.81-7.55-8.81m28.21 10.51V13.28h2.48v12.53c0 6.27-3.63 9.17-8.95 9.17s-9-2.9-9-9.17V13.28h2.47v12.33c0 4.79 2.68 7.08 6.48 7.08s6.47-2.29 6.47-7.08m8.96-9.88a10.72 10.72 0 017.14-2.94c5.9 0 9.16 4.21 9.16 11.1S193 35 187.1 35a10.72 10.72 0 01-7.1-3v11.18h-2.47v-29.9H180zm6.69-.65a9.69 9.69 0 00-6.69 3.19V29.5a9.69 9.69 0 006.69 3.19c4.78 0 7-3.19 7-8.8s-2.27-8.81-7-8.81"></path></g></svg>