<svg width="489" height="58" viewBox="0 0 489 58" fill="none" xmlns="http://www.w3.org/2000/svg">
<path d="M380.588 19.8636C381.406 19.1678 382.022 18.5684 382.709 18.0633C384.62 16.6716 386.856 15.7951 389.203 15.5179C391.551 15.2408 393.93 15.5724 396.112 16.4809C398.294 17.3893 400.205 18.844 401.662 20.7051C403.119 22.5661 404.073 24.7708 404.431 27.107C404.628 28.556 404.728 30.0167 404.729 31.479C404.758 39.3281 404.745 47.1772 404.739 55.0263C404.739 56.9022 404.724 56.9126 402.912 56.9126C400.218 56.9126 397.523 56.9126 394.828 56.9126C393.073 56.9126 393.055 56.8979 393.053 55.1542C393.044 48.0072 393.044 40.8602 393.053 33.7132C393.066 32.8935 393.037 32.0737 392.967 31.2569C392.944 30.477 392.767 29.7094 392.446 28.9986C392.124 28.2877 391.665 27.6477 391.094 27.1158C390.524 26.5839 389.853 26.1706 389.121 25.9C388.39 25.6294 387.611 25.5068 386.832 25.5393C385.259 25.4762 383.724 26.029 382.552 27.0804C381.381 28.1317 380.666 29.5984 380.559 31.1688C380.49 31.8652 380.465 32.5652 380.481 33.2647C380.481 40.4117 380.481 47.5587 380.481 54.7057C380.481 56.9022 380.481 56.9021 378.218 56.9021C375.581 56.9021 372.944 56.8539 370.31 56.9252C369.163 56.9566 368.769 56.5982 368.771 55.4287C368.804 42.9512 368.804 30.4737 368.771 17.9962C368.771 16.9482 369.099 16.5291 370.184 16.5584C373.054 16.6129 375.925 16.5584 378.794 16.5815C380.364 16.5815 380.414 16.6611 380.471 18.298C380.488 18.7591 380.538 19.195 380.588 19.8636Z" fill="#646464"/>
<path d="M187.567 19.7232C188.227 19.172 188.854 18.5767 189.548 18.0758C191.499 16.6317 193.799 15.7323 196.212 15.4697C198.625 15.2072 201.064 15.5909 203.28 16.5816C205.496 17.5722 207.409 19.1342 208.822 21.1075C210.236 23.0808 211.099 25.3943 211.324 27.8112C211.661 31.4748 211.582 35.1803 211.611 38.867C211.653 44.2597 211.628 49.6504 211.611 55.0452C211.611 56.8896 211.58 56.9126 209.746 56.9168C207.049 56.9168 204.353 56.9168 201.658 56.9168C199.941 56.9168 199.925 56.9 199.925 55.1248C199.925 48.091 199.939 41.0572 199.906 34.0234C199.933 32.7392 199.81 31.4562 199.539 30.2005C199.303 28.7593 198.514 27.467 197.34 26.5991C196.165 25.7312 194.698 25.3561 193.251 25.5539C191.829 25.5795 190.462 26.1131 189.399 27.0583C188.336 28.0036 187.646 29.2981 187.454 30.7077C187.289 31.7473 187.214 32.7991 187.23 33.8516C187.211 40.944 187.23 48.0344 187.217 55.1269C187.217 56.8958 187.2 56.9042 185.494 56.9105C182.68 56.9105 179.867 56.8665 177.054 56.9356C175.872 56.965 175.547 56.5165 175.549 55.3931C175.577 42.9687 175.577 30.5435 175.549 18.1177C175.549 16.8015 176.08 16.5458 177.226 16.573C179.98 16.6317 182.736 16.5877 185.49 16.594C187.167 16.594 187.167 16.6087 187.223 18.3671C187.223 18.7171 187.249 19.0672 187.288 19.4151C187.318 19.501 187.441 19.5765 187.567 19.7232Z" fill="#646464"/>
<path d="M280.133 53.6324C278.355 55.4544 276.127 56.7732 273.674 57.4546C271.222 58.136 268.632 58.1558 266.17 57.5119C263.708 57.0153 261.46 55.771 259.733 53.9491C258.005 52.1272 256.881 49.8164 256.516 47.3322C256.272 46.0692 256.142 44.7871 256.124 43.5009C256.091 35.1174 256.103 26.7338 256.107 18.3628C256.107 16.6065 256.122 16.596 257.824 16.5918C260.578 16.5918 263.334 16.6463 266.086 16.5625C267.322 16.5248 267.691 16.9229 267.683 18.1532C267.635 25.4176 267.654 32.6861 267.668 39.9505C267.668 40.8263 267.747 41.7003 267.903 42.562C267.953 43.3568 268.166 44.1327 268.53 44.8413C268.893 45.5498 269.399 46.1757 270.016 46.6797C270.632 47.1837 271.346 47.5551 272.113 47.7705C272.88 47.9859 273.683 48.0408 274.471 47.9316C276.011 47.8261 277.451 47.1291 278.488 45.9864C279.526 44.8437 280.081 43.344 280.038 41.8011C280.155 39.7577 280.124 37.7016 280.126 35.6518C280.137 29.9091 280.126 24.1663 280.126 18.4236C280.126 16.5981 280.141 16.5939 281.994 16.5897C284.63 16.5897 287.267 16.5897 289.904 16.5897C291.802 16.5897 291.813 16.5897 291.813 18.5913C291.813 27.3814 291.813 36.1716 291.813 44.9617C291.813 48.3592 291.813 51.7587 291.813 55.1582C291.813 56.8706 291.754 56.9083 290.004 56.9125C287.248 56.9125 284.494 56.8685 281.74 56.9376C280.543 56.9691 279.965 56.6275 280.112 55.3573C280.153 54.7833 280.16 54.2073 280.133 53.6324Z" fill="#646464"/>
<path d="M234.706 57.9333C227.58 57.7363 221.667 56.3823 216.574 52.463C215.172 51.3815 215.118 50.933 216.258 49.6378C217.612 48.0994 219.029 46.6113 220.336 45.0268C220.443 44.8233 220.598 44.6489 220.787 44.5183C220.976 44.3878 221.194 44.305 221.422 44.2772C221.65 44.2494 221.882 44.2773 222.097 44.3586C222.312 44.4399 222.504 44.5721 222.656 44.7439C226.179 47.4259 230.505 48.8382 234.932 48.7512C236.099 48.7146 237.254 48.5077 238.361 48.1371C239.104 47.9245 239.747 47.4572 240.18 46.8171C240.612 46.1771 240.805 45.4052 240.725 44.637C240.674 43.9237 240.366 43.2533 239.858 42.75C239.35 42.2466 238.676 41.9446 237.963 41.8998C235.081 41.4072 232.151 41.2039 229.271 40.7114C227.483 40.4426 225.732 39.9635 224.056 39.2841C221.841 38.4306 219.976 36.8606 218.757 34.824C217.537 32.7873 217.035 30.4013 217.329 28.0459C217.312 25.4027 218.203 22.8339 219.853 20.7683C221.502 18.7028 223.81 17.2656 226.391 16.6967C230.169 15.5932 234.138 15.2977 238.038 15.8292C241.938 16.3608 245.682 17.7075 249.027 19.7818C250.863 20.878 250.88 21.184 249.538 22.8544C248.402 24.2691 247.206 25.6419 246.128 27.1007C245.455 28.0061 244.871 28.0166 243.936 27.4633C240.672 25.4597 236.895 24.453 233.067 24.5667C232.249 24.5967 231.44 24.7377 230.661 24.9859C229.999 25.1554 229.419 25.5535 229.023 26.1098C228.627 26.6661 228.441 27.3445 228.498 28.025C228.454 28.6539 228.658 29.2749 229.066 29.7559C229.473 30.237 230.052 30.5401 230.679 30.6008C233.136 31.1101 235.663 31.2631 238.128 31.7389C240.665 32.1038 243.159 32.7253 245.571 33.5938C247.464 34.3544 249.08 35.6743 250.204 37.3775C251.327 39.0807 251.904 41.086 251.858 43.1258C252.25 50.9624 247.218 55.7012 240.121 57.2207C238.07 57.6587 235.944 57.7761 234.706 57.9333Z" fill="#646464"/>
<path d="M420.813 36.3938C421.035 38.7119 421.094 40.5353 421.406 42.3147C421.497 43.5863 421.983 44.7975 422.798 45.7779C423.613 46.7584 424.714 47.4589 425.948 47.7808C427.3 48.2078 428.748 48.2306 430.113 47.8463C431.478 47.4621 432.702 46.6876 433.633 45.6178C435.101 43.9747 435.1 43.9663 436.987 45.1987C438.705 46.3165 440.419 47.4427 442.126 48.5772C443.541 49.5141 443.58 49.7782 442.507 51.1866C439.847 54.5987 435.989 56.8719 431.716 57.5456C428.013 58.2639 424.186 57.9943 420.62 56.7638C417.833 55.8879 415.347 54.248 413.445 52.0303C411.543 49.8126 410.301 47.106 409.86 44.2178C408.9 39.3188 408.892 34.2811 409.835 29.3789C410.358 26.1152 411.883 23.0948 414.197 20.7351C416.512 18.3754 419.502 16.7929 422.755 16.2063C425.742 15.4293 428.869 15.3581 431.889 15.9983C434.908 16.6385 437.737 17.9726 440.151 19.895C441.082 20.6955 441.925 21.5927 442.666 22.5715C443.549 23.676 443.457 24.0637 442.323 24.8225C440.326 26.1533 438.292 27.4297 436.312 28.7879C436.15 28.9567 435.95 29.0833 435.728 29.1565C435.507 29.2296 435.27 29.2471 435.04 29.2073C434.81 29.1676 434.594 29.0718 434.409 28.9285C434.225 28.7851 434.079 28.5987 433.983 28.3855C433.196 27.2801 432.106 26.4259 430.844 25.9254C429.583 25.4249 428.203 25.2996 426.872 25.5644C425.657 25.6433 424.501 26.1155 423.578 26.9095C422.655 27.7035 422.016 28.7762 421.756 29.9658C421.322 32.0891 421.006 34.2352 420.813 36.3938Z" fill="#646464"/>
<path d="M76.9756 41.0383C76.9756 36.3533 76.9756 31.6676 76.9756 26.9812C76.9756 25.2354 76.9274 25.206 75.215 25.1641C73.1191 25.1159 73.1191 25.1159 73.1191 22.9969C73.1191 21.4732 73.1191 19.9516 73.1191 18.4279C73.1191 16.5416 73.1359 16.5416 74.9363 16.5248C75.171 16.5248 75.4058 16.506 75.6385 16.5248C76.6235 16.615 76.9777 16.1581 77.0049 15.1919C77.0002 13.4396 77.1144 11.689 77.3465 9.95214C77.5543 7.44015 78.6665 5.08886 80.4766 3.33471C82.2866 1.58056 84.6716 0.542691 87.1889 0.413749C89.8506 0.0888862 92.5606 0.162252 95.2476 0.0469781C96.2955 0.00296442 96.7021 0.491304 96.6811 1.53506C96.6371 3.76089 96.6287 5.98881 96.6811 8.21255C96.7105 9.33804 96.2934 9.83058 95.1553 9.79914C93.9845 9.75204 92.812 9.76602 91.6426 9.84105C91.2723 9.82162 90.9018 9.87624 90.5528 10.0017C90.2038 10.1271 89.8833 10.3209 89.6101 10.5717C89.3369 10.8225 89.1165 11.1252 88.9616 11.4622C88.8068 11.7992 88.7207 12.1636 88.7084 12.5343C88.6874 12.6496 88.6811 12.7669 88.6707 12.8822C88.2515 16.4452 88.3227 16.5248 91.8962 16.5248C92.9442 16.5248 94.0068 16.5751 95.0589 16.5102C96.1111 16.4452 96.591 16.7554 96.5638 17.8641C96.5176 19.8552 96.526 21.8463 96.5638 23.8374C96.5826 24.8267 96.1572 25.1976 95.1931 25.1704C93.7259 25.1327 92.2588 25.1578 90.7917 25.1704C88.6203 25.1704 88.6141 25.1704 88.6141 27.2956C88.6141 36.491 88.6141 45.687 88.6141 54.8838C88.6141 56.9797 88.6141 56.9797 86.5014 56.9797C83.9235 56.9797 81.3476 56.9797 78.7697 56.9797C76.9609 56.9797 76.9525 56.9671 76.9504 55.0934C76.9616 50.4097 76.97 45.7248 76.9756 41.0383Z" fill="#C8102E"/>
<path d="M65.4268 22.9005C65.4268 29.5235 65.4268 36.1472 65.4268 42.7716C65.4064 43.3568 65.4218 43.9426 65.4729 44.5259C65.4679 44.9401 65.5507 45.3508 65.7159 45.7307C65.881 46.1107 66.1248 46.4513 66.4311 46.7303C66.7374 47.0093 67.0993 47.2202 67.493 47.3493C67.8867 47.4783 68.3032 47.5225 68.7152 47.479C71.4608 47.5985 71.4608 47.5985 71.4608 50.365C71.4608 52.3582 71.4378 54.3472 71.4608 56.3425C71.4734 57.1536 71.1632 57.5497 70.3438 57.5225C67.7098 57.5561 65.0759 57.4526 62.4527 57.2123C60.1102 57.0117 57.9272 55.9435 56.3313 54.217C54.7355 52.4905 53.842 50.2303 53.826 47.8793C53.6877 46.4248 53.6164 44.9576 53.6164 43.4947C53.6025 29.7792 53.6025 16.063 53.6164 2.34614C53.6164 0.0867718 53.6521 0.0532247 55.8444 0.0406494C58.3064 0.0406494 60.7683 0.0406494 63.2303 0.0406494C65.4184 0.0406494 65.4184 0.0406624 65.4184 2.3168C65.4254 9.18153 65.4282 16.0428 65.4268 22.9005Z" fill="#C8102E"/>
<path d="M156.427 28.4755C156.427 19.6868 156.427 10.8994 156.427 2.11342C156.427 0.155865 156.456 0.132815 158.372 0.126527C161.125 0.118143 163.878 0.118143 166.632 0.126527C168.545 0.126527 168.598 0.178923 168.598 2.10714C168.598 16.8692 168.598 31.6319 168.598 46.3953C168.598 49.382 168.55 52.3707 168.621 55.3595C168.652 56.617 168.202 56.9691 166.996 56.9398C164.127 56.8643 161.256 56.9167 158.384 56.9146C156.429 56.9146 156.425 56.9146 156.425 54.8397C156.425 46.0523 156.425 37.2643 156.427 28.4755Z" fill="#646464"/>
<path d="M310.219 20.5447C310.48 20.3581 310.723 20.1476 310.946 19.916C313.633 15.9149 320.809 14.5233 325.485 16.5772C326.07 16.8329 326.61 17.1913 327.181 17.4847C328.296 18.0548 328.467 18.7947 327.828 19.9013C326.457 22.2801 325.156 24.7009 323.873 27.13C323.374 28.0773 322.853 28.1947 321.932 27.6351C320.972 26.962 319.887 26.4882 318.74 26.242C317.593 25.9957 316.409 25.982 315.257 26.2015C314.324 26.347 313.449 26.7449 312.726 27.3523C312.003 27.9597 311.46 28.7533 311.155 29.6472C310.619 31.1863 310.317 32.797 310.258 34.4258C310.164 41.2773 310.221 48.1287 310.216 54.9823C310.216 56.9126 310.204 56.9189 308.29 56.921C305.538 56.921 302.784 56.8832 300.035 56.9419C298.987 56.965 298.492 56.6045 298.534 55.5503C298.547 55.2003 298.534 54.8481 298.534 54.5023V18.998C298.534 18.7046 298.534 18.4111 298.534 18.1198C298.496 17.0718 298.832 16.529 300.051 16.5646C302.986 16.6464 305.907 16.6296 308.835 16.5646C309.938 16.5416 310.302 16.9691 310.233 18.0108C310.181 18.7465 310.219 19.4863 310.219 20.5447Z" fill="#646464"/>
<path d="M51.3094 55.2883C45.0888 37.4145 38.871 19.5401 32.656 1.66495C32.5481 1.15126 32.2514 0.696765 31.8245 0.391337C31.3976 0.0859087 30.8716 -0.0482067 30.3506 0.0154993C27.54 0.0930471 24.7273 0.0364604 21.9146 0.0406521C19.9026 0.0406521 19.8963 0.0406537 19.1899 2.01708C13.8985 16.9356 8.60642 31.8541 3.3136 46.7727C2.26566 49.7216 1.10872 52.6411 0 55.5628V56.9692C3.56301 56.9692 7.14907 56.8979 10.7205 57.0069C10.9865 57.0494 11.2583 57.0379 11.5197 56.973C11.7812 56.9081 12.0269 56.7912 12.2421 56.6292C12.4573 56.4672 12.6376 56.2635 12.7723 56.0302C12.907 55.7969 12.9933 55.5389 13.026 55.2715C13.7742 52.6915 14.6649 50.1554 15.4425 47.5837C15.7087 46.7035 16.0482 46.2277 17.1066 46.2361C22.9053 46.2892 28.7039 46.2892 34.5025 46.2361C34.8721 46.1875 35.2461 46.2858 35.544 46.51C35.8418 46.7342 36.0398 47.0663 36.0954 47.4349C36.9505 50.1596 37.8895 52.8738 38.732 55.6089C38.8002 56.0417 39.0368 56.4298 39.3902 56.6886C39.7437 56.9474 40.1852 57.0558 40.6183 56.9901C43.781 56.9209 46.9437 56.9733 50.1085 56.9629C51.8208 56.965 51.8711 56.9042 51.3094 55.2883ZM30.9919 35.7315C27.4771 35.6666 23.9581 35.6938 20.4433 35.7168C19.6762 35.7168 19.3828 35.5743 19.6594 34.7297C21.6945 28.5133 23.6961 22.2864 25.8318 15.6739C27.9633 22.2235 29.9419 28.3393 31.9476 34.4447C32.2641 35.4192 32.1048 35.7609 30.9919 35.7399V35.7315Z" fill="#C8102E"/>
<path d="M457.448 40.2063C461.197 40.1895 464.945 40.2063 468.694 40.2063C472.444 40.2063 476.191 40.1686 479.938 40.2293C481.135 40.2503 481.643 39.9192 481.55 38.6532C481.355 36.0292 481.397 33.3842 481.095 30.7727C480.832 27.3567 479.486 24.1139 477.252 21.5162C475.018 18.9185 472.014 17.1016 468.676 16.3299C465.604 15.5393 462.401 15.3909 459.269 15.894C452.468 16.986 447.532 20.4546 445.436 27.2118C443.565 33.2923 443.55 39.7927 445.392 45.882C446.055 48.416 447.357 50.7381 449.171 52.6268C450.986 54.5155 453.255 55.908 455.761 56.6716C460.692 58.2758 465.995 58.3336 470.96 56.8372C474.429 55.9187 477.596 54.102 480.14 51.5702C480.903 50.8052 480.913 50.2896 480.102 49.5728C478.589 48.2806 477.141 46.9131 475.766 45.4754C474.831 44.4651 474.158 44.4379 473.148 45.3433C470.869 47.316 467.954 48.397 464.94 48.3866C460.239 48.5458 456.96 46.3368 455.928 42.2372C455.511 40.5982 455.779 40.2147 457.448 40.2063ZM455.771 30.7203C455.867 29.6814 456.197 28.6775 456.734 27.7828C457.271 26.8881 458.001 26.1255 458.873 25.5514C459.744 24.9774 460.733 24.6064 461.767 24.4661C462.801 24.3258 463.853 24.4196 464.846 24.7407C466.322 25.0443 467.647 25.8477 468.599 27.0154C469.551 28.183 470.071 29.6434 470.071 31.15C470.096 32.1707 469.719 32.5123 468.755 32.4976C468.258 32.4892 467.76 32.4843 467.263 32.4829C465.771 32.4829 464.276 32.4829 462.782 32.4829C460.967 32.4829 459.154 32.4997 457.332 32.4829C455.792 32.4683 455.662 32.3027 455.767 30.7182L455.771 30.7203Z" fill="#646464"/>
<path d="M362.178 41.9354C362.178 37.6576 362.207 33.3799 362.178 29.1022C362.115 22.0118 358.837 17.8515 352.015 16.3613C347.707 15.4503 343.269 15.3317 338.918 16.0113C335.721 16.4366 332.645 17.5107 329.879 19.1677C328.958 19.7315 328.688 20.3268 329.277 21.3139C330.385 23.173 331.446 25.0614 332.484 26.9603C332.932 27.7798 333.387 27.8258 334.16 27.327C338.009 24.9872 342.628 24.2668 347.006 25.3234C347.611 25.3728 348.2 25.5434 348.738 25.8251C349.275 26.1069 349.751 26.4939 350.136 26.9633C350.521 27.4326 350.808 27.9746 350.979 28.5571C351.15 29.1395 351.203 29.7504 351.133 30.3535C351.156 32.4703 351.143 32.4158 348.995 32.5039C345.079 32.5176 341.167 32.7457 337.277 33.1871C334.472 33.4648 331.862 34.7423 329.921 36.786C327.981 38.8298 326.841 41.5034 326.709 44.3184C326.19 50.671 329.245 55.4517 334.994 57.1452C336.228 57.5124 337.501 57.7353 338.786 57.8096C340.765 58.0674 342.776 57.9271 344.7 57.397C346.624 56.8668 348.423 55.9575 349.991 54.7224C350.304 54.4845 350.632 54.2675 350.974 54.0726C351.143 54.4696 351.251 54.8901 351.294 55.3197C351.231 56.5039 351.634 56.9859 352.904 56.9398C355.479 56.8476 358.057 56.8476 360.638 56.9398C361.931 56.9838 362.228 56.4724 362.216 55.2925C362.149 50.8429 362.178 46.3891 362.178 41.9354ZM351.07 44.4714C350.976 45.5632 350.504 46.5881 349.737 47.3702C348.969 48.1523 347.953 48.6428 346.864 48.7575C344.97 49.0536 343.044 49.0874 341.142 48.8581C340.197 48.7639 339.32 48.325 338.678 47.6253C338.036 46.9255 337.675 46.0139 337.663 45.0645C337.559 44.1209 337.804 43.172 338.35 42.3957C338.896 41.6194 339.707 41.069 340.63 40.8476C342.504 40.4596 344.398 40.1797 346.304 40.0093C346.304 40.0742 346.319 40.1392 346.329 40.2041C347.494 40.2041 348.662 40.2041 349.831 40.2041C350.67 40.2041 351.135 40.6045 351.116 41.491C351.095 42.4887 351.175 43.4863 351.074 44.4714H351.07Z" fill="#646464"/>
<path d="M133.726 42.3965C133.726 37.4753 133.829 32.5458 133.63 27.6331C133.653 24.9914 132.742 22.4265 131.057 20.3913C129.373 18.3561 127.024 16.9815 124.424 16.5102C119.857 15.4122 115.12 15.2136 110.476 15.9254C107.213 16.3301 104.075 17.4347 101.277 19.1636C100.374 19.7358 100.072 20.3037 100.672 21.2993C101.791 23.152 102.841 25.0509 103.906 26.9351C104.298 27.6289 104.691 28.0585 105.553 27.4863C109.225 25.2034 113.634 24.4193 117.868 25.2961C118.55 25.2903 119.225 25.4324 119.846 25.7127C120.468 25.9931 121.021 26.4049 121.468 26.9198C121.914 27.4347 122.244 28.0404 122.434 28.6951C122.624 29.3498 122.669 30.0379 122.567 30.7119C122.578 32.3551 122.548 32.3718 120.912 32.4138C117.516 32.5039 114.096 32.3677 110.736 32.7533C102.946 33.6482 97.6536 37.993 98.121 46.5862C98.1561 49.071 99.0209 51.4727 100.578 53.4095C102.135 55.3463 104.295 56.707 106.714 57.2752C112.495 58.7172 117.965 58.233 122.771 53.7562C122.771 54.3577 122.771 54.7371 122.771 55.1164C122.798 56.965 122.798 56.9734 124.594 56.9776C127.109 56.9776 129.635 56.9168 132.152 57.0069C133.409 57.0509 133.77 56.6297 133.755 55.4078C133.692 51.0714 133.734 46.735 133.726 42.3965ZM122.607 42.6648C122.593 46.7455 121.037 48.5332 116.921 48.9147C115.415 49.0637 113.896 48.9988 112.409 48.7219C111.527 48.5983 110.723 48.149 110.156 47.4623C109.589 46.7757 109.299 45.9016 109.344 45.0121C109.218 44.0985 109.439 43.1709 109.963 42.4121C110.488 41.6532 111.277 41.1183 112.176 40.9126C113.767 40.5625 115.386 40.3472 117.013 40.2691C118.061 40.1769 119.109 40.2524 120.17 40.2524C122.616 40.2524 122.616 40.2545 122.607 42.6669V42.6648Z" fill="#C8102E"/>
<path d="M488.904 20.245C488.928 21.146 488.682 22.0337 488.199 22.7942C487.715 23.5547 487.015 24.1533 486.188 24.5132C485.362 24.8731 484.447 24.9778 483.561 24.814C482.674 24.6502 481.857 24.2254 481.213 23.5939C480.57 22.9624 480.131 22.1532 479.951 21.27C479.771 20.3869 479.858 19.47 480.203 18.6372C480.547 17.8043 481.133 17.0934 481.885 16.5956C482.636 16.0979 483.519 15.8361 484.42 15.8437C485.004 15.837 485.584 15.9457 486.125 16.1636C486.667 16.3814 487.16 16.7041 487.576 17.113C487.993 17.522 488.324 18.0092 488.552 18.5466C488.78 19.0841 488.9 19.6613 488.904 20.245ZM480.987 20.245C480.975 20.703 481.055 21.1587 481.223 21.5852C481.39 22.0117 481.641 22.4004 481.961 22.7281C482.281 23.0559 482.664 23.316 483.086 23.4932C483.509 23.6704 483.962 23.7611 484.42 23.7598C484.872 23.7581 485.318 23.6658 485.733 23.4882C486.148 23.3107 486.523 23.0515 486.836 22.7262C487.149 22.4009 487.393 22.016 487.554 21.5945C487.715 21.1729 487.79 20.7233 487.774 20.2723C487.792 19.8168 487.718 19.3623 487.556 18.9361C487.394 18.5099 487.148 18.1205 486.833 17.7914C486.518 17.4622 486.139 17.1999 485.72 17.0201C485.302 16.8403 484.851 16.7467 484.395 16.7448C483.939 16.743 483.487 16.833 483.067 17.0094C482.646 17.1859 482.266 17.4451 481.948 17.7718C481.63 18.0984 481.381 18.4857 481.216 18.9107C481.051 19.3356 480.973 19.7894 480.987 20.245ZM483.699 22.5233H482.679V18.1219C483.238 18.0363 483.802 17.9915 484.368 17.9878C484.894 17.9318 485.423 18.0543 485.871 18.3357C486.018 18.4428 486.136 18.5846 486.216 18.7483C486.295 18.9121 486.333 19.0928 486.326 19.2746C486.311 19.5258 486.213 19.7651 486.048 19.9547C485.883 20.1444 485.659 20.2738 485.412 20.3226V20.375C485.842 20.5091 486.055 20.8591 486.192 21.4481C486.248 21.8191 486.355 22.1803 486.512 22.5211H485.439C485.265 22.1848 485.148 21.8223 485.091 21.4481C485.011 20.9912 484.743 20.7753 484.179 20.7753H483.695V22.5233H483.699ZM483.725 20.0564H484.207C484.771 20.0564 485.227 19.8698 485.227 19.4129C485.227 19.0126 484.932 18.7423 484.288 18.7423C484.099 18.7385 483.91 18.756 483.725 18.7947V20.0564Z" fill="#646464"/>
</svg>
