<svg xmlns="http://www.w3.org/2000/svg" width="65" height="38" viewBox="0 0 65 38">
  <path fill="#FEFEFE" fill-rule="evenodd" d="M58.1988332,9.66027704 L65,9.66027704 L54.1241488,38.5 L47.3628779,38.5 L50.6382411,30.5888362 L42.7030011,9.66027704 L49.5044795,9.66027704 L53.9552144,22.4693531 L58.1988332,9.66027704 Z M8.54564064,9.61323819 C16.2616088,8.20844194 21.7462096,14.1614661 21.7462096,20.0584102 L21.7462096,30.5842069 L15.4749108,30.5842069 L15.4749108,24.8391914 C15.5349105,20.541071 15.4979756,22.0362788 15.4979756,20.5679459 C15.4979756,16.528011 11.9310293,14.9980057 9.44501356,15.7716301 C5.14466766,17.3201216 5.19547264,22.4526068 8.78065266,24.4009596 C9.80360948,24.9570992 10.7779431,24.8391914 15.465716,24.8391914 C14.3048377,26.0931465 10.8123845,29.7944265 9.69654499,31.0056613 C6.89042669,30.857927 2.92343007,28.8828546 1.01668469,24.8593864 C-2.14989966,17.7212257 2.55937962,10.8718536 8.54564064,9.61323819 Z M24.6457561,30.588743 L24.6457561,1.5 L31.1556513,1.5 L31.1556513,30.588743 L24.6457561,30.588743 Z M34.304937,30.588743 L34.304937,1.5 L40.8117154,1.5 L40.8117154,30.588743 L34.304937,30.588743 Z" transform="translate(0 -1)"/>
</svg>
