<svg xmlns="http://www.w3.org/2000/svg" viewBox="0 0 97.15 39.84"><title>amica-logo-black-tagline</title><polygon points="6.58 0 97.15 0 97.15 25.03 6.58 25.03 6.58 0 6.58 0" style="fill:#00a891"/><path d="M36.26,8.38a35.58,35.58,0,0,1-5.72.27v.95h2V20.2h-2v1h7.54v-1H36.23V14a5.35,5.35,0,0,1,.87-3.29,2.92,2.92,0,0,1,2.18-1.08c1.62,0,1.8,1.41,1.8,3.11V20.2H39.46v1h7v-1H44.7V14.54c0-1.59.06-2.93,1.17-4a3,3,0,0,1,2-.9c1.71,0,1.71,1.47,1.71,3V20.2H47.9v1h7.21v-1H53.26V12.54c-.09-1.62-.12-4.25-4.07-4.25a4.86,4.86,0,0,0-4.49,2.57,4,4,0,0,0-4.13-2.6,5.24,5.24,0,0,0-4.31,2.3V8.38Z" style="fill:#fff"/><path d="M56.43,9.59h2V20.2h-2v1h7.69v-1H62.21V8.38c-1.41.09-2.18.15-2.93.21s-1.5.06-2.85.06v.95Zm1.35-5.21a2.16,2.16,0,1,0,2.16-2.16,2.15,2.15,0,0,0-2.16,2.16Z" style="fill:#fff;fill-rule:evenodd"/><path d="M77,17.35a5.31,5.31,0,0,1-4.24,3.11,2.27,2.27,0,0,1-1.39-.26,3.43,3.43,0,0,1-1.51-3c-.06-.72-.12-1.51-.12-2.3,0,0,0-3.29.51-4.32a2.63,2.63,0,0,1,2.49-1.52,2.75,2.75,0,0,1,1.86.61,2.6,2.6,0,0,0-1.11,2,2,2,0,0,0,4,0c0-2.09-2.24-3.48-5-3.48a6.73,6.73,0,0,0-7,7c0,3.69,2.63,6.38,6.77,6.38A6,6,0,0,0,78,17.92l-1-.57Z" style="fill:#fff"/><path d="M90.63,12.18a3.11,3.11,0,0,0-2-3.42,8,8,0,0,0-3-.54c-2.93,0-5.29,1.36-5.29,3.3A1.61,1.61,0,0,0,82,13.18a1.68,1.68,0,0,0,1.72-1.69,1.38,1.38,0,0,0-.15-.61c-.09-.24-.27-.42-.36-.66a.48.48,0,0,1-.05-.28c0-.27.42-.87,1.78-.87,2,0,2.11,1,2.11,2.24v2.26c-1.87.18-4.34.45-6,1.69a4,4,0,0,0-1.77,3.24c0,.94.45,3.05,3.57,3.05a5.52,5.52,0,0,0,4.3-2,2.88,2.88,0,0,0,2.71,2,4.06,4.06,0,0,0,3-1.51l-.55-.74a1.63,1.63,0,0,1-.91.45c-.73,0-.68-.81-.68-1.5V12.18ZM87,16.87a2.78,2.78,0,0,1-.85,2.45,2.22,2.22,0,0,1-1.33.48,2.11,2.11,0,0,1-2.05-2.33c0-2.69,2.63-2.84,4.23-2.93v2.33Z" style="fill:#fff;fill-rule:evenodd"/><path d="M16.74,20.2v1H9.66v-1H11c1.32-.09,1.69-.8,2.11-1.94,2.2-6.09,4.32-12.15,6.5-18.25H21s5,13.47,7.42,20.2h2.35v1H21.17v-1h2.75c-1.7-4.64-3.39-9.29-5.11-14l-2,5.6c-.22.61-1.64,5-2.29,6.86-.17.65-.15.6-.13.9,0,.52.73.63,2.3.61Z" style="fill:#fff"/><polyline points="0 12.65 0 12.65 1.19 16.26 21.08 16.26 19.73 12.65 0 12.65" style="fill:#fff"/><polygon points="0 12.64 19.73 12.64 20.62 15.04 0.79 15.04 0 12.64" style="fill:#231f20"/><polygon points="6.58 24.99 97.15 24.99 97.15 29.86 6.58 29.86 6.58 24.99 6.58 24.99" style="fill:#231f20"/><path d="M13.86,37.4H12.42c.14-.39.74-2.52.74-2.52h0C13.21,35.11,13.8,37.27,13.86,37.4Zm1.77,2.37-1.88-5.9H12.62l-1.93,5.9h1l.48-1.55h1.91l.48,1.55Z" style="fill:#231f20"/><path d="M19.13,39.84c-1.16,0-1.52-.6-1.52-1.31V35.34h.74v3c0,.68.24.9.79.9s.8-.31.8-.9v-3h.73v3.19C20.66,39.34,20.1,39.84,19.13,39.84Z" style="fill:#231f20"/><path d="M25.58,36H24.47v3.81h-.73V36H22.62v-.61h3.06Z" style="fill:#231f20"/><path d="M29.22,39.28c-.76,0-1-.63-1-1.77s.28-1.66,1-1.66,1,.68,1,1.76S29.88,39.28,29.22,39.28Zm0,.56c1.15,0,1.81-.89,1.81-2.27s-.6-2.28-1.85-2.28-1.85.81-1.85,2.27S28,39.83,29.24,39.83Z" style="fill:#231f20"/><path d="M45.89,39.77V37h-2v2.72h-1V33.88h1v2.36h2V33.88h1v5.89Z" style="fill:#231f20"/><path d="M51.23,39.28c-.76,0-1-.63-1-1.77s.28-1.66,1-1.66,1,.68,1,1.76S51.89,39.28,51.23,39.28Zm0,.56c1.15,0,1.81-.89,1.81-2.27s-.6-2.28-1.85-2.28-1.85.81-1.85,2.27S50,39.83,51.25,39.83Z" style="fill:#231f20"/><path d="M58.92,39.77,58.71,37c0-.28,0-.61,0-.75,0,.15-.09.41-.17.69l-.8,2.8h-.63l-.73-2.68c-.08-.29-.16-.67-.19-.82,0,.15,0,.55,0,.83l-.19,2.67H55.2l.4-4.42h1l.67,2.51a6.9,6.9,0,0,1,.17.74c0-.13.08-.41.16-.72l.7-2.52h1l.39,4.42Z" style="fill:#231f20"/><path d="M62,39.77V35.34h2.45l-.1.6H62.78v1.22h1.36v.6H62.79v1.39h1.77v.62Z" style="fill:#231f20"/><path d="M79.95,39.77h-3V33.88h1V39h2.18Z" style="fill:#231f20"/><path d="M82.2,39.77V35.34h.75v4.42Z" style="fill:#231f20"/><path d="M87.74,35.94H86.23v1.21h1.23v.59H86.23v2H85.5V35.34h2.33Z" style="fill:#231f20"/><path d="M89.91,39.77V35.34h2.45l-.09.6H90.64v1.22H92v.6H90.65v1.39h1.77v.62Z" style="fill:#231f20"/></svg>