<?xml version="1.0" encoding="utf-8"?>
<!-- Generator: Adobe Illustrator 25.1.0, SVG Export Plug-In . SVG Version: 6.00 Build 0)  -->
<svg version="1.1" id="Layer_1" xmlns="http://www.w3.org/2000/svg" xmlns:xlink="http://www.w3.org/1999/xlink" x="0px" y="0px"
	 viewBox="0 0 324 146.7" style="enable-background:new 0 0 324 146.7;" xml:space="preserve">
<style type="text/css">
	.st0{fill:#004362;}
</style>
<g>
	<path class="st0" d="M152.1,17.9c-0.1-1.3-0.4-2.7-2-2.7h-0.3v5.7c0,0.8,0.3,1,0.9,1h0.8V23h-5.6v-1.2h0.4c0.7,0,0.9-0.2,0.9-1
		v-5.7H147c-1.6,0-1.9,1.4-2,2.7h-0.9V14h8.8v3.9H152.1z"/>
	<path class="st0" d="M162.3,23v-1.2h0.3c0.7,0,0.9-0.2,0.9-1v-1.7h-3.1v1.7c0,0.8,0.3,1,0.9,1h0.5V23h-5v-1.2h0.2
		c0.7,0,0.9-0.2,0.9-1v-4.8c0-0.5-0.3-0.9-0.6-1.1l-0.6-0.3V14h5.2v1.2h-0.5c-0.6,0-0.9,0.2-0.9,1v1.7h3.1v-1.7c0-0.7-0.3-1-0.9-1
		h-0.2V14h4.7v1.2H167c-0.6,0-0.9,0.2-0.9,1v4.7c0,0.8,0.3,1,0.9,1h0.5V23H162.3z"/>
	<path class="st0" d="M171.3,23v-1.2h0.2c0.7,0,0.9-0.2,0.9-1v-4.8c0-0.5-0.3-0.9-0.6-1.1l-0.6-0.3V14h8.7v3.4h-0.9
		c-0.2-1.4-0.7-2.2-2.2-2.2h-1c-0.6,0-0.9,0.2-0.9,1v1.7h0.5c0.6,0,0.7-0.5,0.7-1v-0.3h1.1v3.9h-1.1v-0.3c0-0.5-0.1-1-0.7-1h-0.5
		v1.8c0,0.8,0.3,1,0.9,1h1.1c1.5,0,2-1.1,2.1-2.5h0.9V23H171.3z"/>
</g>
<g>
	<path class="st0" d="M73.2,101.2c-5.2,0-8.3-3.3-8.3-8.3c0-4.4,3.4-8,7.8-8c1.2,0,2.2,0.3,3.2,0.7c0.3,0.1,0.6,0.3,0.9,0.3
		c0.4,0,0.8-0.4,0.8-0.8c0-0.1,0-0.1,0-0.2h1.8V91H78c-0.4-2.3-2.1-4-4.5-4c-3,0-3.7,3.2-3.7,5.6c0,3.2,0.9,6.2,4.4,6.2
		c1.8,0,3.6-1.5,4.4-3.9l1.4,0.4C79.2,98.7,76.8,101.2,73.2,101.2z"/>
	<path class="st0" d="M95,101.2c-4.8,0-8.4-3.3-8.4-8.2s3.6-8.2,8.4-8.2c4.8,0,8.4,3.3,8.4,8.2S99.7,101.2,95,101.2z M94.7,87
		c-2.7,0-3.3,2.8-3.3,5c0,2.3,0.6,7.1,3.7,7.1c2.7,0,3.3-2.8,3.3-5C98.5,91.7,97.9,87,94.7,87z"/>
	<path class="st0" d="M123.7,100.9v-2.1h0.8c1.2,0,1.6-0.3,1.6-1.7v-9.2l-4.6,13h-2.2l-4.8-12.4v8.6c0,1.5,0.6,1.7,1.6,1.7h0.8v2.1
		h-6.6v-2.1h0.3c1.2,0,1.6-0.3,1.6-1.7v-8.4c0-0.8-0.4-1.6-1.1-1.9l-1-0.5v-1.2h7.9l3.5,9.1l3.1-9.1h8.1v2.1h-0.3
		c-1.1,0-1.5,0.4-1.5,1.7v8.3c0,1.5,0.6,1.7,1.6,1.7h0.8v2.1H123.7z"/>
	<path class="st0" d="M148.2,94.7H146v2.4c0,1.5,0.6,1.7,1.6,1.7h1.4v2.1h-9.4v-2.1h0.3c1.2,0,1.6-0.3,1.6-1.7v-8.4
		c0-0.8-0.4-1.6-1.1-1.9l-1-0.5v-1.2h8.2c3.6,0,7.8,0.6,7.8,5C155.3,93.8,151.4,94.7,148.2,94.7z M148,87.2h-0.4
		c-1.1,0-1.5,0.4-1.5,1.7v3.8h1.7c1.6,0,2.8-0.8,2.8-2.5C150.5,88.6,149.6,87.2,148,87.2z"/>
	<path class="st0" d="M168.3,100.9v-2.1h1.1c0.6,0,0.8-0.2,0.8-0.6c0-0.2,0-0.4-0.1-0.6l-0.4-1H164l-0.4,0.9
		c-0.1,0.2-0.1,0.4-0.1,0.5c0,0.5,0.4,0.8,1.1,0.8h1.1v2.1h-6.7v-2.1h0.5c0.8,0,0.9-0.5,1.2-1.1l4.8-12.6h4.5l4.5,12.3
		c0.2,0.7,0.5,1.4,1.3,1.4h0.6v2.1H168.3z M166.9,88.8l-2.1,5.7h4.1L166.9,88.8z"/>
	<path class="st0" d="M199.8,87.2c-1.2,0-1.6,0.3-1.6,1.7v12h-4.3L186.8,90v7.1c0,1.5,0.6,1.7,1.6,1.7h1.2v2.1h-7v-2.1h0.3
		c1.2,0,1.6-0.3,1.6-1.7v-8.4c0-0.8-0.4-1.6-1.1-1.9l-1-0.5v-1.2h6.6l7,10.5v-6.7c0-1.5-0.6-1.7-1.6-1.7h-1.1v-2.1h6.9v2.1H199.8z"
		/>
	<path class="st0" d="M206.8,100.9v-2.1h0.3c1.2,0,1.6-0.3,1.6-1.7v-8.4c0-0.8-0.4-1.6-1.1-1.9l-1-0.5v-1.2h8.5v2.1h-0.3
		c-1.1,0-1.5,0.4-1.5,1.7v8.3c0,1.5,0.6,1.7,1.6,1.7h0.8v2.1H206.8z"/>
	<path class="st0" d="M222.3,100.9v-2.1h0.3c1.2,0,1.6-0.3,1.6-1.7v-8.4c0-0.8-0.4-1.6-1.1-1.9l-1-0.5v-1.2h15.4v6h-1.6
		c-0.3-2.4-1.2-3.9-3.9-3.9h-1.7c-1.1,0-1.5,0.4-1.5,1.7v3.1h0.9c1,0,1.2-1,1.2-1.8v-0.6h2v6.8h-2v-0.6c0-0.9-0.2-1.8-1.2-1.8h-0.9
		v3.2c0,1.5,0.6,1.7,1.6,1.7h2c2.7,0,3.6-1.9,3.6-4.4h1.6v6.5H222.3z"/>
	<path class="st0" d="M252.6,101.2c-1.6,0-3-0.5-3.7-0.8c-0.4-0.1-0.7-0.2-1-0.2c-0.4,0-0.6,0.3-0.7,0.7h-1.7v-6.1h1.5
		c0.8,3,3.5,4.3,5.2,4.3c1.5,0,2.8-0.5,2.8-1.9c0-3.8-9.6-1.3-9.6-8.1c0-3.3,2.9-4.3,5.8-4.3c1.4,0,2.9,0.5,3.7,0.7
		c0.3,0.1,0.5,0.1,0.7,0.1c0.4,0,0.5-0.2,0.6-0.6h1.7v5.6h-1.5c-0.7-2.4-2.6-3.7-5-3.7c-1,0-2.2,0.3-2.2,1.5c0,3.1,9.7,1.3,9.7,7.9
		C259,99.6,256.1,101.2,252.6,101.2z"/>
</g>
<g>
	<g>
		<g>
			<path class="st0" d="M151.2,132.5v-1.4h1.3c0.5,0,0.6-0.4,0.6-0.9v-5.3c-0.4,0.4-1,0.6-1.9,0.7v-1.5c1.1-0.3,2.2-0.9,2.4-2.1h2.1
				v8.2c0,0.5,0.1,0.9,0.6,0.9h1.2v1.4H151.2z"/>
			<path class="st0" d="M165.8,132.6c-1.9,0-4-1-4-3c0-1.3,1.1-2.1,2.2-2.6c-1-0.5-1.8-1.1-1.8-2.6c0-2.2,2-2.6,3.8-2.6
				c1.8,0,3.6,0.7,3.6,2.8c0,1.2-0.9,1.7-1.8,2.2c1.1,0.8,2.2,1.4,2.2,3C170,131.9,167.9,132.6,165.8,132.6z M166.3,128.3
				c-0.2-0.2-0.8-0.4-0.9-0.5c-0.8,0.2-1.3,1.1-1.3,1.8c0,1,0.9,1.8,1.9,1.8c0.7,0,1.5-0.6,1.5-1.5
				C167.4,129.2,166.9,128.7,166.3,128.3z M166,123c-0.8,0-1.4,0.4-1.4,1.2c0,0.6,0.3,1,1,1.3l1,0.5c0.6-0.4,0.9-0.8,0.9-1.5
				C167.5,123.6,166.9,123,166,123z"/>
		</g>
		<g>
			<path class="st0" d="M181.2,132.6c-0.6,0-0.9,0-1.4-0.3c-0.4-0.2-1.4-0.8-2-0.8c-0.7,0-0.8,0.4-0.9,0.9l0,0.1h-1.4
				c0-0.5-0.1-1-0.1-1.6c0-0.9,0.3-1.8,1-2.5c0.6-0.6,1.4-1,2.3-1.4c0.9-0.5,1.8-1.3,1.8-2.3c0-1-0.7-1.6-1.7-1.6
				c-0.8,0-1.3,0.4-1.4,1.1c0.7,0,1.2,0.4,1.2,1.2c0,0.7-0.7,1.2-1.4,1.2c-1.1,0-1.7-0.9-1.7-1.9c0-1.1,0.8-1.9,1.7-2.3
				c0.7-0.3,1.3-0.4,2-0.4c1.9,0,4.1,0.9,4.1,3.1c0,3.2-6.6,2.8-6.6,5.7c0,0.1,0,0.2,0,0.4h0.1c0.3-0.9,0.7-1.5,1.8-1.5
				c1.2,0,2.1,0.9,2.9,0.9c1.1,0,1.3-0.7,1.5-1.5h0.3c0,0.4,0,0.8,0,1.3C183.4,131.5,182.6,132.6,181.2,132.6z"/>
			<path class="st0" d="M192,132.6c-1.9,0-4-1-4-3c0-1.3,1.1-2.1,2.2-2.6c-1-0.5-1.8-1.1-1.8-2.6c0-2.2,2-2.6,3.8-2.6
				c1.8,0,3.6,0.7,3.6,2.8c0,1.2-0.9,1.7-1.8,2.2c1.1,0.8,2.2,1.4,2.2,3C196.2,131.9,194.1,132.6,192,132.6z M192.5,128.3
				c-0.2-0.2-0.8-0.4-0.9-0.5c-0.8,0.2-1.3,1.1-1.3,1.8c0,1,0.9,1.8,1.9,1.8c0.7,0,1.5-0.6,1.5-1.5
				C193.6,129.2,193.1,128.7,192.5,128.3z M192.2,123c-0.8,0-1.4,0.4-1.4,1.2c0,0.6,0.3,1,1,1.3l1,0.5c0.6-0.4,0.9-0.8,0.9-1.5
				C193.7,123.6,193.1,123,192.2,123z"/>
		</g>
	</g>
	<g>
		<path class="st0" d="M125.8,132v-9.4h4.3v1.4h-2.7v2.4h2.1v1.4h-2.1v2.8h2.9v1.4H125.8z"/>
		<path class="st0" d="M135.8,124.1c0-0.5-0.3-0.7-0.6-0.7c-0.4,0-0.5,0.2-0.5,0.6c0,1.1,2.2,1.6,2.2,3.3c0,1-0.7,1.6-1.7,1.6
			c-1,0-1.6-0.8-1.6-1.8l1-0.1c0,0.6,0.3,1,0.6,1c0.4,0,0.6-0.2,0.6-0.6c0-1.3-2.2-1.6-2.2-3.4c0-1,0.6-1.6,1.7-1.6
			c0.9,0,1.4,0.6,1.5,1.5L135.8,124.1z"/>
		<path class="st0" d="M140.1,123.5h-1.1v-0.9h3.2v0.9h-1.1v5.4h-1.1V123.5z"/>
	</g>
	<g>
		<rect x="133.8" y="130.7" class="st0" width="7.8" height="1.3"/>
	</g>
</g>
<g>
	<g>
		<circle class="st0" cx="206" cy="127" r="1.6"/>
	</g>
	<g>
		<circle class="st0" cx="116" cy="127" r="1.6"/>
	</g>
</g>
<g>
	<path class="st0" d="M39.5,71.8V67h2.4c1.3,0,1.7-0.5,1.7-1.3c0-0.4-0.1-0.9-0.3-1.4L42.5,62H29.8l-0.9,2.1
		c-0.2,0.4-0.3,0.8-0.3,1.2c0,1.2,1,1.8,2.4,1.8h2.4v4.8h-15V67h1.2c1.7,0,2.1-1.1,2.7-2.4l10.8-28.5h10.1l10.1,27.8
		c0.6,1.5,1.1,3.1,3,3.1h1.4v4.8H39.5z M36.5,44.5l-4.8,12.9h9.3L36.5,44.5z"/>
	<path class="st0" d="M99.5,40.8c-2.6,0-3.5,0.7-3.5,3.8v27.2h-9.8L70.1,47.2v16c0,3.3,1.3,3.8,3.5,3.8h2.7v4.7H60.4v-4.7H61
		c2.6,0,3.5-0.7,3.5-3.8v-19c0-1.9-1-3.5-2.6-4.3l-2.3-1.1v-2.8h14.9l15.9,23.7V44.6c0-3.3-1.3-3.8-3.5-3.8h-2.4v-4.7h15.5v4.7H99.5
		z"/>
	<path class="st0" d="M122.9,71.8h-18.7v-4.7h0.6c2.6,0,3.5-0.7,3.5-3.8v-19c0-1.9-1-3.5-2.6-4.3l-2.3-1.1v-2.8h16.9
		c12.5,0,22.2,4.8,22.2,18.8C142.5,65.9,133,71.8,122.9,71.8z M121.6,40.4L121.6,40.4c-2.5,0-3.1,1.6-3.1,3.8v19
		c0,3.4,0.9,3.8,3.6,3.8h0.1c7,0,9.1-6.6,9.1-12.7C131.2,47.9,129.3,40.4,121.6,40.4z"/>
	<path class="st0" d="M166.5,72.3c-10.7,0-19-7.4-19-18.4s8.2-18.4,19-18.4s19,7.5,19,18.4S177.2,72.3,166.5,72.3z M165.9,40.3
		c-6.2,0-7.3,6.3-7.3,11.3c0,5.3,1.3,15.9,8.4,15.9c6.2,0,7.3-6.4,7.3-11.3C174.3,51,173.1,40.3,165.9,40.3z"/>
	<path class="st0" d="M222.8,40.8c-2.4,0-2.4,1.1-3.4,3.8L210,71.8h-10.8l-9.5-27.5c-0.6-1.8-1-3.5-2.6-4.3l-2.3-1.1v-2.8h19.4v4.7
		h-0.8c-1.9,0-3.6,0.7-3.6,2.5c0,0.4,0.1,0.8,0.2,1.3l6.7,19.4l6.6-19.4c0.2-0.5,0.2-0.9,0.2-1.3c0-1.8-1.7-2.5-3.6-2.5h-0.8v-4.7
		h14.3v4.7H222.8z"/>
	<path class="st0" d="M226,71.8v-4.7h0.6c2.6,0,3.5-0.7,3.5-3.8v-19c0-1.9-1-3.5-2.6-4.3l-2.3-1.1v-2.8h34.7v13.6h-3.5
		c-0.8-5.4-2.7-8.9-8.8-8.9h-3.9c-2.4,0-3.4,0.9-3.4,3.8v6.9h2.1c2.3,0,2.7-2.2,2.7-4.1V46h4.4v15.4h-4.4v-1.3
		c0-1.9-0.4-4.1-2.7-4.1h-2.1v7.2c0,3.3,1.3,3.8,3.5,3.8h4.4c6.2,0,8.1-4.3,8.2-9.8h3.7v14.5H226z"/>
	<path class="st0" d="M297.6,72.3c-7.2,0-9-4.6-9.5-8.8c-0.4-3.7-1-7.7-6.9-7.7h-0.8V63c0,1.9,0.2,4.1,2.7,4.1h1.8v4.7H266v-4.7h0.6
		c2.6,0,3.5-0.7,3.5-3.8v-19c0-1.9-1-3.5-2.6-4.3l-2.3-1.1v-2.8h18.8c6.8,0,16.1,0.9,16.1,10c0,4.6-4.2,7.8-10.4,8.4
		c4.4,0.6,6.6,3.3,7.2,5.8c0.7,2.9,0.8,7.5,3.8,7.5c2.4,0,3.1-2,3.6-5.2h1.1c0.1,0.3,0.1,1.4,0.1,1.9
		C305.6,69.4,302.5,72.3,297.6,72.3z M284.2,40.8h-1c-2.3,0-2.8,1.9-2.8,3.8v6.7h3.3c3.1,0,6.1-1.5,6.1-5.1
		C289.8,43,287.5,40.8,284.2,40.8z"/>
</g>
<g>
	<path class="st0" d="M267.1,98c-0.1-0.3-0.3-0.5-0.5-0.7c-0.2-0.2-0.5-0.4-0.7-0.5c-0.3-0.1-0.6-0.2-0.9-0.2s-0.6,0.1-0.9,0.2
		c-0.3,0.1-0.5,0.3-0.7,0.5c-0.2,0.2-0.4,0.5-0.5,0.7c-0.1,0.3-0.2,0.6-0.2,0.9s0.1,0.6,0.2,0.9c0.1,0.3,0.3,0.5,0.5,0.7
		c0.2,0.2,0.5,0.4,0.7,0.5c0.3,0.1,0.6,0.2,0.9,0.2s0.6-0.1,0.9-0.2c0.3-0.1,0.5-0.3,0.7-0.5c0.2-0.2,0.4-0.5,0.5-0.7
		c0.1-0.3,0.2-0.6,0.2-0.9S267.3,98.3,267.1,98z M265.1,100.9c-1.1,0-2-0.9-2-2c0-1.1,0.9-2,2-2c1.1,0,2,0.9,2,2
		C267,100,266.2,100.9,265.1,100.9z"/>
	<path class="st0" d="M265.9,99.3c-0.1-0.2-0.2-0.3-0.3-0.4c0.2-0.1,0.4-0.4,0.4-0.6c0-0.2-0.1-0.4-0.3-0.6
		c-0.2-0.1-0.4-0.2-0.7-0.2c-0.2,0-0.4,0-0.7,0.1l0,0v2.6h0.4v-1.1h0.4c0.3,0,0.5,0.4,0.6,1.1l0,0h0.4l0-0.1
		C266,99.8,266,99.5,265.9,99.3z M265.5,98.7c-0.1,0.1-0.2,0.1-0.4,0.1h-0.4V98c0.1,0,0.2,0,0.3,0c0.4,0,0.6,0.1,0.6,0.4
		C265.6,98.5,265.6,98.6,265.5,98.7z"/>
</g>
</svg>
