<svg alt="Primary Logo" title="Primary" class="nav-primary-logo" id="Layer_1" xmlns="http://www.w3.org/2000/svg" viewBox="0 0 374 286"><style>.st0{fill:#fff}</style><path class="st0" d="M79.3 224.4l-7.8-19.8H27.4l-7.8 19.8H7L42.6 135h13.7L92 224.4H79.3zm-29.8-77.9l-18.8 48.1h37.6l-18.8-48.1zM156.1 224.4l-22.6-35.5h-17.7v35.5h-11V135h35.6c16.2 0 27.7 10.5 27.7 26.9 0 16.1-10.9 24.9-23 26l23.9 36.5h-12.9zm.6-62.5c0-10.1-7.2-17-17.7-17h-23.2v34.2H139c10.6 0 17.7-7.2 17.7-17.2zM183.3 179.7c0-27.8 20.3-46.3 45.5-46.3 15.7 0 26.5 7 34.4 16.8l-8.8 5.5c-5.6-7.2-15-12.3-25.6-12.3-19.4 0-34.1 15-34.1 36.3 0 21.2 14.7 36.5 34.1 36.5 10.6 0 19.4-5.2 23.8-9.7v-18.2h-30.4v-9.9h41.4v32.3c-8.2 9.2-20.3 15.4-34.8 15.4-25.2 0-45.5-18.6-45.5-46.4zM279.1 179.7c0-26.4 17.7-46.3 43.9-46.3s43.9 19.8 43.9 46.3c0 26.4-17.8 46.3-43.9 46.3-26.2 0-43.9-19.9-43.9-46.3zm76.5 0c0-20.9-12.7-36.3-32.5-36.3-19.9 0-32.5 15.4-32.5 36.3 0 20.8 12.6 36.3 32.5 36.3 19.7.1 32.5-15.5 32.5-36.3z"></path><g><path class="st0" d="M110.3 265.2c0-9.1 6.7-15.2 15.1-15.2 5.2 0 8.8 2.3 11.4 5.5l-2.9 1.8c-1.9-2.4-5-4.1-8.5-4.1-6.4 0-11.3 4.9-11.3 11.9s4.9 12 11.3 12c3.5 0 6.4-1.7 7.9-3.2v-6h-10.1v-3.3H137v10.6c-2.7 3-6.7 5.1-11.5 5.1-8.5.1-15.2-6-15.2-15.1zM163.2 279.9l-7.5-11.7h-5.9v11.7h-3.7v-29.4H158c5.4 0 9.2 3.4 9.2 8.9 0 5.3-3.6 8.2-7.6 8.6l7.9 12h-4.3zm.2-20.6c0-3.3-2.4-5.6-5.9-5.6h-7.7V265h7.7c3.5 0 5.9-2.4 5.9-5.7zM175.1 265.2c0-8.7 5.9-15.2 14.6-15.2s14.6 6.5 14.6 15.2-5.9 15.2-14.6 15.2-14.6-6.5-14.6-15.2zm25.4 0c0-6.9-4.2-11.9-10.8-11.9-6.6 0-10.8 5.1-10.8 11.9 0 6.8 4.2 11.9 10.8 11.9 6.6 0 10.8-5.1 10.8-11.9zM213.3 268.5v-18h3.7v17.9c0 5.4 2.9 8.8 8.3 8.8s8.3-3.4 8.3-8.8v-17.9h3.7v17.9c0 7.3-4 12-12 12s-12-4.7-12-11.9zM247.5 279.9v-29.4h11.8c5.9 0 9.2 4.1 9.2 8.9 0 4.8-3.4 8.9-9.2 8.9h-8.2V280h-3.6zm17.2-20.6c0-3.3-2.4-5.6-5.9-5.6h-7.7v11.2h7.7c3.5 0 5.9-2.3 5.9-5.6z"></path></g><path class="st0" d="M226.4 52.3L269 5l-61.4 47.3h18.8zm2.6 0h15.4l24.4-46.6L229 52.3zm39.2-47l-89 47h24.4l64.6-47zm-38.8 76.1l11.5-22.5c-6.3 0-12.2.3-18.1.7l-16.4 19.1c7.9.3 15.3 1 23 2.7m-59.8-.8c6.2-.9 17.6-2.2 30.4-2.2h2.5l17.1-18.6c-8.9.6-17.9 1.6-25.9 2.8-1.1.8-1.8 1.3-1.8 1.3l-22.3 16.7zm-4.4 3.1l-5.1.9 28.5-21.3c-42.9 7.2-70.3 20.9-77.3 24.7 2.7 0 41.8-.5 70.8 15.3L202 80.8h-2c-18.8 0-34.8 2.9-34.8 2.9"></path></svg>