<svg xmlns="http://www.w3.org/2000/svg" width="120" height="34.433" viewBox="0 0 120 34.433">
  <g id="Aspen_Primary_Logo_Colour_RGB" transform="translate(0)">
    <path id="fullLogo" d="M217.2,34.208l-2.232-6.547h-8.407l-2.269,6.547h-2.864l7.477-20.979V11.667l5.8-1.3,8.332,23.843Zm-6.138-18.561h-.372l-3.273,9.6h6.733Z" transform="translate(-173.454 -8.925)" fill="#002f2d"/>
    <path id="fullLogo-2" data-name="fullLogo" d="M366.366,68.71a6.245,6.245,0,0,0,4.947,2.381c2.157,0,3.31-.632,3.31-1.9,0-1.041-.632-1.711-3.05-2.529-3.868-1.265-6.435-2.641-6.435-5.952,0-3.124,2.529-5.356,7.03-5.356a14.769,14.769,0,0,1,6.472,1.451l-1.339,3.2a6.905,6.905,0,0,0-4.724-2.232c-1.971,0-2.976.67-2.976,1.711,0,.967.521,1.562,2.9,2.343,4.352,1.451,6.547,2.864,6.547,5.951,0,3.2-2.529,5.728-7.737,5.728a12.354,12.354,0,0,1-6.249-1.562Z" transform="translate(-314.361 -47.667)" fill="#002f2d"/>
    <path id="fullLogo-3" data-name="fullLogo" d="M481.3,82.1V56.4l4.873-.967v2.6h.149a7.171,7.171,0,0,1,5.356-2.678c4.24,0,6.77,3.571,6.77,8.22,0,5.245-3.385,9.671-9.485,9.671a9.391,9.391,0,0,1-2.79-.409V82.1Zm4.873-12.275a4.739,4.739,0,0,0,2.753,1c2.455,0,4.278-2.418,4.278-5.877s-1.674-5.765-4.129-5.765a4.416,4.416,0,0,0-2.9,1.488Z" transform="translate(-414.45 -47.669)" fill="#002f2d"/>
    <path id="fullLogo-4" data-name="fullLogo" d="M631.33,71.5a9.3,9.3,0,0,1-6.361,2.009c-5.357,0-8.964-3.422-8.964-8.853,0-5.468,3.683-9.3,8.853-9.3,4.91,0,7.588,2.9,7.588,7.514a11.448,11.448,0,0,1-.149,1.9H621.25c.149,3.5,1.934,6.323,5.133,6.323a5.734,5.734,0,0,0,3.831-1.525Zm-3.794-8.927c0-2.939-.781-4.8-2.864-4.8-1.674,0-2.976,1.86-3.348,4.8Z" transform="translate(-530.449 -47.669)" fill="#002f2d"/>
    <path id="fullLogo-5" data-name="fullLogo" d="M760.883,72.952V62.8c0-2.232-.632-3.348-2.641-3.348a4.818,4.818,0,0,0-3.459,2.157V72.952H749.91V56.4l4.873-.93v2.753h.186c1.934-1.785,3.831-2.864,6.138-2.864,3.273,0,4.65,2.492,4.65,5.765V72.952Z" transform="translate(-645.756 -47.669)" fill="#002f2d"/>
    <g id="logoMark" transform="translate(0)">
      <path id="logoMark_PathItem_" data-name="logoMark &lt;PathItem&gt;" d="M125.009,18.007a54.533,54.533,0,0,0-2.476-9.082l-5.616,9.082Z" transform="translate(-100.679 -7.686)" fill="#002f2d"/>
      <path id="logoMark_PathItem_2" data-name="logoMark &lt;PathItem&gt;" d="M57.32,147.143l-2.348,3.8a12.425,12.425,0,0,0,5.812,1.612c4.71,0,8.094-2.106,9.829-5.41Z" transform="translate(-47.337 -126.707)" fill="#002f2d"/>
      <path id="logoMark_PathItem_3" data-name="logoMark &lt;PathItem&gt;" d="M86.013,91.953l-3.225,5.215H95.495a12.762,12.762,0,0,0,.3-1.625,20.139,20.139,0,0,0,.1-3.591Z" transform="translate(-71.29 -79.182)" fill="#002f2d"/>
      <path id="logoMark_PathItem_4" data-name="logoMark &lt;PathItem&gt;" d="M86.518,0a56.048,56.048,0,0,0-8.945,1.709l3.474,7.042Z" transform="translate(-66.799)" fill="#002f2d"/>
      <path id="logoMark_PathItem_5" data-name="logoMark &lt;PathItem&gt;" d="M2.06,50.19C-.3,53.237-.771,57.305,1.371,61.646a12.233,12.233,0,0,0,4.017,4.5l2.539-4.062Z" transform="translate(0 -43.219)" fill="#002f2d"/>
      <path id="logoMark_PathItem_6" data-name="logoMark &lt;PathItem&gt;" d="M33.5,32.059l3.268-5.228L32.487,18.16a20.293,20.293,0,0,0-3.459,1.792,12.872,12.872,0,0,0-1.107.805Z" transform="translate(-24.044 -15.638)" fill="#002f2d"/>
    </g>
  </g>
</svg>
