<svg id="Logo" xmlns="http://www.w3.org/2000/svg" width="140" height="29.258" viewBox="0 0 140 29.258">
  <g id="Group_1026" data-name="Group 1026" transform="translate(-27.437 -24.858)">
    <g id="Group_1024" data-name="Group 1024" transform="translate(64.675 33.776)">
      <path id="Path_2989" data-name="Path 2989" d="M154.1,52.639c1.159,0,1.881-.65,1.881-1.491,0-1.254-1.266-1.711-2.361-2.42-1.472-.87-2.241-1.7-2.241-3.007,0-1.638,1.28-2.811,3.232-2.811a5.867,5.867,0,0,1,2.675.646l-.059,1.7a5.561,5.561,0,0,0-2.48-.842c-1.007,0-1.579.5-1.579,1.22,0,.976,1.225,1.453,2.225,2.1,1.626.964,2.466,1.893,2.466,3.369,0,1.85-1.384,3.174-3.669,3.174a6.692,6.692,0,0,1-2.869-.631l-.166-2.09A5.561,5.561,0,0,0,154.1,52.639Z" transform="translate(-127.032 -42.875)" fill="#818386"/>
      <path id="Path_2990" data-name="Path 2990" d="M132.841,52.639c1.158,0,1.88-.65,1.88-1.491,0-1.254-1.265-1.711-2.36-2.42-1.473-.87-2.24-1.7-2.24-3.007,0-1.638,1.276-2.811,3.23-2.811a5.875,5.875,0,0,1,2.676.646l-.058,1.7a5.566,5.566,0,0,0-2.48-.842c-1.007,0-1.579.5-1.579,1.22,0,.976,1.223,1.453,2.225,2.1,1.623.964,2.463,1.893,2.463,3.369,0,1.85-1.382,3.174-3.668,3.174a6.694,6.694,0,0,1-2.869-.631l-.165-2.09A5.567,5.567,0,0,0,132.841,52.639Z" transform="translate(-116.319 -42.875)" fill="#818386"/>
      <path id="Path_2991" data-name="Path 2991" d="M174.848,49.85c0,2.057.869,3.109,2.567,3.109,1.667,0,2.573-1.068,2.573-3.155V43.64h1.9v6.192c0,3.113-1.689,4.8-4.462,4.8-2.86,0-4.471-1.88-4.471-4.766V43.64h1.9Z" transform="translate(-138.021 -43.243)" fill="#818386"/>
      <path id="Path_2992" data-name="Path 2992" d="M200.413,43.64h2.465a5.417,5.417,0,0,1,3.323.736,2.794,2.794,0,0,1,1.247,2.27,3.057,3.057,0,0,1-2.329,2.962l3.441,4.671h-2.179l-3.234-4.416h-.9v4.416h-1.834Zm5.172,3.157c0-1.662-1.806-1.639-3.338-1.639v3.3C203.443,48.458,205.585,48.578,205.585,46.8Z" transform="translate(-151.862 -43.243)" fill="#818386"/>
      <path id="Path_2993" data-name="Path 2993" d="M281.6,54.279h-1.878V45.264h-3.593V43.64h9.046v1.624H281.6Z" transform="translate(-190.026 -43.242)" fill="#818386"/>
      <g id="Group_1022" data-name="Group 1022" transform="translate(0 0.008)">
        <path id="Path_2994" data-name="Path 2994" d="M107.92,42.9a.119.119,0,0,0-.079-.043.123.123,0,0,0-.081.043,36.123,36.123,0,0,0-5.239,10.985h1.9c.174-.649.625-1.992.851-2.627h5.139c.227.635.677,1.978.85,2.627h1.9A36.3,36.3,0,0,0,107.92,42.9Zm-1.848,6.742a18.945,18.945,0,0,1,1.784-3.758,19.165,19.165,0,0,1,1.793,3.758Z" transform="translate(-102.52 -42.855)" fill="#818386"/>
      </g>
      <g id="Group_1023" data-name="Group 1023" transform="translate(59.165 0.008)">
        <path id="Path_2995" data-name="Path 2995" d="M227.215,42.9a.1.1,0,0,0-.16,0,36.077,36.077,0,0,0-5.24,10.985h1.9c.174-.649.625-1.992.852-2.627H229.7c.226.635.678,1.978.851,2.627h1.9A36.24,36.24,0,0,0,227.215,42.9Zm-1.847,6.742a19.082,19.082,0,0,1,1.783-3.758,19.113,19.113,0,0,1,1.794,3.758Z" transform="translate(-221.815 -42.855)" fill="#818386"/>
      </g>
      <path id="Path_2996" data-name="Path 2996" d="M252.363,47.26l6.979,6.977a.125.125,0,0,0,.09-.027.138.138,0,0,0,.029-.087V43.236h-1.8v6.581l-6.98-6.979a.135.135,0,0,0-.09.027.14.14,0,0,0-.029.088V53.875h1.8Z" transform="translate(-177.138 -42.839)" fill="#818386"/>
    </g>
    <path id="Path_2997" data-name="Path 2997" d="M27.459,51.4c-.015.274-.022.55-.022.828A14.548,14.548,0,0,0,29.488,59.7a54.585,54.585,0,0,1,3.953-9.568A48.24,48.24,0,0,0,27.459,51.4Z" transform="translate(0 -12.74)" fill="#fc9200"/>
    <path id="Path_2998" data-name="Path 2998" d="M32.613,31.206a55.809,55.809,0,0,1,7.92-1.081,52.227,52.227,0,0,1,4.142-5.072c-.061-.066-.12-.13-.182-.2A14.616,14.616,0,0,0,32.613,31.206Z" transform="translate(-2.609 0)" fill="#fc9200"/>
    <path id="Path_2999" data-name="Path 2999" d="M64.957,29.682a54.567,54.567,0,0,1-5.668,13.6q-1.132,1.958-2.354,3.756,1.216,1.79,2.5,3.4,1.8-.074,3.537-.248,1.132-1.69,2.19-3.52a57.981,57.981,0,0,0,4.977-11.058A14.681,14.681,0,0,0,64.957,29.682Z" transform="translate(-14.868 -2.432)" fill="#fc9200"/>
    <path id="Path_3000" data-name="Path 3000" d="M64.772,27.25a14.562,14.562,0,0,0-8.022-2.392h-.182a54.754,54.754,0,0,1,6.309,8.2A48.783,48.783,0,0,0,64.772,27.25Z" transform="translate(-14.683 0)" fill="#45a735"/>
    <path id="Path_3001" data-name="Path 3001" d="M80.482,41.633a55.459,55.459,0,0,1-3.024,7.4,52.8,52.8,0,0,1,2.323,6.124c.087-.019.174-.041.261-.061a14.661,14.661,0,0,0,.439-13.465Z" transform="translate(-25.213 -8.455)" fill="#45a735"/>
    <path id="Path_3002" data-name="Path 3002" d="M44.237,53.114q-1.131-1.957-2.075-3.916c-1.439.105-2.841.261-4.2.464q-.841,1.6-1.552,3.187c.6,1.215,1.248,2.437,1.953,3.656a58.155,58.155,0,0,0,7.084,9.837c.377.028.758.044,1.141.044a14.55,14.55,0,0,0,6.588-1.564A54.51,54.51,0,0,1,44.237,53.114Z" transform="translate(-4.524 -12.268)" fill="#45a735"/>
    <path id="Path_3003" data-name="Path 3003" d="M72.238,68.783a54.619,54.619,0,0,1-10.264,1.362,48.4,48.4,0,0,0,4.089,4.547A14.7,14.7,0,0,0,72.238,68.783Z" transform="translate(-17.408 -22.14)" fill="#0066b5"/>
    <path id="Path_3004" data-name="Path 3004" d="M38.116,69.958a52.738,52.738,0,0,1-6.465-1.052c-.026.086-.053.172-.077.257A14.626,14.626,0,0,0,43.01,76.275,55.789,55.789,0,0,1,38.116,69.958Z" transform="translate(-2.085 -22.202)" fill="#0066b5"/>
    <path id="Path_3005" data-name="Path 3005" d="M42.089,35.205a58.179,58.179,0,0,0-12.063,1.217,14.57,14.57,0,0,0-2.545,7.453,54.5,54.5,0,0,1,14.607-1.89q2.261,0,4.429.161.941-1.948,1.7-3.867-.966-1.524-1.984-2.938C44.881,35.25,43.5,35.205,42.089,35.205Z" transform="translate(-0.023 -5.215)" fill="#0066b5"/>
    <g id="Group_1025" data-name="Group 1025" transform="translate(163.194 34.196)">
      <path id="Path_3006" data-name="Path 3006" d="M301.165,45.808a2.127,2.127,0,1,1,.623,1.5A2.042,2.042,0,0,1,301.165,45.808Zm3.9,0a1.775,1.775,0,1,0-.519,1.257A1.712,1.712,0,0,0,305.064,45.808Zm-1.115,1.283-.664-1.123h-.377V47.09h-.376V44.473h.671c.63,0,.944.241.944.725a.726.726,0,0,1-.505.711l.714,1.181Zm-1.041-2.3v.873a2.338,2.338,0,0,0,.246.007.877.877,0,0,0,.489-.094.422.422,0,0,0,.125-.355q0-.434-.564-.434h-.147Z" transform="translate(-301.165 -43.687)" fill="#818386"/>
    </g>
  </g>
</svg>
