<?xml version="1.0" encoding="utf-8"?>
<!-- Generator: Adobe Illustrator 21.0.2, SVG Export Plug-In . SVG Version: 6.00 Build 0)  -->
<svg version="1.1" id="Layer_1" xmlns="http://www.w3.org/2000/svg" xmlns:xlink="http://www.w3.org/1999/xlink" x="0px" y="0px"
	 viewBox="0 0 134.1 41.2" style="enable-background:new 0 0 134.1 41.2;" xml:space="preserve">
<style type="text/css">
	.st0{fill:#FFFFFF;}
</style>
<g id="btis_logo_2019" transform="translate(0 0.227)">
	<path id="Path_1" class="st0" d="M77.9,27c0,8.4-5.9,14-13,14c-2.9,0.1-5.7-1.1-7.5-3.3l0,2.7h-9.6V1.9h9.9v13.9
		c1.9-2,4.5-3.1,7.3-3C72,12.8,77.9,18.5,77.9,27z M67.7,26.9c0-3.4-2-5.7-5-5.7c-3,0-5,2.3-5,5.6s2,5.6,5,5.6
		C65.7,32.5,67.7,30.2,67.7,26.9z"/>
	<path id="Path_2" class="st0" d="M97.1,21.3h-4.8v19.1h-9.8V21.3h-4.8v-8.1h4.8v-8h9.8v8h4.8L97.1,21.3z"/>
	<path id="Path_3" class="st0" d="M98,5.6c-0.1-3.1,2.3-5.7,5.4-5.9c3.1-0.1,5.7,2.3,5.9,5.4c0.1,3.1-2.3,5.7-5.4,5.9
		c-0.1,0-0.2,0-0.2,0C100.6,11,98.1,8.6,98,5.6z M98.6,13.2h9.9v27.2h-9.9V13.2z"/>
	<path id="Path_4" class="st0" d="M110.5,37.4l3.7-6c2.4,1.2,5.1,1.9,7.8,1.8c1.2,0,2.1-0.2,2.1-0.9c0-0.6-1.4-1.1-3.6-1.7l-1.6-0.4
		c-4.9-1.2-8.2-3-8.2-7.5c0-6,4.7-10,11.8-10c4.6,0,8.5,1,11.2,3l-4.1,6.4c-2-1.1-4.2-1.6-6.5-1.6c-1.4,0-2.4,0.2-2.4,0.7
		s1.3,1,3.1,1.5l1.6,0.4c5.2,1.3,8.8,3.5,8.8,8.6c0,5.6-5,9.3-12.3,9.3C117.4,40.9,113.5,39.8,110.5,37.4z"/>
	<path id="Path_5" class="st0" d="M19.9,1.2C8.9,1.2,0,10.1,0,21.1s8.9,19.9,19.9,19.9S39.7,32,39.7,21.1l0,0
		C39.7,10.1,30.8,1.2,19.9,1.2z M19.9,6.4c3.6,0,7.2,1.4,9.8,3.8c-0.7,9.5-8.9,16.7-18.4,16c-1.9-0.1-3.8-0.6-5.6-1.3
		c-2.1-7.8,2.4-15.8,10.2-18C17.2,6.6,18.5,6.4,19.9,6.4L19.9,6.4z M19.9,35.7c-4,0-7.7-1.6-10.5-4.4c1,0.1,2.1,0.2,3.1,0.2
		c9.6,0,18.1-6.1,21.2-15.2c0.5,1.5,0.8,3.1,0.8,4.7C34.5,29.2,28,35.7,19.9,35.7z"/>
</g>
</svg>
