<?xml version="1.0" encoding="utf-8"?>
<!-- Generator: Adobe Illustrator 26.0.2, SVG Export Plug-In . SVG Version: 6.00 Build 0)  -->
<svg version="1.1" id="Layer_1" xmlns="http://www.w3.org/2000/svg" xmlns:xlink="http://www.w3.org/1999/xlink" x="0px" y="0px"
	 viewBox="0 0 203.21 59" style="enable-background:new 0 0 203.21 59;" xml:space="preserve">
<style type="text/css">
	.st0{fill:#8D857E;}
	.st1{fill:#00A3CF;}
	.st2{fill:#FFCB37;}
	.st3{opacity:0.9;fill:url(#SVGID_1_);}
	.st4{fill:#8C847E;}
</style>
<g>
	<path class="st0" d="M78.45,35.19c-3.85,0-6.43-1.91-6.43-5.76c0-3.59,2.25-5.74,6.6-5.74c2.93,0,4.62,1.12,4.98,3.01h2.23v-4.91
		h-1.26c-0.17,0.37-0.39,0.51-0.7,0.51c-0.82,0-2.52-0.77-5.52-0.77c-6.31,0-10.09,3.1-10.09,7.92c0,4.88,3.7,8.03,9.97,8.03
		c4.4,0,7.14-1.5,8.01-2.09v-2.2h-2.44C82.8,34.22,81.35,35.19,78.45,35.19z"/>
	<path class="st0" d="M101.36,34.57c-0.1,0.44-0.46,0.66-1.02,0.66h-6.6v-5.02h6.1v-2.02h-6.1v-4.36h6.7c0.48,0,0.77,0.22,0.85,0.66
		l0.24,1.69h2.4v-4.4H87.98v1.76l1.67,0.11c0.53,0.02,0.6,0.2,0.6,0.46v10.74c0,0.26-0.07,0.44-0.6,0.46l-1.67,0.11v1.76h16.11
		v-4.88h-2.37L101.36,34.57z"/>
	<path class="st0" d="M119.16,23.57l2.37,0.09c0.51,0.02,0.6,0.22,0.6,0.48l0.02,8.78h-0.22l-10.62-11.13h-5.66v1.78l1.67,0.11
		c0.53,0.02,0.6,0.22,0.6,0.46v10.69c0,0.24-0.07,0.44-0.6,0.46l-1.67,0.11v1.78h7.93v-1.78l-2.37-0.09
		c-0.51-0.02-0.6-0.22-0.6-0.48l-0.02-8.73h0.24l10.59,11.09h3.36V24.14c0-0.26,0.1-0.44,0.63-0.46l1.67-0.11v-1.78h-7.93V23.57z"/>
	<path class="st0" d="M128.39,26.83h2.13l0.39-2.42c0.05-0.4,0.39-0.62,0.92-0.62h4.16v11.04c0,0.24-0.07,0.44-0.58,0.46l-2.25,0.11
		v1.78h9.24v-1.78l-2.27-0.11c-0.48-0.02-0.6-0.2-0.6-0.46V23.79h4.18c0.56,0,0.87,0.22,0.92,0.62l0.39,2.42h2.13v-5.04h-18.75
		V26.83z"/>
	<path class="st0" d="M200.85,32.31l-0.31,2.27c-0.07,0.44-0.46,0.66-0.99,0.66h-6.63V24.14c0-0.24,0.1-0.44,0.58-0.46l2.47-0.11
		v-1.78h-8.85v1.78l1.69,0.11c0.51,0.02,0.58,0.22,0.58,0.46v10.69c0,0.24-0.07,0.44-0.6,0.46l-1.67,0.11v1.78h16.11v-4.88H200.85z"
		/>
	<path class="st0" d="M185.81,37.19L185.81,37.19l0-1.78l-0.85-0.05l-6.31-13.57h-6.94v1.78l1.14,0.07
		c0.34,0.04,0.46,0.35,0.27,0.79l-4.91,10.24c-0.22,0.24-0.56,0.57-2.83,0.11c-2.27-0.46-4.02-3.96-4.04-3.81
		c-0.04-0.09-0.09-0.18-0.13-0.27c2.49-0.57,4.55-2.09,4.55-4.77s-2.2-4.14-6.6-4.14h-10.72v1.78l1.67,0.11
		c0.53,0.02,0.6,0.22,0.6,0.46v10.69c0,0.24-0.07,0.44-0.6,0.46l-1.67,0.11v1.78h6.78h1.42v-1.72l-1.81-0.09
		c-0.51-0.02-0.6-0.22-0.6-0.48v-3.94h2.08c0.97,0,1.6,0,2.18,1.36c1.04,2.57,2.83,4.86,6.48,4.86l8.52,0V35.5l-2.18-0.11
		c-0.39-0.04-0.6-0.2-0.36-0.77l1.11-2.46h7.74l1.14,2.46c0.27,0.62-0.07,0.73-0.53,0.77l-1.81,0.11v1.69h1.88h2.49l0,0H185.81
		L185.81,37.19L185.81,37.19z M157.95,29.05h-3.77v-5.24h4.16c2.73,0,3.82,0.75,3.82,2.38C162.16,28.52,159.91,29.05,157.95,29.05z
		 M172.93,30.28l2.83-6.2h0.27l2.9,6.2H172.93z"/>
</g>
<g>
	<path class="st1" d="M69.78,44.95h0.65v6.66h-0.65V44.95z"/>
	<path class="st1" d="M77.34,44.95h0.63l3.4,4.8c0.23,0.33,0.55,0.9,0.55,0.9h0.02c0,0-0.06-0.55-0.06-0.9v-4.8h0.65v6.66h-0.63
		l-3.4-4.8c-0.23-0.33-0.55-0.9-0.55-0.9h-0.02c0,0,0.06,0.55,0.06,0.9v4.8h-0.65V44.95z"/>
	<path class="st1" d="M89.11,50.37c0,0,0.69,0.73,1.74,0.73c0.73,0,1.33-0.44,1.33-1.16c0-1.68-3.33-1.25-3.33-3.32
		c0-0.96,0.84-1.79,2.08-1.79c1.16,0,1.78,0.64,1.78,0.64l-0.32,0.55c0,0-0.59-0.57-1.46-0.57c-0.85,0-1.4,0.56-1.4,1.15
		c0,1.58,3.33,1.13,3.33,3.32c0,0.99-0.77,1.8-2.02,1.8c-1.36,0-2.11-0.85-2.11-0.85L89.11,50.37z"/>
	<path class="st1" d="M98.97,44.95h0.66v4.33c0,1.15,0.74,1.84,1.89,1.84c1.15,0,1.9-0.69,1.9-1.86v-4.31h0.65v4.34
		c0,1.48-1.03,2.44-2.54,2.44c-1.52,0-2.56-0.96-2.56-2.44V44.95z"/>
	<path class="st1" d="M110.65,44.95h1.97c0.68,0,0.99,0.07,1.25,0.18c0.63,0.27,1,0.91,1,1.72c0,0.9-0.51,1.59-1.26,1.8v0.02
		c0,0,0.07,0.09,0.17,0.27l1.45,2.68h-0.75l-1.51-2.81h-1.68v2.81h-0.65V44.95z M112.88,48.22c0.81,0,1.32-0.52,1.32-1.36
		c0-0.55-0.22-0.96-0.61-1.17c-0.2-0.1-0.44-0.16-0.95-0.16h-1.35v2.68H112.88z"/>
	<path class="st1" d="M124.62,49.49h-2.68l-0.76,2.12h-0.69l2.45-6.66h0.7l2.45,6.66h-0.69L124.62,49.49z M123.28,45.65
		c0,0-0.14,0.55-0.26,0.86l-0.89,2.42h2.29l-0.87-2.42c-0.11-0.31-0.26-0.86-0.26-0.86H123.28z"/>
	<path class="st1" d="M131.91,44.95h0.63l3.4,4.8c0.23,0.33,0.55,0.9,0.55,0.9h0.02c0,0-0.06-0.55-0.06-0.9v-4.8h0.65v6.66h-0.63
		l-3.4-4.8c-0.23-0.33-0.55-0.9-0.55-0.9h-0.02c0,0,0.06,0.55,0.06,0.9v4.8h-0.65V44.95z"/>
	<path class="st1" d="M146.68,44.84c1.59,0,2.4,0.86,2.4,0.86l-0.35,0.48c0,0-0.78-0.74-2.03-0.74c-1.56,0-2.68,1.21-2.68,2.79
		c0,1.59,1.12,2.89,2.7,2.89c1.35,0,2.16-0.89,2.16-0.89l0.38,0.46c0,0-0.91,1.03-2.55,1.03c-1.97,0-3.37-1.54-3.37-3.49
		C143.34,46.31,144.78,44.84,146.68,44.84z"/>
	<path class="st1" d="M155.42,44.95h3.75v0.59h-3.1v2.43h2.53v0.59h-2.53v2.47h3.27v0.59h-3.92V44.95z"/>
</g>
<path class="st2" d="M0,0v27.1l11.66-11.66v0.01c4.24-4.22,10.99-6.63,19.71-6.63c7.37,0,11.53,1.89,13.56,1.89
	c0.77,0,1.31-0.32,1.72-1.24h3.09v12.06h-5.47c-0.89-4.65-5.05-7.41-12.24-7.41c-10.7,0-16.23,5.3-16.23,14.11
	c0,9.46,6.36,14.17,15.81,14.17c7.13,0,10.7-2.38,13.14-4.92h6v5.41L34.63,59H59V0H0z"/>
<linearGradient id="SVGID_1_" gradientUnits="userSpaceOnUse" x1="17.8767" y1="36.624" x2="41.3558" y2="13.1449">
	<stop  offset="0" style="stop-color:#CC922D"/>
	<stop  offset="0.1444" style="stop-color:#D8A030"/>
	<stop  offset="0.4594" style="stop-color:#EEB733"/>
	<stop  offset="0.7525" style="stop-color:#FBC636"/>
	<stop  offset="1" style="stop-color:#FFCB37"/>
</linearGradient>
<path class="st3" d="M44.27,21.53c-0.89-4.65-5.05-7.41-12.24-7.41c-10.7,0-16.23,5.3-16.23,14.11c0,8.56,5.22,13.21,13.21,14.02
	l20.73-20.73H44.27z"/>
<g>
	<g>
		<path class="st4" d="M64.18,0c1.6,0,2.87,1.29,2.87,2.91c0,1.64-1.28,2.92-2.87,2.92c-1.56,0-2.83-1.28-2.83-2.92
			C61.35,1.29,62.61,0,64.18,0z M64.18,5.4c1.36,0,2.41-1.08,2.41-2.49c0-1.39-1.04-2.48-2.41-2.48c-1.33,0-2.36,1.09-2.36,2.48
			C61.82,4.31,62.85,5.4,64.18,5.4z M63.23,1.35h1.11c0.55,0,0.94,0.37,0.94,0.93c0,0.47-0.3,0.75-0.59,0.83v0.02
			c0,0,0.03,0.04,0.1,0.18l0.6,1.18h-0.5l-0.63-1.27h-0.6v1.27h-0.45V1.35z M64.27,2.86c0.34,0,0.55-0.22,0.55-0.58
			c0-0.35-0.22-0.55-0.55-0.55h-0.59v1.13H64.27z"/>
	</g>
</g>
</svg>
