<?xml version="1.0" encoding="utf-8"?>
<!-- Generator: Adobe Illustrator 25.4.1, SVG Export Plug-In . SVG Version: 6.00 Build 0)  -->
<svg version="1.1" id="CFins_KO_logo_stacked" xmlns="http://www.w3.org/2000/svg" xmlns:xlink="http://www.w3.org/1999/xlink"
	 x="0px" y="0px" viewBox="0 0 251.9 286" style="enable-background:new 0 0 251.9 286;" xml:space="preserve">
<style type="text/css">
	.st0{fill:#FFFFFF;}
	.st1{fill:#FFFFFF;stroke:#003660;stroke-width:0.2354;}
</style>
<g>
	<g>
		<path class="st0" d="M2.2,285.6H0l6.2-14.4h1.8l6.2,14.4H12l-1.5-3.5H3.7L2.2,285.6z M4.4,280.3h5.4l-2.7-6.8L4.4,280.3z"/>
		<path class="st0" d="M27.2,285.6h-2v-14.4h9v1.8h-7v4.5h6.5v1.7h-6.5V285.6z"/>
		<path class="st0" d="M39.1,285.6h-2.2l6.2-14.4h1.8l6.2,14.4h-2.3l-1.5-3.5h-6.8L39.1,285.6z M41.2,280.3h5.4l-2.7-6.8L41.2,280.3
			z"/>
		<path class="st0" d="M57.6,285.6h-2v-14.4h2V285.6z"/>
		<path class="st0" d="M65.8,285.6h-2v-14.4h4.6c0.7,0,1.3,0.1,2,0.2c0.6,0.1,1.2,0.4,1.6,0.7c0.5,0.3,0.8,0.7,1.1,1.2
			c0.3,0.5,0.4,1.1,0.4,1.9c0,1-0.3,1.9-1,2.6c-0.7,0.7-1.5,1.1-2.5,1.2l4,6.6h-2.4l-3.7-6.4h-2.2V285.6z M65.8,277.5h2.3
			c0.5,0,0.9,0,1.3-0.1c0.4-0.1,0.8-0.2,1.1-0.4c0.3-0.2,0.6-0.4,0.7-0.7c0.2-0.3,0.3-0.7,0.3-1.1c0-0.4-0.1-0.8-0.3-1.1
			c-0.2-0.3-0.4-0.5-0.7-0.7c-0.3-0.2-0.6-0.3-1-0.4c-0.4-0.1-0.8-0.1-1.2-0.1h-2.5V277.5z"/>
		<path class="st0" d="M80.9,285.6h-2v-14.4h9v1.8h-7v4.5h6.5v1.7h-6.5V285.6z"/>
		<path class="st0" d="M92.8,285.6h-2.2l6.2-14.4h1.8l6.2,14.4h-2.3l-1.5-3.5h-6.8L92.8,285.6z M94.9,280.3h5.4l-2.7-6.8L94.9,280.3
			z"/>
		<path class="st0" d="M115,276.6l3.4-5.4h2.4l-4.6,6.8l5.2,7.6h-2.5l-3.9-6.1l-3.9,6.1h-2.5l5.1-7.6l-4.6-6.8h2.5L115,276.6z"/>
		<path class="st0" d="M145,283.4c-0.6,0.8-1.3,1.4-2.2,1.9c-0.9,0.5-2,0.7-3.3,0.7c-1.1,0-2.1-0.2-3-0.6c-0.9-0.4-1.7-0.9-2.4-1.6
			c-0.7-0.7-1.2-1.5-1.6-2.4c-0.4-0.9-0.6-1.9-0.6-3.1c0-1.1,0.2-2.1,0.6-3.1c0.4-0.9,0.9-1.7,1.6-2.4c0.7-0.7,1.5-1.2,2.4-1.5
			c0.9-0.4,1.9-0.5,3.1-0.5c0.5,0,1,0,1.5,0.1c0.5,0.1,1,0.2,1.4,0.4c0.5,0.2,0.9,0.4,1.3,0.7c0.4,0.3,0.7,0.6,1,1l-1.6,1.2
			c-0.4-0.5-0.8-0.9-1.5-1.2c-0.6-0.3-1.3-0.5-2.1-0.5c-0.8,0-1.6,0.1-2.3,0.4c-0.7,0.3-1.2,0.7-1.7,1.3c-0.5,0.5-0.8,1.1-1.1,1.8
			c-0.3,0.7-0.4,1.4-0.4,2.2c0,0.8,0.1,1.6,0.4,2.3c0.3,0.7,0.6,1.3,1.1,1.8c0.5,0.5,1,0.9,1.7,1.2c0.7,0.3,1.4,0.4,2.2,0.4
			c0.8,0,1.5-0.2,2.2-0.5c0.7-0.3,1.2-0.8,1.6-1.4L145,283.4z"/>
		<path class="st0" d="M163.8,278.4c0,1.1-0.2,2.1-0.6,3.1c-0.4,0.9-0.9,1.7-1.6,2.4c-0.7,0.7-1.5,1.2-2.4,1.6c-0.9,0.4-2,0.6-3,0.6
			c-1.1,0-2.1-0.2-3-0.6c-0.9-0.4-1.7-0.9-2.4-1.6c-0.7-0.7-1.2-1.5-1.6-2.4c-0.4-0.9-0.6-1.9-0.6-3.1c0-1.1,0.2-2.1,0.6-3.1
			c0.4-0.9,0.9-1.7,1.6-2.4c0.7-0.7,1.5-1.2,2.4-1.5c0.9-0.4,1.9-0.5,3-0.5c1.1,0,2.1,0.2,3,0.5c0.9,0.4,1.7,0.9,2.4,1.5
			c0.7,0.7,1.2,1.5,1.6,2.4C163.6,276.3,163.8,277.3,163.8,278.4z M161.7,278.4c0-0.8-0.1-1.5-0.4-2.2c-0.3-0.7-0.6-1.3-1.1-1.8
			c-0.5-0.5-1-0.9-1.7-1.3c-0.7-0.3-1.4-0.4-2.3-0.4c-0.8,0-1.6,0.1-2.2,0.4c-0.7,0.3-1.2,0.7-1.7,1.3c-0.5,0.5-0.8,1.1-1.1,1.8
			c-0.3,0.7-0.4,1.4-0.4,2.2c0,0.8,0.1,1.5,0.4,2.3c0.3,0.7,0.6,1.3,1.1,1.8c0.5,0.5,1,0.9,1.7,1.2c0.7,0.3,1.4,0.4,2.2,0.4
			c0.8,0,1.6-0.1,2.3-0.4c0.7-0.3,1.3-0.7,1.7-1.2c0.5-0.5,0.8-1.1,1.1-1.8S161.7,279.2,161.7,278.4z"/>
		<path class="st0" d="M176.7,282.3L176.7,282.3l4.3-11h3.1v14.4h-2v-12h0l-4.8,12H176l-4.8-12h0v12h-1.9v-14.4h3.1L176.7,282.3z"/>
		<path class="st0" d="M190.2,271.2h4.4c0.8,0,1.5,0.1,2.1,0.2c0.6,0.1,1.2,0.4,1.6,0.7c0.4,0.3,0.8,0.7,1,1.2
			c0.2,0.5,0.4,1.1,0.4,1.8c0,0.7-0.1,1.3-0.4,1.8c-0.3,0.5-0.6,0.9-1.1,1.3c-0.5,0.3-1,0.6-1.7,0.7c-0.6,0.1-1.3,0.2-2.1,0.2h-2.3
			v6.3h-2V271.2z M192.3,277.6h2.1c0.5,0,0.9,0,1.4-0.1c0.4-0.1,0.8-0.2,1.1-0.4c0.3-0.2,0.5-0.4,0.7-0.7c0.2-0.3,0.2-0.7,0.2-1.1
			c0-0.4-0.1-0.8-0.3-1.1c-0.2-0.3-0.4-0.5-0.7-0.7c-0.3-0.2-0.6-0.3-1-0.4c-0.4-0.1-0.8-0.1-1.3-0.1h-2.2V277.6z"/>
		<path class="st0" d="M204.3,285.6H202l6.2-14.4h1.8l6.2,14.4H214l-1.5-3.5h-6.8L204.3,285.6z M206.4,280.3h5.4l-2.7-6.8
			L206.4,280.3z"/>
		<path class="st0" d="M230.9,282.7L230.9,282.7l0-11.5h2v14.4h-2.5l-7.6-11.7h0v11.7h-2v-14.4h2.6L230.9,282.7z"/>
		<path class="st0" d="M244.8,285.6h-2v-6.2l-5.4-8.2h2.5l4,6.5l4-6.5h2.3l-5.4,8.2V285.6z"/>
	</g>
	<g>
		<path class="st1" d="M0.8,0.1v92.6c3.6-7.4,8.2-13.9,14-19.3c6.7-6.1,14.4-10.9,23.3-14.2c8.9-3.3,18.5-5,28.9-5
			c9.6,0,19,1.7,28.2,5.1c7,2.6,13,6.1,18,10.4v-13h90.3v28.3H146v28.3h53.1v27.3H146V194h-32.7v-5.2c1.5,0.3,3,0.5,4.5,0.5
			c2.6,0,4.7-0.4,6.5-1.2c1.7-0.8,3.2-1.8,4.3-3.1l3.5,3.6h10.8l-9.2-9.1l8-10.7h-9.5l-3.7,5.7l-4.7-4.7c1-0.5,2-1.1,2.9-1.7
			c0.9-0.6,1.7-1.3,2.4-2.1c0.7-0.8,1.2-1.7,1.6-2.6c0.4-1,0.6-2,0.6-3.2c0-1.6-0.3-3-1-4.2c-0.6-1.2-1.5-2.1-2.6-2.9
			c-1-0.8-2.3-1.3-3.6-1.7c-1.4-0.3-2.7-0.5-4.1-0.5c-1.4,0-2.7,0.2-4.1,0.5c-0.9,0.2-1.8,0.6-2.6,1V78.6L95.5,96.3
			c-3.1-4.2-7.1-7.3-12-9.4c-5-2-10.1-3-15.3-3c-5.7,0-11,1.1-15.8,3.1c-4.8,2.1-8.9,5-12.4,8.7c-3.4,3.7-6.1,8.1-8,13.1
			c-1.9,5.1-2.9,10.6-2.9,16.6c0,6.1,1,11.7,2.9,16.8c1.9,5.1,4.5,9.4,7.9,13.1c3.4,3.6,7.4,6.5,12.1,8.5c4.7,2.1,9.9,3.1,15.5,3.1
			c6.5,0,12.2-1.3,17-3.8c4.8-2.6,8.7-5.9,11.7-9.9l16,15h0c-1,0.5-2,1-2.9,1.6c-0.9,0.6-1.8,1.3-2.5,2.2c-0.7,0.8-1.3,1.8-1.7,2.9
			c-0.4,1.1-0.6,2.3-0.6,3.6c0,1.9,0.4,3.5,1.1,4.9c0.4,0.7,0.8,1.3,1.3,1.9c-3.1,2.1-6.5,4.1-10.1,5.7c-8.8,4-18.9,6-30.4,6
			c-10.4,0-20.1-1.7-29-5.1c-8.8-3.4-16.5-8.3-23-14.6c-5.6-5.4-10.1-11.9-13.6-19.2v93.2h250.9V0.1H0.8z M117.6,157.9
			c0.7-0.6,1.5-1,2.5-1c1.1,0,1.9,0.3,2.6,1c0.6,0.7,0.9,1.5,0.9,2.4c0,1.1-0.4,2.1-1.3,2.9c-0.9,0.8-1.9,1.4-3,1.9
			c-0.9-0.7-1.6-1.5-2.1-2.3c-0.5-0.8-0.7-1.6-0.7-2.5C116.5,159.4,116.9,158.6,117.6,157.9z M114.3,174.8c0.8-0.7,1.7-1.3,2.7-1.8
			l6.5,6.8c-0.7,0.9-1.5,1.6-2.4,2.1c-0.9,0.5-1.9,0.7-3.1,0.7c-0.6,0-1.2-0.1-1.8-0.3c-0.6-0.2-1.1-0.5-1.6-0.9
			c-0.5-0.4-0.8-0.9-1.1-1.5c-0.3-0.6-0.5-1.2-0.5-2C113.1,176.6,113.5,175.5,114.3,174.8z M124,240h-10.7v-15.9h10.3v2h-8.1v4.7
			h7.6v2h-7.6v5.1h8.5V240z M138.1,237.6c-0.3,0.6-0.7,1.1-1.2,1.6c-0.5,0.4-1.1,0.7-1.8,1c-0.7,0.2-1.4,0.3-2.2,0.3
			c-1,0-2-0.2-2.9-0.5c-0.9-0.4-1.6-0.9-2.2-1.7l1.8-1.5c0.4,0.6,0.9,1,1.5,1.3c0.6,0.3,1.2,0.4,1.9,0.4c0.4,0,0.7-0.1,1.1-0.2
			c0.4-0.1,0.7-0.3,1-0.5c0.3-0.2,0.6-0.5,0.8-0.8c0.2-0.3,0.3-0.7,0.3-1.1c0-0.6-0.2-1.1-0.6-1.4c-0.4-0.3-0.9-0.6-1.5-0.8
			c-0.6-0.2-1.2-0.4-1.9-0.6c-0.7-0.2-1.3-0.5-1.9-0.8c-0.6-0.4-1.1-0.8-1.5-1.5c-0.4-0.6-0.6-1.4-0.6-2.5c0-0.5,0.1-1,0.3-1.5
			c0.2-0.5,0.5-1,1-1.4c0.4-0.4,1-0.8,1.7-1.1c0.7-0.3,1.5-0.4,2.5-0.4c0.9,0,1.7,0.1,2.5,0.4c0.8,0.2,1.5,0.7,2.1,1.5l-1.8,1.6
			c-0.3-0.4-0.7-0.8-1.1-1c-0.5-0.3-1.1-0.4-1.7-0.4c-0.6,0-1.1,0.1-1.5,0.2c-0.4,0.2-0.7,0.4-1,0.6c-0.2,0.2-0.4,0.5-0.5,0.8
			c-0.1,0.3-0.2,0.5-0.2,0.8c0,0.7,0.2,1.2,0.6,1.6c0.4,0.4,0.9,0.7,1.5,0.9c0.6,0.2,1.2,0.4,1.9,0.6c0.7,0.2,1.3,0.4,1.9,0.8
			c0.6,0.3,1.1,0.8,1.5,1.3c0.4,0.5,0.6,1.3,0.6,2.3C138.5,236.3,138.3,237,138.1,237.6z M154.4,226.1h-5.1V240h-2.2v-13.9H142v-2
			h12.4V226.1z M159.6,239.7c-0.3,0.3-0.6,0.4-1,0.4c-0.4,0-0.8-0.1-1-0.4c-0.3-0.3-0.4-0.6-0.4-1c0-0.4,0.1-0.8,0.4-1.1
			c0.3-0.3,0.6-0.4,1-0.4c0.4,0,0.8,0.1,1,0.4c0.3,0.3,0.4,0.6,0.4,1.1C160.1,239.1,159.9,239.5,159.6,239.7z M175.6,240h-2.2v-13.5
			l-2.9,2.7l-1.3-1.5l4.4-3.7h1.9V240z M191.6,237.5c-0.3,0.6-0.6,1.1-1.1,1.5c-0.5,0.4-1,0.7-1.7,1c-0.6,0.2-1.3,0.3-2,0.3
			c-0.7,0-1.4-0.1-2-0.3c-0.6-0.2-1.2-0.5-1.7-1c-0.5-0.4-0.8-0.9-1.1-1.5c-0.3-0.6-0.4-1.3-0.4-2c0-0.5,0.1-0.9,0.2-1.4
			c0.2-0.4,0.4-0.8,0.6-1.1c0.3-0.3,0.6-0.6,1-0.9c0.4-0.2,0.8-0.4,1.2-0.5v-0.1c-0.3-0.1-0.6-0.2-0.9-0.4c-0.3-0.2-0.6-0.4-0.8-0.7
			c-0.2-0.3-0.4-0.7-0.6-1.1c-0.1-0.4-0.2-0.9-0.2-1.5c0-0.6,0.1-1.1,0.4-1.6c0.3-0.5,0.6-0.9,1-1.2c0.4-0.3,0.9-0.6,1.5-0.8
			c0.6-0.2,1.2-0.3,1.8-0.3c0.6,0,1.2,0.1,1.8,0.3c0.6,0.2,1.1,0.5,1.5,0.8c0.4,0.3,0.8,0.8,1,1.2c0.3,0.5,0.4,1,0.4,1.6
			c0,0.6-0.1,1.1-0.2,1.5c-0.2,0.4-0.3,0.8-0.6,1.1c-0.2,0.3-0.5,0.5-0.8,0.7c-0.3,0.2-0.6,0.3-0.9,0.4v0.1c0.4,0.1,0.8,0.3,1.2,0.5
			c0.4,0.2,0.7,0.5,1,0.9c0.3,0.3,0.5,0.7,0.6,1.1c0.2,0.4,0.2,0.9,0.2,1.4C192,236.2,191.9,236.9,191.6,237.5z M207,238.2v1.9
			h-10.4v-2.3l6.4-6.4c0.2-0.2,0.4-0.4,0.7-0.7c0.2-0.2,0.4-0.5,0.6-0.8c0.2-0.3,0.3-0.6,0.4-0.9c0.1-0.3,0.1-0.6,0.1-0.9
			c0-0.4-0.1-0.7-0.2-1.1c-0.1-0.3-0.3-0.6-0.6-0.8c-0.2-0.2-0.5-0.4-0.9-0.5c-0.3-0.1-0.7-0.2-1.1-0.2c-0.8,0-1.4,0.2-1.9,0.7
			c-0.5,0.4-0.8,1-1,1.8l-2.3-0.2c0.1-0.7,0.3-1.3,0.6-1.8c0.3-0.5,0.7-0.9,1.1-1.3c0.5-0.3,1-0.6,1.6-0.8c0.6-0.2,1.2-0.2,1.9-0.2
			c0.7,0,1.3,0.1,1.9,0.3c0.6,0.2,1.1,0.5,1.6,0.8c0.5,0.4,0.8,0.8,1.1,1.4c0.3,0.6,0.4,1.2,0.4,1.9c0,0.5-0.1,1-0.2,1.5
			c-0.2,0.5-0.4,0.9-0.6,1.3c-0.3,0.4-0.5,0.8-0.9,1.2c-0.3,0.4-0.7,0.7-1,1.1l-5.2,5.1H207z M222.2,238.2v1.9h-10.4v-2.3l6.4-6.4
			c0.2-0.2,0.4-0.4,0.7-0.7c0.2-0.2,0.4-0.5,0.6-0.8c0.2-0.3,0.3-0.6,0.4-0.9c0.1-0.3,0.1-0.6,0.1-0.9c0-0.4-0.1-0.7-0.2-1.1
			c-0.1-0.3-0.3-0.6-0.6-0.8c-0.2-0.2-0.5-0.4-0.9-0.5c-0.3-0.1-0.7-0.2-1.1-0.2c-0.8,0-1.4,0.2-1.9,0.7c-0.5,0.4-0.8,1-1,1.8
			l-2.3-0.2c0.1-0.7,0.3-1.3,0.6-1.8c0.3-0.5,0.7-0.9,1.2-1.3c0.5-0.3,1-0.6,1.6-0.8c0.6-0.2,1.2-0.2,1.9-0.2c0.7,0,1.3,0.1,1.9,0.3
			c0.6,0.2,1.1,0.5,1.6,0.8c0.5,0.4,0.8,0.8,1.1,1.4c0.3,0.6,0.4,1.2,0.4,1.9c0,0.5-0.1,1-0.2,1.5c-0.2,0.5-0.4,0.9-0.6,1.3
			c-0.3,0.4-0.5,0.8-0.9,1.2c-0.3,0.4-0.7,0.7-1,1.1l-5.2,5.1H222.2z"/>
		<path class="st0" d="M0.8,0.1v92.6c3.6-7.4,8.2-13.9,14-19.3c6.7-6.1,14.4-10.9,23.3-14.2c8.9-3.3,18.5-5,28.9-5
			c9.6,0,19,1.7,28.2,5.1c7,2.6,13,6.1,18,10.4v-13h90.3v28.3H146v28.3h53.1v27.3H146V194h-32.7v-5.2c1.5,0.3,3,0.5,4.5,0.5
			c2.6,0,4.7-0.4,6.5-1.2c1.7-0.8,3.2-1.8,4.3-3.1l3.5,3.6h10.8l-9.2-9.1l8-10.7h-9.5l-3.7,5.7l-4.7-4.7c1-0.5,2-1.1,2.9-1.7
			c0.9-0.6,1.7-1.3,2.4-2.1c0.7-0.8,1.2-1.7,1.6-2.6c0.4-1,0.6-2,0.6-3.2c0-1.6-0.3-3-1-4.2c-0.6-1.2-1.5-2.1-2.6-2.9
			c-1-0.8-2.3-1.3-3.6-1.7c-1.4-0.3-2.7-0.5-4.1-0.5c-1.4,0-2.7,0.2-4.1,0.5c-0.9,0.2-1.8,0.6-2.6,1V78.6L95.5,96.3
			c-3.1-4.2-7.1-7.3-12-9.4c-5-2-10.1-3-15.3-3c-5.7,0-11,1.1-15.8,3.1c-4.8,2.1-8.9,5-12.4,8.7c-3.4,3.7-6.1,8.1-8,13.1
			c-1.9,5.1-2.9,10.6-2.9,16.6c0,6.1,1,11.7,2.9,16.8c1.9,5.1,4.5,9.4,7.9,13.1c3.4,3.6,7.4,6.5,12.1,8.5c4.7,2.1,9.9,3.1,15.5,3.1
			c6.5,0,12.2-1.3,17-3.8c4.8-2.6,8.7-5.9,11.7-9.9l16,15h0c-1,0.5-2,1-2.9,1.6c-0.9,0.6-1.8,1.3-2.5,2.2c-0.7,0.8-1.3,1.8-1.7,2.9
			c-0.4,1.1-0.6,2.3-0.6,3.6c0,1.9,0.4,3.5,1.1,4.9c0.4,0.7,0.8,1.3,1.3,1.9c-3.1,2.1-6.5,4.1-10.1,5.7c-8.8,4-18.9,6-30.4,6
			c-10.4,0-20.1-1.7-29-5.1c-8.8-3.4-16.5-8.3-23-14.6c-5.6-5.4-10.1-11.9-13.6-19.2v93.2h250.9V0.1H0.8z M117.6,157.9
			c0.7-0.6,1.5-1,2.5-1c1.1,0,1.9,0.3,2.6,1c0.6,0.7,0.9,1.5,0.9,2.4c0,1.1-0.4,2.1-1.3,2.9c-0.9,0.8-1.9,1.4-3,1.9
			c-0.9-0.7-1.6-1.5-2.1-2.3c-0.5-0.8-0.7-1.6-0.7-2.5C116.5,159.4,116.9,158.6,117.6,157.9z M114.3,174.8c0.8-0.7,1.7-1.3,2.7-1.8
			l6.5,6.8c-0.7,0.9-1.5,1.6-2.4,2.1c-0.9,0.5-1.9,0.7-3.1,0.7c-0.6,0-1.2-0.1-1.8-0.3c-0.6-0.2-1.1-0.5-1.6-0.9
			c-0.5-0.4-0.8-0.9-1.1-1.5c-0.3-0.6-0.5-1.2-0.5-2C113.1,176.6,113.5,175.5,114.3,174.8z M124,240h-10.7v-15.9h10.3v2h-8.1v4.7
			h7.6v2h-7.6v5.1h8.5V240z M138.1,237.6c-0.3,0.6-0.7,1.1-1.2,1.6c-0.5,0.4-1.1,0.7-1.8,1c-0.7,0.2-1.4,0.3-2.2,0.3
			c-1,0-2-0.2-2.9-0.5c-0.9-0.4-1.6-0.9-2.2-1.7l1.8-1.5c0.4,0.6,0.9,1,1.5,1.3c0.6,0.3,1.2,0.4,1.9,0.4c0.4,0,0.7-0.1,1.1-0.2
			c0.4-0.1,0.7-0.3,1-0.5c0.3-0.2,0.6-0.5,0.8-0.8c0.2-0.3,0.3-0.7,0.3-1.1c0-0.6-0.2-1.1-0.6-1.4c-0.4-0.3-0.9-0.6-1.5-0.8
			c-0.6-0.2-1.2-0.4-1.9-0.6c-0.7-0.2-1.3-0.5-1.9-0.8c-0.6-0.4-1.1-0.8-1.5-1.5c-0.4-0.6-0.6-1.4-0.6-2.5c0-0.5,0.1-1,0.3-1.5
			c0.2-0.5,0.5-1,1-1.4c0.4-0.4,1-0.8,1.7-1.1c0.7-0.3,1.5-0.4,2.5-0.4c0.9,0,1.7,0.1,2.5,0.4c0.8,0.2,1.5,0.7,2.1,1.5l-1.8,1.6
			c-0.3-0.4-0.7-0.8-1.1-1c-0.5-0.3-1.1-0.4-1.7-0.4c-0.6,0-1.1,0.1-1.5,0.2c-0.4,0.2-0.7,0.4-1,0.6c-0.2,0.2-0.4,0.5-0.5,0.8
			c-0.1,0.3-0.2,0.5-0.2,0.8c0,0.7,0.2,1.2,0.6,1.6c0.4,0.4,0.9,0.7,1.5,0.9c0.6,0.2,1.2,0.4,1.9,0.6c0.7,0.2,1.3,0.4,1.9,0.8
			c0.6,0.3,1.1,0.8,1.5,1.3c0.4,0.5,0.6,1.3,0.6,2.3C138.5,236.3,138.3,237,138.1,237.6z M154.4,226.1h-5.1V240h-2.2v-13.9H142v-2
			h12.4V226.1z M159.6,239.7c-0.3,0.3-0.6,0.4-1,0.4c-0.4,0-0.8-0.1-1-0.4c-0.3-0.3-0.4-0.6-0.4-1c0-0.4,0.1-0.8,0.4-1.1
			c0.3-0.3,0.6-0.4,1-0.4c0.4,0,0.8,0.1,1,0.4c0.3,0.3,0.4,0.6,0.4,1.1C160.1,239.1,159.9,239.5,159.6,239.7z M175.6,240h-2.2v-13.5
			l-2.9,2.7l-1.3-1.5l4.4-3.7h1.9V240z M191.6,237.5c-0.3,0.6-0.6,1.1-1.1,1.5c-0.5,0.4-1,0.7-1.7,1c-0.6,0.2-1.3,0.3-2,0.3
			c-0.7,0-1.4-0.1-2-0.3c-0.6-0.2-1.2-0.5-1.7-1c-0.5-0.4-0.8-0.9-1.1-1.5c-0.3-0.6-0.4-1.3-0.4-2c0-0.5,0.1-0.9,0.2-1.4
			c0.2-0.4,0.4-0.8,0.6-1.1c0.3-0.3,0.6-0.6,1-0.9c0.4-0.2,0.8-0.4,1.2-0.5v-0.1c-0.3-0.1-0.6-0.2-0.9-0.4c-0.3-0.2-0.6-0.4-0.8-0.7
			c-0.2-0.3-0.4-0.7-0.6-1.1c-0.1-0.4-0.2-0.9-0.2-1.5c0-0.6,0.1-1.1,0.4-1.6c0.3-0.5,0.6-0.9,1-1.2c0.4-0.3,0.9-0.6,1.5-0.8
			c0.6-0.2,1.2-0.3,1.8-0.3c0.6,0,1.2,0.1,1.8,0.3c0.6,0.2,1.1,0.5,1.5,0.8c0.4,0.3,0.8,0.8,1,1.2c0.3,0.5,0.4,1,0.4,1.6
			c0,0.6-0.1,1.1-0.2,1.5c-0.2,0.4-0.3,0.8-0.6,1.1c-0.2,0.3-0.5,0.5-0.8,0.7c-0.3,0.2-0.6,0.3-0.9,0.4v0.1c0.4,0.1,0.8,0.3,1.2,0.5
			c0.4,0.2,0.7,0.5,1,0.9c0.3,0.3,0.5,0.7,0.6,1.1c0.2,0.4,0.2,0.9,0.2,1.4C192,236.2,191.9,236.9,191.6,237.5z M207,238.2v1.9
			h-10.4v-2.3l6.4-6.4c0.2-0.2,0.4-0.4,0.7-0.7c0.2-0.2,0.4-0.5,0.6-0.8c0.2-0.3,0.3-0.6,0.4-0.9c0.1-0.3,0.1-0.6,0.1-0.9
			c0-0.4-0.1-0.7-0.2-1.1c-0.1-0.3-0.3-0.6-0.6-0.8c-0.2-0.2-0.5-0.4-0.9-0.5c-0.3-0.1-0.7-0.2-1.1-0.2c-0.8,0-1.4,0.2-1.9,0.7
			c-0.5,0.4-0.8,1-1,1.8l-2.3-0.2c0.1-0.7,0.3-1.3,0.6-1.8c0.3-0.5,0.7-0.9,1.1-1.3c0.5-0.3,1-0.6,1.6-0.8c0.6-0.2,1.2-0.2,1.9-0.2
			c0.7,0,1.3,0.1,1.9,0.3c0.6,0.2,1.1,0.5,1.6,0.8c0.5,0.4,0.8,0.8,1.1,1.4c0.3,0.6,0.4,1.2,0.4,1.9c0,0.5-0.1,1-0.2,1.5
			c-0.2,0.5-0.4,0.9-0.6,1.3c-0.3,0.4-0.5,0.8-0.9,1.2c-0.3,0.4-0.7,0.7-1,1.1l-5.2,5.1H207z M222.2,238.2v1.9h-10.4v-2.3l6.4-6.4
			c0.2-0.2,0.4-0.4,0.7-0.7c0.2-0.2,0.4-0.5,0.6-0.8c0.2-0.3,0.3-0.6,0.4-0.9c0.1-0.3,0.1-0.6,0.1-0.9c0-0.4-0.1-0.7-0.2-1.1
			c-0.1-0.3-0.3-0.6-0.6-0.8c-0.2-0.2-0.5-0.4-0.9-0.5c-0.3-0.1-0.7-0.2-1.1-0.2c-0.8,0-1.4,0.2-1.9,0.7c-0.5,0.4-0.8,1-1,1.8
			l-2.3-0.2c0.1-0.7,0.3-1.3,0.6-1.8c0.3-0.5,0.7-0.9,1.2-1.3c0.5-0.3,1-0.6,1.6-0.8c0.6-0.2,1.2-0.2,1.9-0.2c0.7,0,1.3,0.1,1.9,0.3
			c0.6,0.2,1.1,0.5,1.6,0.8c0.5,0.4,0.8,0.8,1.1,1.4c0.3,0.6,0.4,1.2,0.4,1.9c0,0.5-0.1,1-0.2,1.5c-0.2,0.5-0.4,0.9-0.6,1.3
			c-0.3,0.4-0.5,0.8-0.9,1.2c-0.3,0.4-0.7,0.7-1,1.1l-5.2,5.1H222.2z"/>
		<path class="st1" d="M185.7,230.4c0.3,0.2,0.7,0.2,1.1,0.2c0.4,0,0.8-0.1,1.1-0.2c0.3-0.1,0.6-0.3,0.8-0.6
			c0.2-0.2,0.4-0.5,0.5-0.8c0.1-0.3,0.2-0.6,0.2-0.9c0-0.7-0.2-1.3-0.7-1.8c-0.5-0.5-1.1-0.7-1.8-0.7c-0.7,0-1.3,0.2-1.8,0.7
			c-0.5,0.5-0.7,1.1-0.7,1.8c0,0.3,0.1,0.6,0.2,0.9c0.1,0.3,0.3,0.6,0.5,0.8C185.2,230.1,185.4,230.3,185.7,230.4z"/>
		<path class="st1" d="M189,233.3c-0.3-0.3-0.6-0.4-1-0.6c-0.4-0.1-0.8-0.2-1.2-0.2c-0.9,0-1.6,0.3-2.2,0.8
			c-0.6,0.5-0.9,1.2-0.9,2.1c0,0.5,0.1,0.9,0.3,1.3c0.2,0.4,0.4,0.7,0.7,0.9c0.3,0.3,0.6,0.4,1,0.6c0.4,0.1,0.8,0.2,1.2,0.2
			c0.9,0,1.6-0.3,2.2-0.8c0.6-0.5,0.8-1.3,0.8-2.1c0-0.5-0.1-0.9-0.2-1.3C189.4,233.8,189.2,233.5,189,233.3z"/>
	</g>
</g>
</svg>
