<svg xmlns="http://www.w3.org/2000/svg" xmlns:xlink="http://www.w3.org/1999/xlink" width="241" height="64" viewBox="0 0 241 64">
    <defs>
        <filter id="ajeqnbcmza">
            <feColorMatrix in="SourceGraphic" values="0 0 0 0 1.000000 0 0 0 0 1.000000 0 0 0 0 1.000000 0 0 0 1.000000 0"/>
        </filter>
        <path id="uu9s6bntab" d="M0 63.429L238.703 63.429 238.703 0.107 0 0.107z"/>
    </defs>
    <g fill="none" fill-rule="evenodd">
        <g>
            <g>
                <g>
                    <path fill="#DA291C" d="M0 0.572L0 63.893 63.284 63.893 63.284 55.979 7.911 55.979 7.911 8.487 63.284 8.487 63.284 0.572z" transform="translate(-50 -52) translate(50 52) translate(1.142)"/>
                    <path fill="#FF6A14" d="M63.284 22.338L63.284 14.423 13.844 14.423 13.844 36.19 55.373 36.19 55.373 42.127 13.844 42.127 13.844 50.042 63.284 50.042 63.284 28.275 21.754 28.275 21.754 22.338z" transform="translate(-50 -52) translate(50 52) translate(1.142)"/>
                    <g filter="url(#ajeqnbcmza)" transform="translate(-50 -52) translate(50 52) translate(1.142)">
                        <g transform="translate(0 .465)">
                            <path fill="#000" d="M93.263 28.22c-5.814 0-10.132-4.51-10.132-10.212v-.057c0-5.645 4.233-10.269 10.301-10.269 3.725 0 5.956 1.248 7.79 3.064l-2.766 3.205c-1.524-1.39-3.076-2.241-5.052-2.241-3.33 0-5.729 2.78-5.729 6.184v.057c0 3.404 2.342 6.241 5.73 6.241 2.257 0 3.64-.908 5.192-2.326l2.766 2.808c-2.032 2.185-4.29 3.546-8.1 3.546M119.44 17.951c0-3.404-2.485-6.241-5.984-6.241-3.5 0-5.927 2.78-5.927 6.184v.057c0 3.405 2.484 6.241 5.983 6.241 3.5 0 5.927-2.78 5.927-6.184v-.057zm-5.984 10.27c-6.097 0-10.47-4.568-10.47-10.213v-.057c0-5.645 4.43-10.27 10.526-10.27 6.097 0 10.471 4.568 10.471 10.213v.057c0 5.645-4.43 10.27-10.527 10.27zM139.298 14.802c0-1.872-1.298-2.836-3.415-2.836h-4.318v5.702h4.403c2.117 0 3.33-1.135 3.33-2.809v-.057zm-.084 13.078l-4.234-6.354h-3.415v6.354h-4.347V8.022h9.032c4.657 0 7.45 2.469 7.45 6.554v.056c0 3.206-1.72 5.22-4.232 6.156l4.826 7.092h-5.08zM147.829 27.88L147.829 8.022 162.731 8.022 162.731 11.909 152.147 11.909 152.147 15.937 161.461 15.937 161.461 19.824 152.147 19.824 152.147 23.994 162.872 23.994 162.872 27.88zM92.554 44.44c4.402.963 6.434 2.582 6.434 5.645 0 3.432-2.822 5.645-6.744 5.645-3.133 0-5.7-1.05-8.071-3.177l1.383-1.646c2.06 1.872 4.035 2.808 6.772 2.808 2.653 0 4.402-1.39 4.402-3.403 0-1.873-.988-2.922-5.136-3.802-4.542-.993-6.63-2.468-6.63-5.759 0-3.177 2.736-5.446 6.49-5.446 2.878 0 4.938.823 6.942 2.44l-1.299 1.73c-1.834-1.503-3.669-2.156-5.7-2.156-2.568 0-4.204 1.418-4.204 3.234 0 1.9 1.015 2.95 5.361 3.886M110.141 37.66h-4.995v8.737h4.882c3.274 0 5.418-1.759 5.418-4.397 0-2.865-2.116-4.34-5.305-4.34m-.197 10.779h-4.798v7.008h-2.228V35.588h7.392c4.46 0 7.394 2.384 7.394 6.326 0 4.312-3.555 6.525-7.76 6.525M135.63 37.631L123.581 37.631 123.581 44.411 134.36 44.411 134.36 46.453 123.581 46.453 123.581 53.404 135.771 53.404 135.771 55.447 121.351 55.447 121.351 35.589 135.63 35.589zM148.51 55.787c-5.7 0-9.905-4.511-9.905-10.242 0-5.673 4.177-10.297 9.99-10.297 3.583 0 5.728 1.277 7.704 3.149l-1.524 1.645c-1.665-1.588-3.527-2.723-6.209-2.723-4.373 0-7.647 3.546-7.647 8.17 0 4.624 3.302 8.227 7.647 8.227 2.71 0 4.488-1.05 6.378-2.866l1.467 1.448c-2.06 2.099-4.317 3.489-7.9 3.489"/>
                            <mask id="btgxvkesxc" fill="#fff">
                                <use xlink:href="#uu9s6bntab"/>
                            </mask>
                            <path fill="#000" d="M160.642 55.447L162.872 55.447 162.872 35.589 160.642 35.589zM176.47 38.057l-4.515 10.128h9.002l-4.487-10.128zm10.074 17.39h-2.398l-2.314-5.25H171.08l-2.342 5.25h-2.285l9.002-20h2.087l9.002 20zM190.265 35.588L192.494 35.588 192.494 53.375 203.613 53.375 203.613 55.447 190.265 55.447zM211.244 55.447L208.987 55.447 208.987 37.659 202.356 37.659 202.356 35.588 217.876 35.588 217.876 37.659 211.244 37.659zM230.491 55.447L228.233 55.447 228.233 47.588 220.022 35.588 222.731 35.588 229.39 45.517 236.106 35.588 238.703 35.588 230.491 47.56z" mask="url(#btgxvkesxc)"/>
                        </g>
                    </g>
                </g>
            </g>
        </g>
    </g>
</svg>
