<?xml version="1.0" encoding="utf-8"?>
<!-- Generator: Adobe Illustrator 25.3.1, SVG Export Plug-In . SVG Version: 6.00 Build 0)  -->
<svg version="1.1" id="Layer_1" xmlns="http://www.w3.org/2000/svg" xmlns:xlink="http://www.w3.org/1999/xlink" x="0px" y="0px"
	 viewBox="0 0 302 48" enable-background="new 0 0 302 48" xml:space="preserve">
<g>
	<g>
		<path fill="#E2231A" d="M18.8511391,34.1501923c4.6082439,0,8.0109921-1.5610847,10.4196682-3.3731365l3.4559841,4.9851398
			c-3.7172279,3.2714424-8.4829865,4.9319763-13.9275169,4.9319763c-10.6290512,0-18.6397724-7.6022415-18.6397724-17.6207123
			c0-10.017519,8.0107203-17.6207142,18.6397724-17.6207142c5.4445305,0,10.210289,1.6624393,13.9275169,4.9342923
			l-3.4559841,4.9838467c-2.4086761-1.8123941-5.8114243-3.3719139-10.4196682-3.3719139
			c-6.5967999,0-11.0996742,4.8835135-11.0996742,11.0744886C7.7514653,29.2667484,12.2543392,34.1501923,18.8511391,34.1501923z"/>
		<path fill="#E2231A" d="M51.4020882,9.4886694c9.3013,0,16.2423897,6.6741934,16.2423897,15.6178637
			c0,8.8558617-6.9410896,15.5291672-16.2423897,15.5291672c-9.2088661,0-16.1523399-6.6733055-16.1523399-15.5291672
			C35.2497482,16.1628628,42.193222,9.4886694,51.4020882,9.4886694z M51.4476242,34.8076019
			c5.7835159,0,9.8104553-4.2273331,9.8104553-9.7010689c0-5.5614777-4.0269394-9.7001162-9.8104553-9.7001162
			c-5.6921005,0-9.8104553,4.1386385-9.8104553,9.7001162C41.6371689,30.5802689,45.7555237,34.8076019,51.4476242,34.8076019z"/>
		<path fill="#E2231A" d="M68.4767532,9.9326811h7.0806961l9.1633301,24.5183067L94.207222,9.9326811h7.0793381
			L88.792984,40.1916237h-8.1463165L68.4767532,9.9326811z"/>
		<path fill="#E2231A" d="M105.5455475,40.1916237V9.9326811h24.8955383v5.4737358h-18.6955795v6.5413237h15.3180923v5.4737358
			h-15.3180923v7.29743h18.6955795v5.4727173H105.5455475z"/>
		<path fill="#E2231A" d="M136.6889038,9.9326811h13.8357544c7.729538,0,12.5415039,3.0268736,12.5415039,9.8344145
			c0,4.806324-3.5622864,8.3649502-8.2832642,9.2989197l10.0428467,10.1026058v1.0230026h-7.2648926l-10.5054474-10.902277
			h-3.8873138v10.902277h-6.479187V9.9326811z M143.1680908,15.3619003v9.0337238h8.0525055
			c2.9607849,0,5.0892181-1.6917763,5.0892181-4.4952507c0-2.9809952-2.1284332-4.5384731-5.0892181-4.5384731H143.1680908z"/>
		<path fill="#E2231A" d="M176.7184143,28.2208061l-12.3101349-17.8413925V9.9326811h7.2196198l8.3297577,12.5491266
			l8.3304443-12.5491266h7.218338v0.4467335l-12.3088531,17.7985077v12.0137005h-6.4791718V28.2208061z"/>
		<path fill="#E2231A" d="M198.6539307,32.0041275c2.2680359,1.4238586,5.9234619,2.9354591,9.9962769,2.9354591
			c3.794281,0,6.1533966-1.155941,6.1533966-3.3808327c0-1.6462383-1.1559296-2.581501-4.394577-3.3808308l-5.1842346-1.2464046
			c-5.5983734-1.3350964-8.0519104-4.2276707-8.0519104-8.3204327c0-5.0283632,3.8874054-9.0782404,12.3095245-9.0782404
			c4.5361633,0,8.8854828,1.2018194,11.2918396,2.4026861l-1.851944,5.695776
			c-2.3139191-1.289629-6.246521-2.4023457-9.6705017-2.4023457c-3.7949677,0-5.3684387,1.1127167-5.3684387,2.8477173
			c0,1.6461716,1.1560059,2.2680454,3.424057,2.8922348l5.7845306,1.5561161
			c5.6934052,1.5139141,8.469986,4.2286949,8.469986,8.5438347c0,5.6957073-5.4620972,9.5668354-13.0513458,9.5668354
			c-4.5820312,0-9.3474426-1.5129585-11.3841858-2.6247215L198.6539307,32.0041275z"/>
	</g>
	<g>
		<path fill="#FFFFFF" d="M243.9634399,1.3748926c0,0.727245-0.5876312,1.3161744-1.3135223,1.3161744
			c-0.7272339,0-1.3148804-0.5889294-1.3148804-1.3161744c0-0.7258835,0.5876465-1.3135197,1.3148804-1.3135197
			C243.3758087,0.0613729,243.9634399,0.649009,243.9634399,1.3748926z"/>
		<path fill="#FFFFFF" d="M253.4577942,1.3748926c0,0.727245-0.5889435,1.3161744-1.3135223,1.3161744
			c-0.7271881,0-1.3161621-0.5889294-1.3161621-1.3161744c0-0.7258835,0.588974-1.3135197,1.3161621-1.3135197
			C252.8688507,0.0613729,253.4577942,0.649009,253.4577942,1.3748926z"/>
		<path fill="#FFFFFF" d="M262.9534912,1.3748926c0,0.727245-0.5903015,1.3161744-1.3174438,1.3161744
			c-0.7246094,0-1.3135376-0.5889294-1.3135376-1.3161744c0-0.7258835,0.5889282-1.3135197,1.3135376-1.3135197
			C262.3631897,0.0613729,262.9534912,0.649009,262.9534912,1.3748926z"/>
		<path fill="#FFFFFF" d="M272.4451904,1.3748926c0,0.727245-0.5902405,1.3161744-1.3148193,1.3161744
			c-0.7245178,0-1.3135071-0.5889294-1.3135071-1.3161744c0-0.7258835,0.5889893-1.3135197,1.3135071-1.3135197
			C271.85495,0.0613729,272.4451904,0.649009,272.4451904,1.3748926z"/>
		<path fill="#FFFFFF" d="M281.9396057,1.3748926c0,0.727245-0.5889282,1.3161744-1.3148804,1.3161744
			c-0.7258911,0-1.3148193-0.5889294-1.3148193-1.3161744c0-0.7258835,0.5889282-1.3135197,1.3148193-1.3135197
			C281.3506775,0.0613729,281.9396057,0.649009,281.9396057,1.3748926z"/>
		<path fill="#FFFFFF" d="M291.4326477,1.3748926c0,0.727245-0.5889893,1.3161744-1.3122253,1.3161744
			c-0.7271729,0-1.3174744-0.5889294-1.3174744-1.3161744c0-0.7258835,0.5903015-1.3135197,1.3174744-1.3135197
			C290.8436584,0.0613729,291.4326477,0.649009,291.4326477,1.3748926z"/>
		<path fill="#FFFFFF" d="M243.9634399,10.2856846c0,0.7258835-0.5876312,1.3134518-1.3135223,1.3134518
			c-0.7272339,0-1.3148804-0.5875683-1.3148804-1.3134518c0-0.7262239,0.5876465-1.3148813,1.3148804-1.3148813
			C243.3758087,8.9708033,243.9634399,9.5594606,243.9634399,10.2856846z"/>
		<g>
			<path fill="#FFFFFF" d="M252.1442719,12.3579645c-1.1446381,0-2.0739136-0.9302931-2.0739136-2.0722799
				c0-1.142395,0.9292755-2.0739822,2.0739136-2.0739822c1.1420441,0,2.0713196,0.9315872,2.0713196,2.0739822
				C254.2155914,11.4276714,253.2863159,12.3579645,252.1442719,12.3579645z"/>
		</g>
		<g>
			<path fill="#FFFFFF" d="M261.6360474,12.3579645c-1.1420898,0-2.0726929-0.9302931-2.0726929-2.0722799
				c0-1.142395,0.930603-2.0739822,2.0726929-2.0739822c1.1446228,0,2.0752563,0.9315872,2.0752563,2.0739822
				C263.7113037,11.4276714,262.7806702,12.3579645,261.6360474,12.3579645z"/>
		</g>
		<g>
			<path fill="#FFFFFF" d="M271.1303711,12.3579645c-1.1419983,0-2.0726318-0.9302931-2.0726318-2.0722799
				c0-1.142395,0.9306335-2.0739822,2.0726318-2.0739822s2.0739746,0.9315872,2.0739746,2.0739822
				C273.2043457,11.4276714,272.2723694,12.3579645,271.1303711,12.3579645z"/>
		</g>
		<g>
			<path fill="#FFFFFF" d="M280.6247253,12.3579645c-1.14328,0-2.0726318-0.9302931-2.0726318-2.0722799
				c0-1.142395,0.9293518-2.0739822,2.0726318-2.0739822c1.1427307,0,2.0726624,0.9315872,2.0726624,2.0739822
				C282.6973877,11.4276714,281.7674561,12.3579645,280.6247253,12.3579645z"/>
		</g>
		<path fill="#FFFFFF" d="M291.4326477,10.2856846c0,0.7258835-0.5889893,1.3134518-1.3122253,1.3134518
			c-0.7271729,0-1.3174744-0.5875683-1.3174744-1.3134518c0-0.7262239,0.5903015-1.3148813,1.3174744-1.3148813
			C290.8436584,8.9708033,291.4326477,9.5594606,291.4326477,10.2856846z"/>
		<path fill="#FFFFFF" d="M243.9634399,19.194706c0,0.7258835-0.5876312,1.3148823-1.3135223,1.3148823
			c-0.7272339,0-1.3148804-0.5889988-1.3148804-1.3148823s0.5876465-1.3148117,1.3148804-1.3148117
			C243.3758087,17.8798943,243.9634399,18.4688225,243.9634399,19.194706z"/>
		<g>
			<path fill="#FFFFFF" d="M252.1442719,21.2686882c-1.1446381,0-2.0739136-0.9302921-2.0739136-2.0739822
				c0-1.1419868,0.9292755-2.072279,2.0739136-2.072279c1.1420441,0,2.0713196,0.9302921,2.0713196,2.072279
				C254.2155914,20.3383961,253.2863159,21.2686882,252.1442719,21.2686882z"/>
		</g>
		<g>
			<path fill="#FFFFFF" d="M261.6360474,22.7852573c-1.978302,0-3.5889282-1.6106396-3.5889282-3.5905514
				c0-1.9795704,1.6106262-3.5888481,3.5889282-3.5888481c1.9801636,0,3.5914917,1.6092777,3.5914917,3.5888481
				C265.2275391,21.1746178,263.6162109,22.7852573,261.6360474,22.7852573z"/>
		</g>
		<path fill="#E2231A" d="M275.3108826,19.1870823c0,2.1829605-1.7688293,3.9521999-3.9478455,3.9521999
			c-2.1796265,0-3.9498291-1.7692394-3.9498291-3.9521999c0-2.1803055,1.7702026-3.9481821,3.9498291-3.9481821
			C273.5420532,15.2389002,275.3108826,17.0067768,275.3108826,19.1870823z"/>
		<g>
			<path fill="#FFFFFF" d="M280.6247253,21.2686882c-1.14328,0-2.0726318-0.9302921-2.0726318-2.0739822
				c0-1.1419868,0.9293518-2.072279,2.0726318-2.072279c1.1427307,0,2.0726624,0.9302921,2.0726624,2.072279
				C282.6973877,20.3383961,281.7674561,21.2686882,280.6247253,21.2686882z"/>
		</g>
		<path fill="#FFFFFF" d="M291.4326477,19.194706c0,0.7258835-0.5889893,1.3148823-1.3122253,1.3148823
			c-0.7271729,0-1.3174744-0.5889988-1.3174744-1.3148823s0.5903015-1.3148117,1.3174744-1.3148117
			C290.8436584,17.8798943,291.4326477,18.4688225,291.4326477,19.194706z"/>
		<path fill="#FFFFFF" d="M243.9634399,28.1041374c0,0.7258835-0.5876312,1.3148136-1.3135223,1.3148136
			c-0.7272339,0-1.3148804-0.5889301-1.3148804-1.3148136s0.5876465-1.3148136,1.3148804-1.3148136
			C243.3758087,26.7893238,243.9634399,27.3782539,243.9634399,28.1041374z"/>
		<g>
			<path fill="#FFFFFF" d="M252.1442719,30.1767578c-1.1446381,0-2.0739136-0.930294-2.0739136-2.0726204
				c0-1.1423283,0.9292755-2.0726204,2.0739136-2.0726204c1.1420441,0,2.0713196,0.9302921,2.0713196,2.0726204
				C254.2155914,29.2464638,253.2863159,30.1767578,252.1442719,30.1767578z"/>
		</g>
		<g>
			<path fill="#FFFFFF" d="M261.6360474,31.6933937c-1.978302,0-3.5889282-1.6093445-3.5889282-3.5892563
				s1.6106262-3.5891895,3.5889282-3.5891895c1.9801636,0,3.5914917,1.6092777,3.5914917,3.5891895
				S263.6162109,31.6933937,261.6360474,31.6933937z"/>
		</g>
		<g>
			<path fill="#FFFFFF" d="M271.1303711,31.6933937c-1.9795532,0-3.59021-1.6093445-3.59021-3.5892563
				s1.6106567-3.5891895,3.59021-3.5891895c1.9802551,0,3.59021,1.6092777,3.59021,3.5891895
				S273.1106262,31.6933937,271.1303711,31.6933937z"/>
		</g>
		<g>
			<path fill="#FFFFFF" d="M280.6247253,30.1767578c-1.14328,0-2.0726318-0.930294-2.0726318-2.0726204
				c0-1.1423283,0.9293518-2.0726204,2.0726318-2.0726204c1.1427307,0,2.0726624,0.9302921,2.0726624,2.0726204
				C282.6973877,29.2464638,281.7674561,30.1767578,280.6247253,30.1767578z"/>
		</g>
		<path fill="#FFFFFF" d="M291.4326477,28.1041374c0,0.7258835-0.5889893,1.3148136-1.3122253,1.3148136
			c-0.7271729,0-1.3174744-0.5889301-1.3174744-1.3148136s0.5903015-1.3148136,1.3174744-1.3148136
			C290.8436584,26.7893238,291.4326477,27.3782539,291.4326477,28.1041374z"/>
		<path fill="#FFFFFF" d="M243.9634399,37.0135689c0,0.7258835-0.5876312,1.3148117-1.3135223,1.3148117
			c-0.7272339,0-1.3148804-0.5889282-1.3148804-1.3148117s0.5876465-1.3148804,1.3148804-1.3148804
			C243.3758087,35.6986885,243.9634399,36.2876854,243.9634399,37.0135689z"/>
		<g>
			<path fill="#FFFFFF" d="M252.1442719,39.0874825c-1.1446381,0-2.0739136-0.9305649-2.0739136-2.0739136
				c0-1.142395,0.9292755-2.0713272,2.0739136-2.0713272c1.1420441,0,2.0713196,0.9289322,2.0713196,2.0713272
				C254.2155914,38.1569176,253.2863159,39.0874825,252.1442719,39.0874825z"/>
		</g>
		<g>
			<path fill="#FFFFFF" d="M261.6360474,39.0874825c-1.1420898,0-2.0726929-0.9305649-2.0726929-2.0739136
				c0-1.142395,0.930603-2.0713272,2.0726929-2.0713272c1.1446228,0,2.0752563,0.9289322,2.0752563,2.0713272
				C263.7113037,38.1569176,262.7806702,39.0874825,261.6360474,39.0874825z"/>
		</g>
		<g>
			<path fill="#FFFFFF" d="M271.1303711,39.0874825c-1.1419983,0-2.0726318-0.9305649-2.0726318-2.0739136
				c0-1.142395,0.9306335-2.0713272,2.0726318-2.0713272s2.0739746,0.9289322,2.0739746,2.0713272
				C273.2043457,38.1569176,272.2723694,39.0874825,271.1303711,39.0874825z"/>
		</g>
		<g>
			<path fill="#FFFFFF" d="M280.6247253,39.0874825c-1.14328,0-2.0726318-0.9305649-2.0726318-2.0739136
				c0-1.142395,0.9293518-2.0713272,2.0726318-2.0713272c1.1427307,0,2.0726624,0.9289322,2.0726624,2.0713272
				C282.6973877,38.1569176,281.7674561,39.0874825,280.6247253,39.0874825z"/>
		</g>
		<path fill="#FFFFFF" d="M291.4326477,37.0135689c0,0.7258835-0.5889893,1.3148117-1.3122253,1.3148117
			c-0.7271729,0-1.3174744-0.5889282-1.3174744-1.3148117s0.5903015-1.3148804,1.3174744-1.3148804
			C290.8436584,35.6986885,291.4326477,36.2876854,291.4326477,37.0135689z"/>
		<path fill="#FFFFFF" d="M243.9634399,45.9232712c0,0.7258835-0.5876312,1.3148804-1.3135223,1.3148804
			c-0.7272339,0-1.3148804-0.5889969-1.3148804-1.3148804s0.5876465-1.3135185,1.3148804-1.3135185
			C243.3758087,44.6097527,243.9634399,45.1973877,243.9634399,45.9232712z"/>
		<path fill="#FFFFFF" d="M253.4577942,45.9232712c0,0.7258835-0.5889435,1.3148804-1.3135223,1.3148804
			c-0.7271881,0-1.3161621-0.5889969-1.3161621-1.3148804s0.588974-1.3135185,1.3161621-1.3135185
			C252.8688507,44.6097527,253.4577942,45.1973877,253.4577942,45.9232712z"/>
		<path fill="#FFFFFF" d="M262.9534912,45.9232712c0,0.7258835-0.5903015,1.3148804-1.3174438,1.3148804
			c-0.7246094,0-1.3135376-0.5889969-1.3135376-1.3148804s0.5889282-1.3135185,1.3135376-1.3135185
			C262.3631897,44.6097527,262.9534912,45.1973877,262.9534912,45.9232712z"/>
		<path fill="#FFFFFF" d="M272.4451904,45.9232712c0,0.7258835-0.5902405,1.3148804-1.3148193,1.3148804
			c-0.7245178,0-1.3135071-0.5889969-1.3135071-1.3148804s0.5889893-1.3135185,1.3135071-1.3135185
			C271.85495,44.6097527,272.4451904,45.1973877,272.4451904,45.9232712z"/>
		<path fill="#FFFFFF" d="M281.9396057,45.9232712c0,0.7258835-0.5889282,1.3148804-1.3148804,1.3148804
			c-0.7258911,0-1.3148193-0.5889969-1.3148193-1.3148804s0.5889282-1.3135185,1.3148193-1.3135185
			C281.3506775,44.6097527,281.9396057,45.1973877,281.9396057,45.9232712z"/>
		<path fill="#FFFFFF" d="M291.4326477,45.9232712c0,0.7258835-0.5889893,1.3148804-1.3122253,1.3148804
			c-0.7271729,0-1.3174744-0.5889969-1.3174744-1.3148804s0.5903015-1.3135185,1.3174744-1.3135185
			C290.8436584,44.6097527,291.4326477,45.1973877,291.4326477,45.9232712z"/>
	</g>
</g>
</svg>
