<svg class="qbe-logo" xmlns="http://www.w3.org/2000/svg" width="99" height="29" viewBox="0 0 99 29" preserveAspectRatio="xMinYMin meet" title="qbe logo">
  <g fill="none" fill-rule="evenodd">
    <path fill="#FFFFFF" d="M53.944 23.868c-1.401-1.282-2.909-2.274-4.519-2.942-1.61-.677-3.248-1.015-4.913-1.015-.477 0-.932.035-1.378.105a8.39 8.39 0 0 0-1.309.313c.98 1.402 2.178 2.494 3.606 3.26a9.695 9.695 0 0 0 4.625 1.156c.604 0 1.221-.073 1.861-.222.637-.132 1.312-.362 2.027-.655zm3.006-2.225c.989-1.131 1.71-2.27 2.164-3.453.452-1.17.673-2.514.673-4.01a9.824 9.824 0 0 0-.687-3.646 9.947 9.947 0 0 0-2-3.162c-1.023-1.116-2.13-1.942-3.313-2.474-1.184-.533-2.502-.811-3.955-.811-1.29 0-2.52.247-3.687.743a9.527 9.527 0 0 0-3.098 2.127 10.457 10.457 0 0 0-2.243 3.434 10.576 10.576 0 0 0-.78 4.025c0 .425.036.891.103 1.37.066.478.176.969.309 1.497a7.845 7.845 0 0 1 1.99-.68c.73-.153 1.57-.216 2.523-.216 2.038 0 4.086.448 6.15 1.355 2.062.909 4.009 2.202 5.851 3.901zm.53 4.783a13.31 13.31 0 0 1-3.621 1.677 13.719 13.719 0 0 1-3.992.576c-1.602 0-3.136-.267-4.613-.77a13.974 13.974 0 0 1-4.046-2.26 13.778 13.778 0 0 1-3.915-5.018c-.91-1.96-1.363-4.095-1.363-6.404 0-1.912.36-3.734 1.092-5.445.724-1.713 1.792-3.278 3.193-4.699a13.922 13.922 0 0 1 4.423-2.967C46.26.44 48.005.11 49.868.11c1.92 0 3.692.33 5.327 1.006 1.636.68 3.127 1.676 4.485 3.015a13.946 13.946 0 0 1 3.165 4.713c.708 1.748 1.061 3.656 1.061 5.708 0 1.8-.285 3.456-.85 4.988-.563 1.51-1.42 2.94-2.57 4.253.485.236.99.403 1.498.512a7.96 7.96 0 0 0 1.66.165h.504v3.844h-.352a11.13 11.13 0 0 1-3.103-.466 14.779 14.779 0 0 1-3.213-1.422zM70.39 12.181h1.273c2.076 0 3.549-.322 4.433-.942.88-.642 1.322-1.672 1.322-3.132 0-1.277-.4-2.232-1.202-2.853-.8-.624-2.025-.932-3.672-.932H70.39v7.859zm-.04 12.366h3.16c1.847 0 3.211-.342 4.08-1.045.875-.685 1.31-1.753 1.31-3.205 0-1.58-.452-2.775-1.366-3.581-.907-.808-2.248-1.225-4.023-1.225H70.35v9.056zM72.374.552c2.949 0 5.195.646 6.729 1.936 1.537 1.297 2.302 3.193 2.302 5.66 0 1.148-.248 2.155-.754 3.043-.504.875-1.232 1.605-2.203 2.167 1.36.401 2.43 1.186 3.214 2.35.785 1.157 1.18 2.53 1.18 4.14a9.227 9.227 0 0 1-.726 3.647c-.481 1.134-1.141 2.08-1.995 2.82a7.636 7.636 0 0 1-2.834 1.536c-1.063.302-2.555.45-4.476.45h-6.388V.552h5.95zM98.947 28.301H84.58V.552h14.367V4.26H88.59v8.29h10.357v3.598H88.59v8.32h10.357v3.833"></path>
    <path fill="#FFFFFF" d="M23.417 20.874a2.986 2.986 0 0 0 2.114-.88c.544-.55.882-1.3.882-2.133a2.95 2.95 0 0 0-.426-1.541L19.816 5.58A7.202 7.202 0 0 0 16.641.618a6.142 6.142 0 0 1 6.475 2.976l6.316 10.967a6.178 6.178 0 0 1-2.254 8.43 6.127 6.127 0 0 1-8.31-2.117h4.549"></path>
    <path fill="#FFFFFF" d="M23.398 15.92h-7.705l-2.221 3.871h9.926a1.93 1.93 0 0 0 1.93-1.93 1.94 1.94 0 0 0-1.93-1.94M15.8 5.65a2.959 2.959 0 0 0-1.82-1.387 2.994 2.994 0 0 0-2.289.298c-.482.288-.865.68-1.122 1.135L4.395 16.435a7.238 7.238 0 0 0-2.709 5.237 6.179 6.179 0 0 1-.665-7.111L7.34 3.594a6.125 6.125 0 0 1 8.401-2.259c2.89 1.673 3.913 5.342 2.333 8.27L15.801 5.65"></path>
    <path fill="#FFFFFF" d="M11.531 8.145l3.853 6.69h4.45l-4.964-8.62a1.919 1.919 0 0 0-2.636-.704 1.929 1.929 0 0 0-.703 2.634M6.46 19.882a3.03 3.03 0 0 0-.292 2.284 3.008 3.008 0 0 0 1.404 1.827c.486.278 1.021.413 1.546.402h12.349a7.217 7.217 0 0 0 5.885-.258c-.84 2.404-3.126 4.136-5.808 4.136H8.91c-3.396 0-6.151-2.767-6.151-6.175 0-3.35 2.66-6.07 5.98-6.17L6.46 19.882"></path>
    <path fill="#FFFFFF" d="M10.744 22.352l3.858-6.696-2.228-3.868-4.966 8.625a1.936 1.936 0 0 0 .707 2.643 1.93 1.93 0 0 0 2.629-.704"></path>
  </g>
</svg>