<svg id="new_final_of_TDC-TDCG_logo" data-name="new final of TDC-TDCG logo" xmlns="http://www.w3.org/2000/svg" viewBox="0 0 422.36 111.62"><defs><style>.cls-1{fill:#253c56;}.cls-2{fill:#ee3024;}</style></defs><path class="cls-1" d="M114.48,20.58h16.86v2H124V47.53h-2.26V22.59h-7.3Z" transform="translate(-4.82 -7.19)"/><path class="cls-1" d="M134,47.53V20.58h2v10.6c1.92-2.17,3.49-3.44,6.08-3.44,3.69,0,5.26,2.32,5.26,6.54V47.53h-2.05v-13c0-3.21-.89-5-3.62-5-2.18,0-3.41,1.46-5.67,3.7v14.3Z" transform="translate(-4.82 -7.19)"/><path class="cls-1" d="M152.82,37.9c0,4.4,1.67,8.21,5.7,8.21,2.28,0,3.41-.86,5.18-3.92l1.68,1c-1.92,3.43-3.66,4.74-7,4.74-4.64,0-7.57-3.25-7.57-10.08,0-6,2.8-10.08,7.3-10.08,4.81,0,7.1,4.15,7.1,10.16Zm10.3-1.8c-.41-4-2-6.53-5.12-6.57-3.61,0-5.15,4-5.18,6.57Z" transform="translate(-4.82 -7.19)"/><path class="cls-1" d="M178.94,20.58h7c7.65,0,10.72,6.27,10.72,13.47s-3.07,13.48-10.72,13.48h-7Zm2.25,24.93H186c5.46,0,8.4-4.18,8.4-11.46s-2.94-11.46-8.4-11.46h-4.78Z" transform="translate(-4.82 -7.19)"/><path class="cls-1" d="M214,37.82c0,5.26-1.78,10.08-7.31,10.08s-7.3-4.82-7.3-10.08,1.77-10.08,7.3-10.08S214,32.56,214,37.82Zm-12.56,0c0,5.26,1.6,8.29,5.25,8.29s5.26-3,5.26-8.29-1.6-8.29-5.26-8.29S201.46,32.56,201.46,37.82Z" transform="translate(-4.82 -7.19)"/><path class="cls-1" d="M229.18,33.57c-.92-2.24-2.25-4-4.61-4-3.34,0-5.59,2.28-5.59,8.29,0,5,2.05,8.29,5.59,8.29,2.53,0,3.9-1.53,5.33-4l1.64.86c-1.5,2.76-3.59,5-7,5-5,0-7.64-4.22-7.64-10.08,0-6.68,3.07-10.08,7.64-10.08,3.35,0,5.43,2.06,6.49,5.27Z" transform="translate(-4.82 -7.19)"/><path class="cls-1" d="M236,28.12V21.77h2.05v6.35H242v1.79h-3.89V44.13c0,1.31.55,2,1.81,2A6.8,6.8,0,0,0,242,45.7v1.86a12.52,12.52,0,0,1-2.08.34c-2.9,0-3.86-1-3.86-3.4V29.91h-2.66V28.12Z" transform="translate(-4.82 -7.19)"/><path class="cls-1" d="M258.92,37.82c0,5.26-1.77,10.08-7.3,10.08s-7.31-4.82-7.31-10.08,1.78-10.08,7.31-10.08S258.92,32.56,258.92,37.82Zm-12.56,0c0,5.26,1.6,8.29,5.26,8.29s5.25-3,5.25-8.29-1.6-8.29-5.25-8.29S246.36,32.56,246.36,37.82Z" transform="translate(-4.82 -7.19)"/><path class="cls-1" d="M262.33,47.53V28.12h2.05v3.69h.07c.95-2.39,2.86-4.07,5.12-4.07h.92v2.17h-.92c-2.26,0-5.19,2.91-5.19,6.64v11Z" transform="translate(-4.82 -7.19)"/><path class="cls-1" d="M273.26,42.82c1.67,2.62,3.18,3.29,5.5,3.29a3.77,3.77,0,0,0,4-3.7c0-5.63-10.45-2.46-10.45-9.37,0-3.65,2.63-5.3,5.63-5.3A6.44,6.44,0,0,1,284,31.25l-1.57,1.2c-1.19-1.79-2.49-2.92-4.6-2.92s-3.52,1-3.52,3.4c0,4.74,10.45,1.94,10.45,9.48,0,3.47-2.94,5.49-6.15,5.49A7.72,7.72,0,0,1,271.76,44Z" transform="translate(-4.82 -7.19)"/><path class="cls-1" d="M311.91,28.49c-1.06-4-3-6.27-6-6.27-4.89,0-7,5.22-7,11.83s2.15,11.83,7.27,11.83c4,0,5.4-3.06,6.22-6.57l2.11.42c-.92,4.81-3.21,8.17-8.36,8.17-6,0-9.49-5.52-9.49-13.85s3.52-13.85,9.49-13.85c4.4,0,6.83,3.4,7.88,7.81Z" transform="translate(-4.82 -7.19)"/><path class="cls-1" d="M331.7,37.82c0,5.26-1.78,10.08-7.31,10.08s-7.3-4.82-7.3-10.08,1.77-10.08,7.3-10.08S331.7,32.56,331.7,37.82Zm-12.56,0c0,5.26,1.6,8.29,5.25,8.29s5.26-3,5.26-8.29-1.6-8.29-5.26-8.29S319.14,32.56,319.14,37.82Z" transform="translate(-4.82 -7.19)"/><path class="cls-1" d="M335.17,47.53V28.12h2.05v2.95c1.81-2.09,3.14-3.33,5.91-3.33a4.46,4.46,0,0,1,4.3,3.55c1.6-2.05,3.31-3.55,5.87-3.55,3.11,0,4.68,1.87,4.68,5.27V47.53h-2.05V32.78c0-2.16-1.09-3.25-3.07-3.25-1.57,0-4.17,1.83-5.26,3.7v14.3h-2.05V32.78c0-2.16-1.09-3.25-3.07-3.25-1.57,0-4.17,1.83-5.26,3.7v14.3Z" transform="translate(-4.82 -7.19)"/><path class="cls-1" d="M362.77,28.12h2.05v3h.07c1.4-2.24,3.07-3.36,5.35-3.36,4.61,0,7.14,4.86,7.14,10.19,0,6.76-2.87,10-7,10-2.39,0-3.82-.9-5.56-2.91v9.4h-2.05Zm2.05,14.52c.68,1.3,3,3.47,5,3.47,3.68,0,5.49-3.21,5.49-8.59,0-4-1.64-8-5.19-8-2.25,0-3.58,1.54-5.32,3.55Z" transform="translate(-4.82 -7.19)"/><path class="cls-1" d="M391,47.53l-.28-2.36C388.64,47,387,47.9,384.3,47.9a4.71,4.71,0,0,1-4.88-5.08c0-5.3,4-6.27,11.37-8.06V33.42c0-2.58-1-3.89-4.07-3.89-2.11,0-3.85,1.27-5.15,3.51l-1.36-.89c1.53-3.14,3.72-4.41,6.58-4.41,4,0,5.94,1.79,5.94,6.09V44a23.05,23.05,0,0,0,.28,3.55Zm-.35-11c-8.12,1.94-9.21,3.77-9.21,6.24a3,3,0,0,0,3.17,3.32,8.87,8.87,0,0,0,6-3.21Z" transform="translate(-4.82 -7.19)"/><path class="cls-1" d="M397.32,47.53V28.12h2.05v3.06c1.91-2.17,3.48-3.44,6.07-3.44,3.69,0,5.26,2.32,5.26,6.54V47.53h-2.05v-13c0-3.21-.89-5-3.62-5-2.18,0-3.41,1.46-5.66,3.7v14.3Z" transform="translate(-4.82 -7.19)"/><path class="cls-1" d="M420,43.91h.07L425,28.12h2.19l-6.62,20.79c-1.2,3.8-2.46,5.48-5.67,5.48a6.18,6.18,0,0,1-1.91-.22V52.34a13.92,13.92,0,0,0,2,.26c1.43,0,3-1.38,4-5.37l-6.18-19.11h2.25Z" transform="translate(-4.82 -7.19)"/><polygon class="cls-2" points="62 0.01 62 0.63 66.31 41.12 135.31 111.62 62 0.01"/><polygon class="cls-2" points="62 0.65 62 0 0 74.02 57.76 41.12 62 0.65"/><path class="cls-1" d="M139.84,63.89H154v1.55h-6.16v19.2H146V65.44h-6.15Z" transform="translate(-4.82 -7.19)"/><path class="cls-1" d="M157.52,63.89h5.86c6.44,0,9,4.83,9,10.37s-2.59,10.38-9,10.38h-5.86Zm1.9,19.2h4c4.6,0,7.07-3.22,7.07-8.83s-2.47-8.82-7.07-8.82h-4Z" transform="translate(-4.82 -7.19)"/><path class="cls-1" d="M188.3,70c-.9-3-2.56-4.83-5.06-4.83-4.11,0-5.92,4-5.92,9.11s1.81,9.12,6.12,9.12c3.33,0,4.54-2.36,5.23-5.06l1.78.31c-.77,3.71-2.7,6.3-7,6.3-5,0-8-4.26-8-10.67s3-10.66,8-10.66c3.71,0,5.75,2.62,6.64,6Z" transform="translate(-4.82 -7.19)"/><path class="cls-1" d="M204.06,74.19c-.45-1.9-1.63-3.43-3.83-3.43-2.62,0-4.34,2.52-4.34,6.54,0,3.2.93,6.54,4.77,6.54a3.43,3.43,0,0,0,3.48-3.59V78.89h-3.75V77.78h5.12v7h-1.18V83.29h0c-.89,1.15-2,1.67-4,1.67-3.33,0-5.72-2.73-5.72-7.66s2.58-7.65,5.78-7.65a5,5,0,0,1,5,4.31Z" transform="translate(-4.82 -7.19)"/><path class="cls-1" d="M219.52,84.75H218l-3.47-6.81h-3.85v6.81h-1.36V69.86h5c2.93,0,4.58,1.61,4.58,4a3.62,3.62,0,0,1-3.1,3.8Zm-8.8-7.92h3.67c2,0,3.22-1.09,3.22-2.93S216.53,71,214.39,71h-3.67Z" transform="translate(-4.82 -7.19)"/><path class="cls-1" d="M233.35,77.3c0,4.4-2.14,7.66-5.88,7.66s-5.87-3.26-5.87-7.66,2.14-7.65,5.87-7.65S233.35,72.91,233.35,77.3Zm-1.36,0c0-4.18-1.77-6.54-4.52-6.54S223,73.12,223,77.3s1.77,6.54,4.51,6.54S232,81.49,232,77.3Z" transform="translate(-4.82 -7.19)"/><path class="cls-1" d="M237.7,69.86V80c0,2.84,1.38,3.83,4,3.83s4-1,4-3.83V69.86h1.36v10c0,3.38-1.78,5.08-5.39,5.08s-5.38-1.7-5.38-5.08v-10Z" transform="translate(-4.82 -7.19)"/><path class="cls-1" d="M251.17,84.75V69.86h4.49c3.55,0,5,1.65,5,4.14s-1.49,4.15-5,4.15h-3.13v6.6ZM252.53,77h3.13c2.58,0,3.67-1.08,3.67-3s-1.09-3-3.67-3h-3.13Z" transform="translate(-4.82 -7.19)"/></svg>