<?xml version="1.0" encoding="utf-8"?>
<!-- Generator: Adobe Illustrator 25.4.1, SVG Export Plug-In . SVG Version: 6.00 Build 0)  -->
<svg version="1.1" xmlns="http://www.w3.org/2000/svg" xmlns:xlink="http://www.w3.org/1999/xlink" x="0px" y="0px"
	 viewBox="10 19 240.41 190.72" style="enable-background:new 0 0 285.3 250;" xml:space="preserve">
<style type="text/css">
	.st0{filter:url(#Adobe_OpacityMaskFilter);}
	.st1{fill:#FFFFFF;}
	.st2{opacity:0.9;mask:url(#SVGID_1_);fill:#FFFFFF;}
	.st3{opacity:0.9;fill:none;stroke:#FFFFFF;stroke-width:8;stroke-linecap:round;stroke-miterlimit:10;}
</style>
<g id="Layer_1">
	<defs>
		<filter id="Adobe_OpacityMaskFilter" filterUnits="userSpaceOnUse" x="35.6" y="62.9" width="126.7" height="144.8">
			
				<feColorMatrix  type="matrix" values="-1 0 0 0 1  0 -1 0 0 1  0 0 -1 0 1  0 0 0 1 0" color-interpolation-filters="sRGB" result="source"/>
			<feFlood  style="flood-color:white;flood-opacity:1" result="back"/>
			<feBlend  in="source" in2="back" mode="normal"/>
		</filter>
	</defs>
	<mask maskUnits="userSpaceOnUse" x="35.6" y="62.9" width="126.7" height="144.8" id="SVGID_1_">
		<g class="st0">
			<circle class="st1" cx="179.2" cy="81.2" r="51.4"/>
		</g>
	</mask>
	<path class="st2" d="M56.7,141.3h15.8v12.1H56.7V141.3z M83.1,153.4H99v-12.1H83.1V153.4z M56.7,177.6h15.8v-12.1H56.7V177.6z
		 M83.1,177.6H99v-12.1H83.1V177.6z M56.7,105.1h15.8V93.1H56.7V105.1z M83.1,105.1H99V93.1H83.1V105.1z M56.7,129.3h15.8v-12.1
		H56.7V129.3z M83.1,129.3H99v-12.1H83.1V129.3z M162.3,111.2v96.6H35.6V81c0-10,7.1-18.1,15.8-18.1h52.8c8.8,0,15.8,8.1,15.8,18.1
		v12.1h26.4C155.2,93.1,162.3,101.2,162.3,111.2z M109.5,81c0-3.3-2.4-6-5.3-6H51.4c-2.9,0-5.3,2.7-5.3,6v114.7h63.4V81z
		 M151.8,111.2c0-3.3-2.4-6-5.3-6h-26.4v90.5h31.7V111.2z M130.6,153.4h10.6v-12.1h-10.6V153.4z M130.6,177.6h10.6v-12.1h-10.6
		V177.6z M130.6,129.3h10.6v-12.1h-10.6V129.3z"/>
</g>
<g id="Layer_2">
	<line class="st3" x1="178.7" y1="56.2" x2="178.4" y2="106.3"/>
	<line class="st3" x1="157.9" y1="82.6" x2="199.8" y2="82.6"/>
	<circle class="st3" cx="179.4" cy="81.2" r="49.1"/>
</g>
</svg>
