<svg id="Layer_1" data-name="Layer 1" xmlns="http://www.w3.org/2000/svg" xmlns:xlink="http://www.w3.org/1999/xlink" viewBox="0 0 230.41 160.72"><defs><style>.cls-1,.cls-4{fill:#fff;}.cls-1{filter:url(#luminosity-invert-noclip);}.cls-2{mask:url(#mask);}.cls-3{opacity:0.9;}.cls-4,.cls-5,.cls-6{isolation:isolate;opacity:0.9;}.cls-5,.cls-6{fill:none;stroke:#fff;stroke-miterlimit:10;stroke-width:8px;}.cls-5{stroke-linecap:round;}</style><filter id="luminosity-invert-noclip" x="0" y="0" width="227" height="154.72" filterUnits="userSpaceOnUse" color-interpolation-filters="sRGB"><feColorMatrix values="-1 0 0 0 1 0 -1 0 0 1 0 0 -1 0 1 0 0 0 1 0" result="invert"/><feFlood flood-color="#fff" result="bg"/><feBlend in="invert" in2="bg"/></filter><mask id="mask" x="0" y="0" width="227" height="154.72" maskUnits="userSpaceOnUse"><rect class="cls-1" x="105" width="122" height="82"/></mask></defs><g class="cls-2"><g id="Layer_1-2" data-name="Layer 1" class="cls-3"><path class="cls-4" d="M21.12,88.34H37v12.08H21.12Zm26.41,12.08H63.41V88.34H47.53ZM21.12,124.56H37V112.48H21.12Zm26.41,0H63.41V112.48H47.53ZM21.12,52.13H37V40.06H21.12Zm26.41,0H63.41V40.06H47.53ZM21.12,76.28H37V64.2H21.12Zm26.41,0H63.41V64.2H47.53Zm79.2-18.12v96.56H0V28C0,18,7.09,9.89,15.84,9.89H68.65C77.41,9.88,84.49,18,84.49,28V40.06h26.4c8.75,0,15.84,8.1,15.84,18.1ZM73.93,28c0-3.33-2.37-6-5.28-6H15.84c-2.91,0-5.28,2.71-5.28,6V142.65H73.93Zm42.24,30.17c0-3.33-2.36-6-5.28-6H84.49v90.52h31.68ZM95.05,100.43h10.56V88.34H95.05Zm0,24.14h10.56V112.48H95.05Zm0-48.28h10.56V64.2H95.05Z"/></g></g><g id="Layer_2" data-name="Layer 2" class="cls-3"><line class="cls-5" x1="131.21" y1="31.77" x2="203.6" y2="31.77"/><rect class="cls-6" x="107.07" y="4" width="120.34" height="75.92"/><line class="cls-5" x1="131.47" y1="56.86" x2="203.6" y2="56.86"/></g></svg>