<?xml version="1.0" encoding="utf-8"?>
<svg version="1.1" id="Layer_1" x="0px" y="0px" viewBox="0 0 337.559 337.559" style="enable-background:new 0 0 337.559 337.559;" xmlns="http://www.w3.org/2000/svg">
  <g>
    <g>
      <g>
        <path d="M337.559,67.704v-28.33c0-17.506-14.242-31.748-31.748-31.748h-54.572c-4.932-3.021-10.727-4.765-16.922-4.765H32.5 C14.58,2.86,0,17.44,0,35.36v266.838c0,17.921,14.58,32.5,32.5,32.5h201.816c6.196,0,11.992-1.745,16.925-4.767h54.569 c17.506,0,31.748-14.242,31.748-31.748v-28.33c0-9.715-4.391-18.42-11.287-24.248c6.896-5.828,11.287-14.533,11.287-24.248 v-28.331c0-9.715-4.391-18.42-11.287-24.248c6.896-5.828,11.287-14.533,11.287-24.248V116.2c0-9.715-4.391-18.42-11.287-24.248 C333.168,86.123,337.559,77.418,337.559,67.704z M251.816,302.198c0,9.649-7.851,17.5-17.5,17.5H32.5 c-9.649,0-17.5-7.851-17.5-17.5V35.36c0-9.649,7.851-17.5,17.5-17.5h201.816c9.649,0,17.5,7.851,17.5,17.5V302.198z M322.559,298.184c0,9.235-7.513,16.748-16.748,16.748h-41.595c1.673-3.912,2.601-8.216,2.601-12.733v-49.093h38.994 c9.235,0,16.748,7.513,16.748,16.748V298.184z M322.559,221.357c0,9.235-7.513,16.748-16.748,16.748h-38.994v-61.827h38.994 c9.235,0,16.748,7.513,16.748,16.748V221.357z M322.559,144.53c0,9.235-7.513,16.748-16.748,16.748h-38.994V99.451h38.994 c9.235,0,16.748,7.513,16.748,16.748V144.53z M322.559,67.704c0,9.235-7.513,16.748-16.748,16.748h-38.994V35.36 c0-4.518-0.929-8.822-2.602-12.735h41.596c9.235,0,16.748,7.513,16.748,16.748V67.704z" style="fill: rgb(253, 253, 253); paint-order: fill; stroke-linejoin: round; stroke: rgb(241, 109, 38); stroke-opacity: 0.13;"/>
        <rect x="40.413" y="230.024" width="185.991" height="15" style="fill: rgb(241, 109, 38);"/>
        <path d="M 66.891 206.201 L 199.926 206.201 C 202.189 206.201 204.331 205.18 205.755 203.421 C 207.179 201.662 207.733 199.355 207.262 197.142 C 203.667 180.235 194.191 164.966 180.788 154.122 C 189.57 143.304 194.477 129.684 194.477 115.6 C 194.477 81.926 167.081 54.53 133.407 54.53 C 99.733 54.53 72.337 81.926 72.337 115.6 C 72.337 129.684 77.245 143.304 86.026 154.122 C 72.624 164.966 63.148 180.234 59.554 197.142 C 59.083 199.355 59.637 201.663 61.061 203.421 C 62.486 205.18 64.628 206.201 66.891 206.201 Z M 101.343 161.584 C 103.331 160.339 110.542 158.234 110.751 155.897 C 110.96 153.56 104.144 151.26 102.409 149.681 C 92.83 140.963 87.337 128.541 87.337 115.6 C 87.337 90.197 108.004 69.53 133.407 69.53 C 158.81 69.53 179.477 90.197 179.477 115.6 C 179.477 128.541 173.983 140.963 164.405 149.681 C 162.67 151.26 152.754 153.842 152.963 156.179 C 153.172 158.516 163.483 160.338 165.471 161.584 C 176.625 168.573 185.206 179.074 189.891 191.202 L 76.923 191.202 C 81.608 179.074 90.189 168.571 101.343 161.584 Z" style="fill: rgb(241, 109, 38);"/>
        <rect x="63.83" y="259.688" width="139.156" height="15" style="fill: rgb(241, 109, 38);"/>
      </g>
    </g>
  </g>
  <g/>
  <g/>
  <g/>
  <g/>
  <g/>
  <g/>
  <g/>
  <g/>
  <g/>
  <g/>
  <g/>
  <g/>
  <g/>
  <g/>
  <g/>
</svg>