<?xml version="1.0" encoding="utf-8"?>
<svg version="1.1" id="Layer_1" x="0px" y="0px" viewBox="196.76 112.434 426.078 352.89" style="enable-background:new 0 0 792 612;" xmlns="http://www.w3.org/2000/svg">
  <style type="text/css">
	.st0{fill:#F16D26;}
	.st1{fill:#FFFFFF;}
</style>
  <g>
    <path class="st0" d="M269.9,240.1c0.5,1.9-0.8,3.8-2.9,3.8h-10.7c-2.4,0-4.5-1.6-5.1-3.8l-11.5-42.6c-0.3-1-1.1-1.6-2.1-1.6h-3.7 c-0.8,0-1.6,0.8-1.6,1.6v42.4c0,2.2-1.8,4-4,4h-11.2c-2.2,0-4-1.8-4-4V132.3c0-2.2,1.8-4,4-4H243c22.4,0,26.9,14.9,26.9,34.6 c0,18.1-3.7,25-12.5,29.6c-0.8,0.3-1.3,1.3-1,2.2L269.9,240.1z M232.3,178.9c0,0.8,0.8,1.6,1.6,1.6h5.9c8.6,0,11.2-4,11.2-18.1 c0-14.1-2.6-18.1-11.2-18.1h-5.9c-0.8,0-1.6,0.8-1.6,1.6V178.9z"/>
    <path class="st0" d="M358.2,179.1c11.9,11.7,21,21.6,21,37.5c0,17.9-11.7,29.3-28.5,29.3c-17.6,0-28.5-12.3-28.5-29.5v-8 c0-2.2,1.8-4,4-4h9.8c2.2,0,4,1.8,4,4v6.6c0,9,3,14.1,10.6,14.1c5.1,0,10.3-2.4,10.3-11.1c0-10.7-8-17.9-17.8-27.2 c-9.6-9.3-20-19.9-20-36.4c0-14.7,8.2-28,27.7-28c16.8,0,27.1,9.8,27.1,31.4v3.8c0,1.9-1.6,3.5-3.5,3.5H363c-1.6,0-3-1.4-3-3v-3.4 c0-11.7-3.2-15.9-9.3-15.9c-6.4,0-9.3,4.8-9.3,10.7C341.4,162.6,348.1,169.1,358.2,179.1z"/>
    <path class="st0" d="M401.5,128.3c2.2,0,4,1.8,4,4v43.2c0,0.3,0.5,0.5,0.6,0.2l18.1-43.7c1-2.2,3.2-3.7,5.6-3.7h10.9 c1.9,0,3.2,1.9,2.4,3.7l-17.8,41c-0.3,0.8-0.5,2.1-0.2,3l20,64.1c0.5,1.9-0.8,3.8-2.9,3.8h-11.5c-2.4,0-4.5-1.6-5.1-3.8l-12.8-45.8 c-0.2-0.6-1-0.6-1.1-0.2l-5.6,12c-0.3,0.8-0.6,2.1-0.6,3v30.8c0,2.2-1.8,4-4,4h-11.1c-2.2,0-4-1.8-4-4V132.3c0-2.2,1.8-4,4-4H401.5 z"/>
    <g>
      <path class="st0" d="M291.4,376.4c0,2.2-1.8,4-4,4h-9.3c-2.2,0-4-1.8-4-4v-81.7c0-0.2-0.3-0.2-0.3,0l-15.4,81.7 c-0.5,2.4-2.6,4-4.8,4h-3.7c-2.2,0-4.3-1.8-4.8-4l-14.9-81.5c0-0.2-0.3-0.2-0.3,0v81.5c0,2.2-1.8,4-4,4h-8.8c-2.2,0-4-1.8-4-4 V268.8c0-2.2,1.8-4,4-4h17.6c2.2,0,4.3,1.6,4.8,4l12.5,66.8c0.2,0.3,0.5,0.3,0.6,0l12.7-66.8c0.5-2.4,2.6-4,4.8-4h17.3 c2.2,0,4,1.8,4,4V376.4z"/>
      <path class="st0" d="M322.5,264.8c2.2,0,4,1.8,4,4v107.6c0,2.2-1.8,4-4,4h-11.1c-2.2,0-4-1.8-4-4V268.8c0-2.2,1.8-4,4-4H322.5z"/>
      <path class="st0" d="M401.4,268.8v107.6c0,2.3-1.8,4-4,4h-7.7c-2.4,0-4.5-1.6-5.4-3.8l-23.9-65.8c0.5-0.2,0.9-0.5,1.2-0.9 c-0.4,0.4-0.7,0.7-1.2,0.9c0-0.3-0.5-0.2-0.5,0.2v48.8h5c2.8,0,4.2,3.4,2.2,5.4l-13.3,13.3c-1.2,1.2-3.2,1.2-4.4,0L336.1,365 c-2-2-0.6-5.4,2.2-5.4h4.3v-90.9c0-2.2,1.8-4,4-4h9.3c2.4,0,4.5,1.6,5.3,3.8l13.7,38l8.8,24.9c0,0.3,0.5,0.2,0.5-0.2v-62.6 c0-2.2,1.8-4,4-4h9.3C399.7,264.8,401.4,266.6,401.4,268.8z"/>
      <path class="st0" d="M547.1,275.9l-13.3,13.3c-2,2-5.4,0.6-5.4-2.2v-5H524c-0.8,0-1.6,0.8-1.6,1.6v92.9c0,2.2-1.8,4-4,4h-11 c-2.2,0-4-1.8-4-4v-92.9c0-0.8-0.8-1.6-1.6-1.6H487c-2.2,0-4-1.8-4-4v-9.1c0-2.2,1.8-4,4-4h41.4v-4.5c0-2.8,3.4-4.2,5.4-2.2 l13.3,13.3C548.4,272.6,548.4,274.6,547.1,275.9z"/>
      <path class="st0" d="M573.9,281.6c-0.8,0-1.6,0.8-1.6,1.6v27.7c0,0.8,0.8,1.6,1.6,1.6h16.8c2.2,0,4,1.8,4,4v8.2c0,2.2-1.8,4-4,4 h-16.8c-0.8,0-1.6,0.8-1.6,1.6v31.4c0,0.8,0.8,1.6,1.6,1.6H600c2.2,0,4,1.8,4,4v9.1c0,2.2-1.8,4-4,4h-42.8c-2.2,0-4-1.8-4-4V268.8 c0-2.2,1.8-4,4-4h41.5c2.2,0,4,1.8,4,4v8.8c0,2.2-1.8,4-4,4H573.9z"/>
    </g>
    <path class="st0" d="M481.6,183.6h-6.8v170.3c0,17.3-11.2,28.5-29,28.5s-29-11.2-29-28.5v-85.1c0-2.2,1.8-4,4-4H432 c2.2,0,4,1.8,4,4v85.5c0,6.1,2.1,11.2,9.8,11.2c7.7,0,9.8-5.1,9.8-11.2V183.6h-8c-3.6,0-5.3-4.3-2.8-6.8l17-17 c1.6-1.6,4.1-1.6,5.7,0l17,17C486.9,179.3,485.1,183.6,481.6,183.6z"/>
    <path class="st0" d="M481.6,183.6h-6.8v170.3c0,17.3-11.2,28.5-29,28.5s-29-11.2-29-28.5v-85.1c0-2.2,1.8-4,4-4H432 c2.2,0,4,1.8,4,4v85.5c0,6.1,2.1,11.2,9.8,11.2c7.7,0,9.8-5.1,9.8-11.2V183.6h-8c-3.6,0-5.3-4.3-2.8-6.8l17-17 c1.6-1.6,4.1-1.6,5.7,0l17,17C486.9,179.3,485.1,183.6,481.6,183.6z"/>
    <path class="st0" d="M312.9,152.9h-7.4v87c0,2.2-1.8,4-4,4h-11.1c-2.2,0-4-1.8-4-4v-87H279c-3.6,0-5.4-4.3-2.8-6.8l17-17 c1.6-1.6,4.1-1.6,5.7,0l17,17C318.3,148.6,316.5,152.9,312.9,152.9z"/>
  </g>
  <g>
    <path class="st1" d="M230.5,430.9c0-1.2-0.5-2.2-1.4-2.9c-0.9-0.7-2.6-1.3-4.9-1.8c-2.3-0.5-4.2-1.1-5.5-1.8s-2.4-1.5-3-2.5 s-1-2.1-1-3.4c0-2.2,0.9-4.1,2.8-5.6s4.2-2.3,7.2-2.3c3.1,0,5.5,0.8,7.4,2.4c1.9,1.6,2.8,3.6,2.8,6h-4.6c0-1.3-0.5-2.3-1.6-3.3 c-1.1-0.9-2.4-1.4-4-1.4c-1.7,0-3,0.4-3.9,1.1c-0.9,0.7-1.4,1.7-1.4,2.9c0,1.1,0.4,1.9,1.3,2.5c0.9,0.6,2.5,1.1,4.8,1.6 c2.3,0.5,4.2,1.1,5.6,1.8s2.5,1.6,3.2,2.6c0.7,1,1,2.2,1,3.7c0,2.4-1,4.3-2.9,5.8s-4.4,2.2-7.5,2.2c-2.2,0-4.1-0.4-5.7-1.1 c-1.7-0.8-3-1.8-3.9-3.2s-1.4-2.8-1.4-4.4h4.6c0.1,1.5,0.7,2.8,1.9,3.7c1.2,0.9,2.7,1.4,4.6,1.4c1.7,0,3.1-0.4,4.2-1.1 C229.9,433,230.5,432,230.5,430.9z"/>
    <path class="st1" d="M252.2,438.5c-3.6,0-6.6-1.2-8.9-3.6s-3.4-5.6-3.4-9.6v-0.8c0-2.7,0.5-5.1,1.5-7.2c1-2.1,2.4-3.7,4.3-4.9 s3.8-1.8,6-1.8c3.5,0,6.2,1.2,8.2,3.5c1.9,2.3,2.9,5.6,2.9,9.9v1.9h-18.2c0.1,2.7,0.8,4.8,2.3,6.4c1.5,1.6,3.4,2.5,5.7,2.5 c1.6,0,3-0.3,4.1-1s2.1-1.5,3-2.6l2.8,2.2C260.1,436.8,256.7,438.5,252.2,438.5z M251.7,414.4c-1.9,0-3.4,0.7-4.7,2 c-1.3,1.4-2,3.2-2.3,5.7h13.5v-0.3c-0.1-2.3-0.8-4.1-1.9-5.4C255.1,415,253.6,414.4,251.7,414.4z"/>
    <path class="st1" d="M273.1,438h-4.6v-38.2h4.6V438z"/>
    <path class="st1" d="M285.4,438h-4.6v-38.2h4.6V438z"/>
    <path class="st1" d="M297.1,411.1l0.1,3c2-2.3,4.6-3.5,8-3.5c3.8,0,6.3,1.4,7.7,4.3c0.9-1.3,2.1-2.3,3.5-3.1 c1.4-0.8,3.1-1.2,5.1-1.2c5.9,0,8.9,3.1,9,9.4v18h-4.6v-17.8c0-1.9-0.4-3.4-1.3-4.3c-0.9-1-2.4-1.4-4.4-1.4c-1.7,0-3.1,0.5-4.3,1.5 c-1.1,1-1.8,2.4-2,4.1V438h-4.6v-17.6c0-3.9-1.9-5.9-5.7-5.9c-3,0-5.1,1.3-6.2,3.9V438h-4.6v-26.9H297.1z"/>
    <path class="st1" d="M336.2,424.3c0-2.6,0.5-5,1.6-7.1s2.5-3.7,4.3-4.9s4-1.7,6.3-1.7c3.7,0,6.6,1.3,8.9,3.8 c2.3,2.5,3.4,5.9,3.4,10.1v0.3c0,2.6-0.5,5-1.5,7.1c-1,2.1-2.4,3.7-4.3,4.9c-1.9,1.2-4,1.7-6.4,1.7c-3.6,0-6.6-1.3-8.9-3.8 c-2.3-2.5-3.4-5.9-3.4-10.1V424.3z M340.8,424.8c0,3,0.7,5.4,2.1,7.2c1.4,1.8,3.2,2.7,5.6,2.7c2.3,0,4.2-0.9,5.6-2.7 c1.4-1.8,2.1-4.4,2.1-7.7c0-3-0.7-5.3-2.1-7.2c-1.4-1.8-3.3-2.7-5.6-2.7c-2.3,0-4.1,0.9-5.5,2.7S340.8,421.5,340.8,424.8z"/>
    <path class="st1" d="M379.5,415.2c-0.7-0.1-1.5-0.2-2.3-0.2c-3,0-5.1,1.3-6.1,3.9V438h-4.6v-26.9h4.5l0.1,3.1 c1.5-2.4,3.6-3.6,6.4-3.6c0.9,0,1.6,0.1,2,0.3V415.2z"/>
    <path class="st1" d="M394.4,438.5c-3.6,0-6.6-1.2-8.9-3.6s-3.4-5.6-3.4-9.6v-0.8c0-2.7,0.5-5.1,1.5-7.2c1-2.1,2.4-3.7,4.3-4.9 s3.8-1.8,6-1.8c3.5,0,6.2,1.2,8.2,3.5c1.9,2.3,2.9,5.6,2.9,9.9v1.9h-18.2c0.1,2.7,0.8,4.8,2.3,6.4c1.5,1.6,3.4,2.5,5.7,2.5 c1.6,0,3-0.3,4.1-1s2.1-1.5,3-2.6l2.8,2.2C402.3,436.8,398.9,438.5,394.4,438.5z M393.9,414.4c-1.9,0-3.4,0.7-4.7,2 c-1.3,1.4-2,3.2-2.3,5.7h13.5v-0.3c-0.1-2.3-0.8-4.1-1.9-5.4C397.3,415,395.8,414.4,393.9,414.4z"/>
    <path class="st1" d="M410.3,435.6c0-0.8,0.2-1.5,0.7-2c0.5-0.5,1.2-0.8,2.1-0.8s1.7,0.3,2.2,0.8c0.5,0.5,0.7,1.2,0.7,2 c0,0.8-0.2,1.4-0.7,1.9c-0.5,0.5-1.2,0.8-2.2,0.8s-1.7-0.3-2.1-0.8C410.6,437,410.3,436.4,410.3,435.6z"/>
    <path class="st1" d="M446.4,424.8c0,4.1-0.9,7.4-2.8,9.9s-4.4,3.7-7.6,3.7c-3.4,0-6-1.2-7.9-3.6l-0.2,3.1h-4.2v-38.2h4.6v14.3 c1.9-2.3,4.4-3.5,7.7-3.5s5.8,1.2,7.7,3.7c1.9,2.5,2.8,5.9,2.8,10.1V424.8z M441.8,424.3c0-3.1-0.6-5.6-1.8-7.3 c-1.2-1.7-3-2.6-5.2-2.6c-3,0-5.2,1.4-6.5,4.2v11.6c1.4,2.8,3.6,4.2,6.6,4.2c2.2,0,3.9-0.9,5.1-2.6 C441.2,430.3,441.8,427.8,441.8,424.3z"/>
    <path class="st1" d="M452.3,404c0-0.7,0.2-1.4,0.7-1.9s1.1-0.8,2-0.8s1.6,0.3,2,0.8s0.7,1.1,0.7,1.9s-0.2,1.4-0.7,1.9 c-0.5,0.5-1.1,0.7-2,0.7s-1.6-0.2-2-0.7C452.5,405.3,452.3,404.7,452.3,404z M457.2,438h-4.6v-26.9h4.6V438z"/>
    <path class="st1" d="M469,411.1l0.1,3.4c2.1-2.6,4.7-3.9,8.1-3.9c5.7,0,8.6,3.2,8.6,9.6V438h-4.6v-17.8c0-1.9-0.5-3.4-1.3-4.3 c-0.9-0.9-2.2-1.4-4.1-1.4c-1.5,0-2.8,0.4-3.9,1.2s-2,1.8-2.6,3.1V438h-4.6v-26.9H469z"/>
    <path class="st1" d="M491.6,424.3c0-4.1,1-7.5,2.9-10c2-2.5,4.5-3.8,7.7-3.8c3.2,0,5.6,1.1,7.5,3.2v-14h4.6V438h-4.2l-0.2-2.9 c-1.8,2.3-4.4,3.4-7.7,3.4c-3.1,0-5.7-1.3-7.6-3.8c-2-2.6-2.9-5.9-2.9-10V424.3z M496.2,424.8c0,3.1,0.6,5.4,1.9,7.2 c1.3,1.7,3,2.6,5.2,2.6c2.9,0,5-1.3,6.4-3.9v-12.4c-1.4-2.5-3.5-3.8-6.3-3.8c-2.3,0-4,0.9-5.3,2.6 C496.8,418.9,496.2,421.4,496.2,424.8z"/>
    <path class="st1" d="M523.7,438v-23.4h-4.3v-3.6h4.3v-2.8c0-2.9,0.8-5.1,2.3-6.7c1.5-1.6,3.7-2.4,6.5-2.4c1.1,0,2.1,0.1,3.2,0.4 l-0.2,3.7c-0.8-0.1-1.6-0.2-2.5-0.2c-1.5,0-2.6,0.4-3.5,1.3s-1.2,2.1-1.2,3.8v2.8h5.7v3.6h-5.7V438H523.7z"/>
    <path class="st1" d="M555.7,438c-0.3-0.5-0.5-1.5-0.6-2.8c-2.1,2.2-4.7,3.3-7.7,3.3c-2.7,0-4.8-0.8-6.5-2.3 c-1.7-1.5-2.5-3.4-2.5-5.7c0-2.8,1.1-5,3.2-6.5s5.1-2.3,9-2.3h4.5v-2.1c0-1.6-0.5-2.9-1.4-3.8c-1-1-2.4-1.4-4.3-1.4 c-1.6,0-3,0.4-4.1,1.2c-1.1,0.8-1.7,1.8-1.7,3h-4.6c0-1.3,0.5-2.6,1.4-3.9c1-1.3,2.2-2.2,3.9-3c1.6-0.7,3.4-1.1,5.4-1.1 c3.1,0,5.5,0.8,7.3,2.3s2.7,3.7,2.7,6.4v12.4c0,2.5,0.3,4.4,0.9,5.9v0.4H555.7z M548.1,434.5c1.4,0,2.8-0.4,4.1-1.1 c1.3-0.7,2.2-1.7,2.8-2.9v-5.5h-3.6c-5.6,0-8.5,1.7-8.5,5c0,1.4,0.5,2.6,1.4,3.4C545.4,434.1,546.6,434.5,548.1,434.5z"/>
    <path class="st1" d="M582.5,430.9c0-1.2-0.5-2.2-1.4-2.9c-0.9-0.7-2.6-1.3-4.9-1.8c-2.3-0.5-4.2-1.1-5.5-1.8 c-1.4-0.7-2.4-1.5-3-2.5c-0.7-1-1-2.1-1-3.4c0-2.2,0.9-4.1,2.8-5.6c1.9-1.5,4.2-2.3,7.2-2.3c3.1,0,5.5,0.8,7.4,2.4 c1.9,1.6,2.8,3.6,2.8,6h-4.6c0-1.3-0.5-2.3-1.6-3.3c-1.1-0.9-2.4-1.4-4-1.4c-1.7,0-3,0.4-3.9,1.1c-0.9,0.7-1.4,1.7-1.4,2.9 c0,1.1,0.4,1.9,1.3,2.5c0.9,0.6,2.5,1.1,4.8,1.6c2.3,0.5,4.2,1.1,5.6,1.8c1.4,0.7,2.5,1.6,3.2,2.6c0.7,1,1,2.2,1,3.7 c0,2.4-1,4.3-2.9,5.8s-4.4,2.2-7.5,2.2c-2.2,0-4.1-0.4-5.7-1.1c-1.7-0.8-3-1.8-3.9-3.2s-1.4-2.8-1.4-4.4h4.6 c0.1,1.5,0.7,2.8,1.9,3.7c1.2,0.9,2.7,1.4,4.6,1.4c1.7,0,3.1-0.4,4.2-1.1C582,433,582.5,432,582.5,430.9z"/>
    <path class="st1" d="M599.4,404.6v6.5h5v3.6h-5v16.7c0,1.1,0.2,1.9,0.7,2.4c0.4,0.5,1.2,0.8,2.3,0.8c0.5,0,1.3-0.1,2.2-0.3v3.7 c-1.2,0.3-2.4,0.5-3.5,0.5c-2.1,0-3.6-0.6-4.7-1.9s-1.6-3-1.6-5.3v-16.7h-4.9v-3.6h4.9v-6.5H599.4z"/>
  </g>
</svg>