<?xml version="1.0" encoding="utf-8"?>
<svg version="1.1" preserveAspectRatio="xMidYMid meet" viewBox="130.365 -21.578 477.754 266.038" width="627" height="400" xmlns="http://www.w3.org/2000/svg" xmlns:bx="https://boxy-svg.com">
  <defs>
    <path d="M108.79 182.6C107.19 182.6 94.38 182.6 92.78 182.6C89.19 182.6 86.05 180.33 85.15 177.2C83.43 171.15 69.67 122.73 67.95 116.67C67.5 115.25 66.31 114.4 64.81 114.4C64.26 114.4 59.83 114.4 59.28 114.4C58.08 114.4 56.88 115.54 56.88 116.67C56.88 122.7 56.88 170.9 56.88 176.92C56.88 180.05 54.19 182.6 50.9 182.6C49.23 182.6 35.82 182.6 34.15 182.6C30.86 182.6 28.17 180.05 28.17 176.92C28.17 161.63 28.17 39.32 28.17 24.03C28.17 20.91 30.86 18.35 34.15 18.35C38.02 18.35 69.01 18.35 72.89 18.35C106.39 18.35 113.12 39.52 113.12 67.51C113.12 93.23 107.59 103.03 94.43 109.57C93.23 110 92.48 111.42 92.93 112.7C94.28 117 101.01 138.5 113.12 177.2C112.33 180.8 110.88 182.6 108.79 182.6ZM59.28 92.52C60.16 92.52 67.22 92.52 68.1 92.52C80.97 92.52 84.85 86.84 84.85 66.8C84.85 46.77 80.97 41.08 68.1 41.08C67.22 41.08 60.16 41.08 59.28 41.08C58.08 41.08 56.88 42.22 56.88 43.36C56.88 46.48 56.88 62.11 56.88 90.25C57.68 91.76 58.48 92.52 59.28 92.52Z" id="b6XQyxRed4"/>
    <path d="M276.61 143.81C276.61 169.25 259.11 185.45 233.98 185.45C207.65 185.45 191.35 167.97 191.35 143.53C191.35 142.39 191.35 133.3 191.35 132.16C191.35 129.04 194.04 126.48 197.33 126.48C198.8 126.48 210.53 126.48 211.99 126.48C215.28 126.48 217.98 129.04 217.98 132.16C217.98 133.1 217.98 140.6 217.98 141.54C217.98 154.33 222.46 161.57 233.83 161.57C241.46 161.57 249.24 158.16 249.24 145.8C249.24 130.6 237.27 120.37 222.61 107.15C208.25 93.94 192.7 78.88 192.7 55.43C192.7 34.55 204.96 15.65 234.13 15.65C259.26 15.65 274.66 29.57 274.66 60.26C274.66 60.8 274.66 65.12 274.66 65.66C274.66 68.36 272.27 70.64 269.43 70.64C267.72 70.64 254.08 70.64 252.38 70.64C249.98 70.64 247.89 68.65 247.89 66.37C247.89 65.89 247.89 62.03 247.89 61.54C247.89 44.92 243.1 38.95 233.98 38.95C224.41 38.95 220.07 45.77 220.07 54.15C220.07 67.08 230.09 76.46 245.2 90.53C263 107.15 276.61 121.22 276.61 143.81Z" id="bqKHdosv3"/>
    <path d="M315.95 24.03C315.95 30.17 315.95 79.28 315.95 85.41C315.95 85.84 316.69 86.12 316.84 85.7C319.55 79.49 341.21 29.81 343.92 23.61C345.41 20.48 348.7 18.35 352.29 18.35C353.92 18.35 366.97 18.35 368.6 18.35C371.44 18.35 373.38 21.05 372.19 23.61C369.52 29.43 348.22 76.04 345.56 81.86C345.11 83 344.81 84.85 345.26 86.12C348.25 95.23 372.19 168.1 375.18 177.2C375.93 179.9 373.98 182.6 370.84 182.6C369.12 182.6 355.36 182.6 353.64 182.6C350.05 182.6 346.91 180.33 346.01 177.2C344.1 170.7 328.78 118.63 326.87 112.13C326.57 111.27 325.37 111.27 325.22 111.84C324.38 113.55 317.68 127.19 316.84 128.89C316.4 130.03 315.95 131.88 315.95 133.16C315.95 137.53 315.95 172.54 315.95 176.92C315.95 180.05 313.25 182.6 309.96 182.6C308.3 182.6 295.02 182.6 293.36 182.6C290.07 182.6 287.38 180.05 287.38 176.92C287.38 161.63 287.38 39.32 287.38 24.03C287.38 20.91 290.07 18.35 293.36 18.35C294.47 18.35 300 18.35 309.96 18.35C313.95 20.05 315.95 21.95 315.95 24.03Z" id="acNE47QAv"/>
    <path d="M139.3 376.7C137.91 376.7 126.78 376.7 125.39 376.7C122.1 376.7 119.41 374.14 119.41 371.01C119.41 359.41 119.41 266.54 119.41 254.93C119.41 254.64 118.96 254.64 118.96 254.93C116.65 266.54 98.23 359.41 95.92 371.01C95.17 374.42 92.03 376.7 88.74 376.7C88.19 376.7 83.76 376.7 83.21 376.7C79.92 376.7 76.78 374.14 76.03 371.01C73.8 359.43 55.97 266.79 53.74 255.21C53.74 254.93 53.29 254.93 53.29 255.21C53.29 266.79 53.29 359.43 53.29 371.01C53.29 374.14 50.6 376.7 47.31 376.7C45.99 376.7 35.46 376.7 34.15 376.7C30.86 376.7 28.17 374.14 28.17 371.01C28.17 355.71 28.17 233.29 28.17 217.98C28.17 214.86 30.86 212.3 34.15 212.3C36.78 212.3 57.84 212.3 60.47 212.3C63.76 212.3 66.91 214.57 67.65 217.98C69.52 227.48 84.48 303.41 86.35 312.9C86.65 313.33 87.1 313.33 87.25 312.9C89.15 303.41 104.34 227.48 106.24 217.98C106.99 214.57 110.13 212.3 113.42 212.3C116.01 212.3 136.71 212.3 139.3 212.3C142.59 212.3 145.28 214.86 145.28 217.98C145.28 228.19 145.28 279.2 145.28 371.01C143.49 374.8 141.49 376.7 139.3 376.7Z" id="aGT101PV3"/>
    <path d="M197.78 217.98C197.78 233.27 197.78 355.58 197.78 370.87C197.78 374 195.09 376.56 191.8 376.56C190.14 376.56 176.86 376.56 175.2 376.56C171.91 376.56 169.21 374 169.21 370.87C169.21 355.58 169.21 233.27 169.21 217.98C169.21 214.86 171.91 212.3 175.2 212.3C176.3 212.3 181.84 212.3 191.8 212.3C195.79 214.01 197.78 215.9 197.78 217.98Z" id="hrx3gbBsK"/>
    <path d="M309.81 370.87C309.81 374.14 307.12 376.56 303.83 376.56C302.68 376.56 293.47 376.56 292.31 376.56C288.72 376.56 285.58 374.28 284.24 371.16C280.66 361.81 252.06 287.01 248.49 277.66C249.24 277.38 249.83 276.95 250.28 276.38C249.68 276.95 249.24 277.38 248.49 277.66C248.49 277.24 247.74 277.38 247.74 277.95C247.74 282.57 247.74 305.68 247.74 347.29C252.23 347.29 254.72 347.29 255.22 347.29C259.41 347.29 261.5 352.12 258.51 354.96C256.54 356.83 240.74 371.84 238.77 373.71C236.97 375.42 233.98 375.42 232.18 373.71C230.2 371.82 214.28 356.71 212.29 354.82C209.3 351.97 211.39 347.14 215.58 347.14C216.01 347.14 218.15 347.14 222.01 347.14C222.01 269.65 222.01 226.59 222.01 217.98C222.01 214.86 224.71 212.3 228 212.3C229.39 212.3 240.52 212.3 241.91 212.3C245.5 212.3 248.64 214.57 249.83 217.7C251.2 221.3 258.03 239.3 270.33 271.69C278.22 292.92 282.61 304.72 283.49 307.07C283.49 307.5 284.24 307.36 284.24 306.79C284.24 297.9 284.24 226.74 284.24 217.84C284.24 214.72 286.93 212.16 290.22 212.16C291.61 212.16 302.74 212.16 304.13 212.16C307.27 212.3 309.81 214.86 309.81 217.98C309.81 248.56 309.81 355.58 309.81 370.87Z" id="d7VPA1rcVK"/>
    <path d="M507.85 246.97C504.86 249.81 499.77 247.82 499.77 243.84C499.77 243.37 499.77 241 499.77 236.74C495.82 236.74 493.63 236.74 493.19 236.74C492 236.74 490.8 237.88 490.8 239.01C490.8 252.21 490.8 357.81 490.8 371.01C490.8 374.14 488.11 376.7 484.82 376.7C483.17 376.7 470.01 376.7 468.36 376.7C465.07 376.7 462.38 374.14 462.38 371.01C462.38 357.81 462.38 252.21 462.38 239.01C462.38 237.88 461.18 236.74 459.99 236.74C457.77 236.74 440.06 236.74 437.85 236.74C434.56 236.74 431.87 234.18 431.87 231.06C431.87 229.76 431.87 219.42 431.87 218.13C431.87 215 434.56 212.44 437.85 212.44C441.98 212.44 462.62 212.44 499.77 212.44C499.77 208.61 499.77 206.47 499.77 206.05C499.77 202.07 504.86 200.08 507.85 202.92C509.84 204.81 525.75 219.93 527.74 221.82C529.69 223.53 529.69 226.37 527.74 228.07C523.76 231.85 509.84 245.08 507.85 246.97Z" id="b4JxQN61V2"/>
    <path d="M565.44 238.59C565.44 242.52 565.44 274.01 565.44 277.95C565.44 279.08 566.63 280.22 567.83 280.22C570.34 280.22 590.45 280.22 592.96 280.22C596.25 280.22 598.94 282.78 598.94 285.9C598.94 287.07 598.94 296.39 598.94 297.55C598.94 300.68 596.25 303.24 592.96 303.24C590.45 303.24 570.34 303.24 567.83 303.24C566.63 303.24 565.44 304.37 565.44 305.51C565.44 309.97 565.44 345.67 565.44 350.13C565.44 351.26 566.63 352.4 567.83 352.4C571.73 352.4 602.96 352.4 606.87 352.4C610.16 352.4 612.85 354.96 612.85 358.08C612.85 359.38 612.85 369.72 612.85 371.01C612.85 374.14 610.16 376.7 606.87 376.7C600.47 376.7 549.25 376.7 542.85 376.7C539.56 376.7 536.87 374.14 536.87 371.01C536.87 355.71 536.87 233.29 536.87 217.98C536.87 214.86 539.56 212.3 542.85 212.3C549.06 212.3 598.72 212.3 604.92 212.3C608.21 212.3 610.91 214.86 610.91 217.98C610.91 219.23 610.91 229.24 610.91 230.49C610.91 233.61 608.21 236.17 604.92 236.17C602.45 236.17 590.09 236.17 567.83 236.17C566.23 237.02 565.44 237.83 565.44 238.59Z" id="h1QyCzPLsw"/>
    <path d="M419.6 96.92C419.6 242.11 419.6 322.77 419.6 338.9C419.6 363.48 402.85 379.4 376.22 379.4C349.6 379.4 332.85 363.48 332.85 338.9C332.85 326.81 332.85 230.08 332.85 217.98C332.85 214.86 335.54 212.3 338.83 212.3C340.51 212.3 353.91 212.3 355.58 212.3C358.87 212.3 361.57 214.86 361.57 217.98C361.57 230.15 361.57 327.45 361.57 339.61C361.57 348.28 364.71 355.53 376.22 355.53C387.74 355.53 390.88 348.28 390.88 339.61C390.88 323.43 390.88 242.54 390.88 96.92C383.7 96.92 379.71 96.92 378.92 96.92C373.53 96.92 370.99 90.81 374.73 87.26C377.27 84.85 397.61 65.52 400.16 63.11C402.55 60.83 406.29 60.83 408.68 63.11C411.23 65.52 431.57 84.85 434.11 87.26C437.7 90.81 435.01 96.92 429.77 96.92C428.42 96.92 425.03 96.92 419.6 96.92Z" id="a1ytXIIsOn"/>
    <path d="M419.6 96.92C419.6 242.11 419.6 322.77 419.6 338.9C419.6 363.48 402.85 379.4 376.22 379.4C349.6 379.4 332.85 363.48 332.85 338.9C332.85 326.81 332.85 230.08 332.85 217.98C332.85 214.86 335.54 212.3 338.83 212.3C340.51 212.3 353.91 212.3 355.58 212.3C358.87 212.3 361.57 214.86 361.57 217.98C361.57 230.15 361.57 327.45 361.57 339.61C361.57 348.28 364.71 355.53 376.22 355.53C387.74 355.53 390.88 348.28 390.88 339.61C390.88 323.43 390.88 242.54 390.88 96.92C383.7 96.92 379.71 96.92 378.92 96.92C373.53 96.92 370.99 90.81 374.73 87.26C377.27 84.85 397.61 65.52 400.16 63.11C402.55 60.83 406.29 60.83 408.68 63.11C411.23 65.52 431.57 84.85 434.11 87.26C437.7 90.81 435.01 96.92 429.77 96.92C428.42 96.92 425.03 96.92 419.6 96.92Z" id="arUEYAiQt"/>
    <path d="M166.37 53.3C166.37 127.47 166.37 168.68 166.37 176.92C166.37 180.05 163.68 182.6 160.39 182.6C158.73 182.6 145.45 182.6 143.79 182.6C140.5 182.6 137.8 180.05 137.8 176.92C137.8 168.68 137.8 127.47 137.8 53.3C131.16 53.3 127.47 53.3 126.73 53.3C121.35 53.3 118.66 47.19 122.55 43.64C125.09 41.22 145.43 21.9 147.97 19.48C150.37 17.21 154.11 17.21 156.5 19.48C159.04 21.9 179.38 41.22 181.93 43.64C185.52 47.19 182.83 53.3 177.44 53.3C175.96 53.3 172.28 53.3 166.37 53.3Z" id="d3JKO2chKe"/>
  </defs>
  <path d="M 246.066 191.21 C 244.466 191.21 231.656 191.21 230.056 191.21 C 226.466 191.21 223.326 188.94 222.426 185.81 C 220.706 179.76 206.946 131.34 205.226 125.28 C 204.776 123.86 203.586 123.01 202.086 123.01 C 201.536 123.01 197.106 123.01 196.556 123.01 C 195.356 123.01 194.156 124.15 194.156 125.28 C 194.156 131.31 194.156 179.51 194.156 185.53 C 194.156 188.66 191.466 191.21 188.176 191.21 C 186.506 191.21 173.096 191.21 171.426 191.21 C 168.136 191.21 165.446 188.66 165.446 185.53 C 165.446 170.24 165.446 47.93 165.446 32.64 C 165.446 29.52 168.136 26.96 171.426 26.96 C 175.296 26.96 206.286 26.96 210.166 26.96 C 243.666 26.96 250.396 48.13 250.396 76.12 C 250.396 101.84 244.866 111.64 231.706 118.18 C 230.506 118.61 229.756 120.03 230.206 121.31 C 231.556 125.61 238.286 147.11 250.396 185.81 C 249.606 189.41 248.156 191.21 246.066 191.21 Z M 196.556 101.13 C 197.436 101.13 204.496 101.13 205.376 101.13 C 218.246 101.13 222.126 95.45 222.126 75.41 C 222.126 55.38 218.246 49.69 205.376 49.69 C 204.496 49.69 197.436 49.69 196.556 49.69 C 195.356 49.69 194.156 50.83 194.156 51.97 C 194.156 55.09 194.156 70.72 194.156 98.86 C 194.956 100.37 195.756 101.13 196.556 101.13 Z" opacity="1" fill="#f16d26" fill-opacity="1"/>
  <path d="M 429.29 134.956 C 429.702 147.628 405.919 155.695 371.391 155.695 C 335.217 155.695 312.54 146.99 312.145 134.817 C 312.127 134.25 311.981 129.722 311.964 129.153 C 311.913 127.599 315.567 126.325 320.086 126.325 C 322.106 126.325 338.223 126.325 340.228 126.325 C 344.748 126.325 348.5 127.599 348.549 129.153 C 348.566 129.623 348.687 133.358 348.702 133.825 C 348.907 140.196 355.179 143.801 370.803 143.801 C 381.283 143.801 391.918 142.103 391.718 135.948 C 391.474 128.378 374.863 123.281 354.51 116.698 C 334.565 110.118 312.959 102.616 312.582 90.936 C 312.244 80.536 328.783 71.123 368.862 71.123 C 403.388 71.123 424.77 78.057 425.263 93.342 C 425.273 93.61 425.343 95.763 425.352 96.032 C 425.395 97.378 422.147 98.512 418.247 98.512 C 415.898 98.512 397.157 98.512 394.822 98.512 C 391.525 98.512 388.621 97.521 388.584 96.386 C 388.576 96.146 388.515 94.224 388.507 93.979 C 388.242 85.701 381.561 82.728 369.032 82.728 C 355.882 82.728 350.03 86.124 350.164 90.299 C 350.372 96.739 364.289 101.41 385.277 108.42 C 410.004 116.698 428.928 123.705 429.29 134.956 Z" opacity="1" fill="#f16d26" fill-opacity="1" style="" transform="matrix(0.999171, 0.040698, -0.040698, 0.999171, 4.939801, -14.989571)" bx:origin="0.5 0.505"/>
  <g transform="matrix(1, 0, 0, 1, 98.898239, -5.394231)">
    <path d="M 419.11 40.553 C 419.11 46.693 419.11 95.803 419.11 101.933 C 419.11 102.363 419.85 102.643 420 102.223 C 422.71 96.013 444.37 46.333 447.08 40.133 C 448.57 37.003 451.86 34.873 455.45 34.873 C 457.08 34.873 470.13 34.873 471.76 34.873 C 474.6 34.873 476.54 37.573 475.35 40.133 C 472.68 45.953 451.38 92.563 448.72 98.383 C 448.27 99.523 447.97 101.373 448.42 102.643 C 451.41 111.753 475.35 184.623 478.34 193.723 C 479.09 196.423 477.14 199.123 474 199.123 C 472.28 199.123 458.52 199.123 456.8 199.123 C 453.21 199.123 450.07 196.853 449.17 193.723 C 447.26 187.223 431.94 135.153 430.03 128.653 C 429.73 127.793 428.53 127.793 428.38 128.363 C 427.54 130.073 420.84 143.713 420 145.413 C 419.56 146.553 419.11 148.403 419.11 149.683 C 419.11 154.053 419.11 189.063 419.11 193.443 C 419.11 196.573 416.41 199.123 413.12 199.123 C 411.46 199.123 398.18 199.123 396.52 199.123 C 393.23 199.123 390.54 196.573 390.54 193.443 C 390.54 178.153 390.54 55.843 390.54 40.553 C 390.54 37.433 393.23 34.873 396.52 34.873 C 397.63 34.873 403.16 34.873 413.12 34.873 C 417.11 36.573 419.11 38.473 419.11 40.553 Z" opacity="1" fill="#f16d26" fill-opacity="1"/>
    <g/>
  </g>
  <g>
    <g/>
  </g>
  <g/>
  <g transform="matrix(0.699624, 0, 0, 0.945933, 264.328186, 12.639254)" style="">
    <path d="M 163.37 53.363 C 163.37 123.09 163.37 161.831 163.37 169.578 C 163.37 172.52 160.68 174.918 157.39 174.918 C 155.73 174.918 142.45 174.918 140.79 174.918 C 137.5 174.918 134.8 172.52 134.8 169.578 C 134.8 161.831 134.8 123.09 134.8 53.363 C 128.16 53.363 124.47 53.363 123.73 53.363 C 118.35 53.363 115.66 47.619 119.55 44.281 C 122.09 42.006 141.983 24.683 144.523 22.408 C 146.923 20.274 151.11 21.113 153.5 23.247 C 156.04 25.522 176.38 42.006 178.93 44.281 C 182.52 47.619 179.83 53.363 174.44 53.363 C 172.96 53.363 169.28 53.363 163.37 53.363 Z" opacity="1" fill="#f16d26" fill-opacity="1" style=""/>
    <g/>
  </g>
  <path d="M 369.186 109.149 m -105.192 0 a 105.192 104.74 0 1 0 210.384 0 a 105.192 104.74 0 1 0 -210.384 0 Z M 369.186 109.149 m -77.808 0 a 77.808 78.631 0 0 1 155.616 0 a 77.808 78.631 0 0 1 -155.616 0 Z" style="fill: rgb(241, 109, 38); stroke: rgba(0, 0, 0, 0);" bx:shape="ring 369.186 109.149 77.808 78.631 105.192 104.74 1@e84a25c9"/>
  <rect x="362.53" y="-11.803" width="14.155" height="26.972" style="stroke: rgb(241, 109, 38); fill: rgb(241, 109, 38);" transform="matrix(0.867087, -0.498157, 0.498157, 0.867087, -10.741839, 202.448334)" rx="3.427" ry="3.427"/>
  <rect x="362.53" y="-11.803" width="14.155" height="26.972" style="stroke: rgb(241, 109, 38); fill: rgb(241, 109, 38);" transform="matrix(0.804371, 0.594128, -0.594128, 0.804371, 132.839966, -202.631088)" rx="3.385" ry="3.385"/>
  <rect x="1058.022" y="-12.332" width="41.311" height="28.183" style="stroke: rgb(241, 109, 38); fill: rgb(241, 109, 38);" transform="matrix(0.999988, -0.00487, 0.026078, 0.999885, -710.973999, 3.107423)" rx="3.427" ry="3.427"/>
</svg>