<?xml version="1.0" encoding="utf-8"?>
<svg version="1.1" id="Layer_1" x="0px" y="0px" viewBox="195.226 108.856 430.167 353.402" style="enable-background:new 0 0 792 612;" xmlns="http://www.w3.org/2000/svg">
  <defs>
    <path d="M108.79 182.6C107.19 182.6 94.38 182.6 92.78 182.6C89.19 182.6 86.05 180.33 85.15 177.2C83.43 171.15 69.67 122.73 67.95 116.67C67.5 115.25 66.31 114.4 64.81 114.4C64.26 114.4 59.83 114.4 59.28 114.4C58.08 114.4 56.88 115.54 56.88 116.67C56.88 122.7 56.88 170.9 56.88 176.92C56.88 180.05 54.19 182.6 50.9 182.6C49.23 182.6 35.82 182.6 34.15 182.6C30.86 182.6 28.17 180.05 28.17 176.92C28.17 161.63 28.17 39.32 28.17 24.03C28.17 20.91 30.86 18.35 34.15 18.35C38.02 18.35 69.01 18.35 72.89 18.35C106.39 18.35 113.12 39.52 113.12 67.51C113.12 93.23 107.59 103.03 94.43 109.57C93.23 110 92.48 111.42 92.93 112.7C94.28 117 101.01 138.5 113.12 177.2C112.33 180.8 110.88 182.6 108.79 182.6ZM59.28 92.52C60.16 92.52 67.22 92.52 68.1 92.52C80.97 92.52 84.85 86.84 84.85 66.8C84.85 46.77 80.97 41.08 68.1 41.08C67.22 41.08 60.16 41.08 59.28 41.08C58.08 41.08 56.88 42.22 56.88 43.36C56.88 46.48 56.88 62.11 56.88 90.25C57.68 91.76 58.48 92.52 59.28 92.52Z" id="b6XQyxRed4"/>
    <path d="M276.61 143.81C276.61 169.25 259.11 185.45 233.98 185.45C207.65 185.45 191.35 167.97 191.35 143.53C191.35 142.39 191.35 133.3 191.35 132.16C191.35 129.04 194.04 126.48 197.33 126.48C198.8 126.48 210.53 126.48 211.99 126.48C215.28 126.48 217.98 129.04 217.98 132.16C217.98 133.1 217.98 140.6 217.98 141.54C217.98 154.33 222.46 161.57 233.83 161.57C241.46 161.57 249.24 158.16 249.24 145.8C249.24 130.6 237.27 120.37 222.61 107.15C208.25 93.94 192.7 78.88 192.7 55.43C192.7 34.55 204.96 15.65 234.13 15.65C259.26 15.65 274.66 29.57 274.66 60.26C274.66 60.8 274.66 65.12 274.66 65.66C274.66 68.36 272.27 70.64 269.43 70.64C267.72 70.64 254.08 70.64 252.38 70.64C249.98 70.64 247.89 68.65 247.89 66.37C247.89 65.89 247.89 62.03 247.89 61.54C247.89 44.92 243.1 38.95 233.98 38.95C224.41 38.95 220.07 45.77 220.07 54.15C220.07 67.08 230.09 76.46 245.2 90.53C263 107.15 276.61 121.22 276.61 143.81Z" id="bqKHdosv3"/>
    <path d="M315.95 24.03C315.95 30.17 315.95 79.28 315.95 85.41C315.95 85.84 316.69 86.12 316.84 85.7C319.55 79.49 341.21 29.81 343.92 23.61C345.41 20.48 348.7 18.35 352.29 18.35C353.92 18.35 366.97 18.35 368.6 18.35C371.44 18.35 373.38 21.05 372.19 23.61C369.52 29.43 348.22 76.04 345.56 81.86C345.11 83 344.81 84.85 345.26 86.12C348.25 95.23 372.19 168.1 375.18 177.2C375.93 179.9 373.98 182.6 370.84 182.6C369.12 182.6 355.36 182.6 353.64 182.6C350.05 182.6 346.91 180.33 346.01 177.2C344.1 170.7 328.78 118.63 326.87 112.13C326.57 111.27 325.37 111.27 325.22 111.84C324.38 113.55 317.68 127.19 316.84 128.89C316.4 130.03 315.95 131.88 315.95 133.16C315.95 137.53 315.95 172.54 315.95 176.92C315.95 180.05 313.25 182.6 309.96 182.6C308.3 182.6 295.02 182.6 293.36 182.6C290.07 182.6 287.38 180.05 287.38 176.92C287.38 161.63 287.38 39.32 287.38 24.03C287.38 20.91 290.07 18.35 293.36 18.35C294.47 18.35 300 18.35 309.96 18.35C313.95 20.05 315.95 21.95 315.95 24.03Z" id="acNE47QAv"/>
    <path d="M139.3 376.7C137.91 376.7 126.78 376.7 125.39 376.7C122.1 376.7 119.41 374.14 119.41 371.01C119.41 359.41 119.41 266.54 119.41 254.93C119.41 254.64 118.96 254.64 118.96 254.93C116.65 266.54 98.23 359.41 95.92 371.01C95.17 374.42 92.03 376.7 88.74 376.7C88.19 376.7 83.76 376.7 83.21 376.7C79.92 376.7 76.78 374.14 76.03 371.01C73.8 359.43 55.97 266.79 53.74 255.21C53.74 254.93 53.29 254.93 53.29 255.21C53.29 266.79 53.29 359.43 53.29 371.01C53.29 374.14 50.6 376.7 47.31 376.7C45.99 376.7 35.46 376.7 34.15 376.7C30.86 376.7 28.17 374.14 28.17 371.01C28.17 355.71 28.17 233.29 28.17 217.98C28.17 214.86 30.86 212.3 34.15 212.3C36.78 212.3 57.84 212.3 60.47 212.3C63.76 212.3 66.91 214.57 67.65 217.98C69.52 227.48 84.48 303.41 86.35 312.9C86.65 313.33 87.1 313.33 87.25 312.9C89.15 303.41 104.34 227.48 106.24 217.98C106.99 214.57 110.13 212.3 113.42 212.3C116.01 212.3 136.71 212.3 139.3 212.3C142.59 212.3 145.28 214.86 145.28 217.98C145.28 228.19 145.28 279.2 145.28 371.01C143.49 374.8 141.49 376.7 139.3 376.7Z" id="aGT101PV3"/>
    <path d="M197.78 217.98C197.78 233.27 197.78 355.58 197.78 370.87C197.78 374 195.09 376.56 191.8 376.56C190.14 376.56 176.86 376.56 175.2 376.56C171.91 376.56 169.21 374 169.21 370.87C169.21 355.58 169.21 233.27 169.21 217.98C169.21 214.86 171.91 212.3 175.2 212.3C176.3 212.3 181.84 212.3 191.8 212.3C195.79 214.01 197.78 215.9 197.78 217.98Z" id="hrx3gbBsK"/>
    <path d="M309.81 370.87C309.81 374.14 307.12 376.56 303.83 376.56C302.68 376.56 293.47 376.56 292.31 376.56C288.72 376.56 285.58 374.28 284.24 371.16C280.66 361.81 252.06 287.01 248.49 277.66C249.24 277.38 249.83 276.95 250.28 276.38C249.68 276.95 249.24 277.38 248.49 277.66C248.49 277.24 247.74 277.38 247.74 277.95C247.74 282.57 247.74 305.68 247.74 347.29C252.23 347.29 254.72 347.29 255.22 347.29C259.41 347.29 261.5 352.12 258.51 354.96C256.54 356.83 240.74 371.84 238.77 373.71C236.97 375.42 233.98 375.42 232.18 373.71C230.2 371.82 214.28 356.71 212.29 354.82C209.3 351.97 211.39 347.14 215.58 347.14C216.01 347.14 218.15 347.14 222.01 347.14C222.01 269.65 222.01 226.59 222.01 217.98C222.01 214.86 224.71 212.3 228 212.3C229.39 212.3 240.52 212.3 241.91 212.3C245.5 212.3 248.64 214.57 249.83 217.7C251.2 221.3 258.03 239.3 270.33 271.69C278.22 292.92 282.61 304.72 283.49 307.07C283.49 307.5 284.24 307.36 284.24 306.79C284.24 297.9 284.24 226.74 284.24 217.84C284.24 214.72 286.93 212.16 290.22 212.16C291.61 212.16 302.74 212.16 304.13 212.16C307.27 212.3 309.81 214.86 309.81 217.98C309.81 248.56 309.81 355.58 309.81 370.87Z" id="d7VPA1rcVK"/>
    <path d="M507.85 246.97C504.86 249.81 499.77 247.82 499.77 243.84C499.77 243.37 499.77 241 499.77 236.74C495.82 236.74 493.63 236.74 493.19 236.74C492 236.74 490.8 237.88 490.8 239.01C490.8 252.21 490.8 357.81 490.8 371.01C490.8 374.14 488.11 376.7 484.82 376.7C483.17 376.7 470.01 376.7 468.36 376.7C465.07 376.7 462.38 374.14 462.38 371.01C462.38 357.81 462.38 252.21 462.38 239.01C462.38 237.88 461.18 236.74 459.99 236.74C457.77 236.74 440.06 236.74 437.85 236.74C434.56 236.74 431.87 234.18 431.87 231.06C431.87 229.76 431.87 219.42 431.87 218.13C431.87 215 434.56 212.44 437.85 212.44C441.98 212.44 462.62 212.44 499.77 212.44C499.77 208.61 499.77 206.47 499.77 206.05C499.77 202.07 504.86 200.08 507.85 202.92C509.84 204.81 525.75 219.93 527.74 221.82C529.69 223.53 529.69 226.37 527.74 228.07C523.76 231.85 509.84 245.08 507.85 246.97Z" id="b4JxQN61V2"/>
    <path d="M565.44 238.59C565.44 242.52 565.44 274.01 565.44 277.95C565.44 279.08 566.63 280.22 567.83 280.22C570.34 280.22 590.45 280.22 592.96 280.22C596.25 280.22 598.94 282.78 598.94 285.9C598.94 287.07 598.94 296.39 598.94 297.55C598.94 300.68 596.25 303.24 592.96 303.24C590.45 303.24 570.34 303.24 567.83 303.24C566.63 303.24 565.44 304.37 565.44 305.51C565.44 309.97 565.44 345.67 565.44 350.13C565.44 351.26 566.63 352.4 567.83 352.4C571.73 352.4 602.96 352.4 606.87 352.4C610.16 352.4 612.85 354.96 612.85 358.08C612.85 359.38 612.85 369.72 612.85 371.01C612.85 374.14 610.16 376.7 606.87 376.7C600.47 376.7 549.25 376.7 542.85 376.7C539.56 376.7 536.87 374.14 536.87 371.01C536.87 355.71 536.87 233.29 536.87 217.98C536.87 214.86 539.56 212.3 542.85 212.3C549.06 212.3 598.72 212.3 604.92 212.3C608.21 212.3 610.91 214.86 610.91 217.98C610.91 219.23 610.91 229.24 610.91 230.49C610.91 233.61 608.21 236.17 604.92 236.17C602.45 236.17 590.09 236.17 567.83 236.17C566.23 237.02 565.44 237.83 565.44 238.59Z" id="h1QyCzPLsw"/>
    <path d="M419.6 96.92C419.6 242.11 419.6 322.77 419.6 338.9C419.6 363.48 402.85 379.4 376.22 379.4C349.6 379.4 332.85 363.48 332.85 338.9C332.85 326.81 332.85 230.08 332.85 217.98C332.85 214.86 335.54 212.3 338.83 212.3C340.51 212.3 353.91 212.3 355.58 212.3C358.87 212.3 361.57 214.86 361.57 217.98C361.57 230.15 361.57 327.45 361.57 339.61C361.57 348.28 364.71 355.53 376.22 355.53C387.74 355.53 390.88 348.28 390.88 339.61C390.88 323.43 390.88 242.54 390.88 96.92C383.7 96.92 379.71 96.92 378.92 96.92C373.53 96.92 370.99 90.81 374.73 87.26C377.27 84.85 397.61 65.52 400.16 63.11C402.55 60.83 406.29 60.83 408.68 63.11C411.23 65.52 431.57 84.85 434.11 87.26C437.7 90.81 435.01 96.92 429.77 96.92C428.42 96.92 425.03 96.92 419.6 96.92Z" id="a1ytXIIsOn"/>
    <path d="M419.6 96.92C419.6 242.11 419.6 322.77 419.6 338.9C419.6 363.48 402.85 379.4 376.22 379.4C349.6 379.4 332.85 363.48 332.85 338.9C332.85 326.81 332.85 230.08 332.85 217.98C332.85 214.86 335.54 212.3 338.83 212.3C340.51 212.3 353.91 212.3 355.58 212.3C358.87 212.3 361.57 214.86 361.57 217.98C361.57 230.15 361.57 327.45 361.57 339.61C361.57 348.28 364.71 355.53 376.22 355.53C387.74 355.53 390.88 348.28 390.88 339.61C390.88 323.43 390.88 242.54 390.88 96.92C383.7 96.92 379.71 96.92 378.92 96.92C373.53 96.92 370.99 90.81 374.73 87.26C377.27 84.85 397.61 65.52 400.16 63.11C402.55 60.83 406.29 60.83 408.68 63.11C411.23 65.52 431.57 84.85 434.11 87.26C437.7 90.81 435.01 96.92 429.77 96.92C428.42 96.92 425.03 96.92 419.6 96.92Z" id="arUEYAiQt"/>
    <path d="M166.37 53.3C166.37 127.47 166.37 168.68 166.37 176.92C166.37 180.05 163.68 182.6 160.39 182.6C158.73 182.6 145.45 182.6 143.79 182.6C140.5 182.6 137.8 180.05 137.8 176.92C137.8 168.68 137.8 127.47 137.8 53.3C131.16 53.3 127.47 53.3 126.73 53.3C121.35 53.3 118.66 47.19 122.55 43.64C125.09 41.22 145.43 21.9 147.97 19.48C150.37 17.21 154.11 17.21 156.5 19.48C159.04 21.9 179.38 41.22 181.93 43.64C185.52 47.19 182.83 53.3 177.44 53.3C175.96 53.3 172.28 53.3 166.37 53.3Z" id="d3JKO2chKe"/>
  </defs>
  <style type="text/css">
	.st0{fill:#F16D26;}
	.st1{fill:#FFFFFF;}
</style>
  <g>
    <path class="st0" d="M269.9,240.1c0.5,1.9-0.8,3.8-2.9,3.8h-10.7c-2.4,0-4.5-1.6-5.1-3.8l-11.5-42.6c-0.3-1-1.1-1.6-2.1-1.6h-3.7 c-0.8,0-1.6,0.8-1.6,1.6v42.4c0,2.2-1.8,4-4,4h-11.2c-2.2,0-4-1.8-4-4V132.3c0-2.2,1.8-4,4-4H243c22.4,0,26.9,14.9,26.9,34.6 c0,18.1-3.7,25-12.5,29.6c-0.8,0.3-1.3,1.3-1,2.2L269.9,240.1z M232.3,178.9c0,0.8,0.8,1.6,1.6,1.6h5.9c8.6,0,11.2-4,11.2-18.1 c0-14.1-2.6-18.1-11.2-18.1h-5.9c-0.8,0-1.6,0.8-1.6,1.6V178.9z"/>
    <path class="st0" d="M358.2,179.1c11.9,11.7,21,21.6,21,37.5c0,17.9-11.7,29.3-28.5,29.3c-17.6,0-28.5-12.3-28.5-29.5v-8 c0-2.2,1.8-4,4-4h9.8c2.2,0,4,1.8,4,4v6.6c0,9,3,14.1,10.6,14.1c5.1,0,10.3-2.4,10.3-11.1c0-10.7-8-17.9-17.8-27.2 c-9.6-9.3-20-19.9-20-36.4c0-14.7,8.2-28,27.7-28c16.8,0,27.1,9.8,27.1,31.4v3.8c0,1.9-1.6,3.5-3.5,3.5H363c-1.6,0-3-1.4-3-3v-3.4 c0-11.7-3.2-15.9-9.3-15.9c-6.4,0-9.3,4.8-9.3,10.7C341.4,162.6,348.1,169.1,358.2,179.1z"/>
    <path class="st0" d="M401.5,128.3c2.2,0,4,1.8,4,4v43.2c0,0.3,0.5,0.5,0.6,0.2l18.1-43.7c1-2.2,3.2-3.7,5.6-3.7h10.9 c1.9,0,3.2,1.9,2.4,3.7l-17.8,41c-0.3,0.8-0.5,2.1-0.2,3l20,64.1c0.5,1.9-0.8,3.8-2.9,3.8h-11.5c-2.4,0-4.5-1.6-5.1-3.8l-12.8-45.8 c-0.2-0.6-1-0.6-1.1-0.2l-5.6,12c-0.3,0.8-0.6,2.1-0.6,3v30.8c0,2.2-1.8,4-4,4h-11.1c-2.2,0-4-1.8-4-4V132.3c0-2.2,1.8-4,4-4H401.5 z"/>
    <g>
      <path class="st0" d="M291.4,376.4c0,2.2-1.8,4-4,4h-9.3c-2.2,0-4-1.8-4-4v-81.7c0-0.2-0.3-0.2-0.3,0l-15.4,81.7 c-0.5,2.4-2.6,4-4.8,4h-3.7c-2.2,0-4.3-1.8-4.8-4l-14.9-81.5c0-0.2-0.3-0.2-0.3,0v81.5c0,2.2-1.8,4-4,4h-8.8c-2.2,0-4-1.8-4-4 V268.8c0-2.2,1.8-4,4-4h17.6c2.2,0,4.3,1.6,4.8,4l12.5,66.8c0.2,0.3,0.5,0.3,0.6,0l12.7-66.8c0.5-2.4,2.6-4,4.8-4h17.3 c2.2,0,4,1.8,4,4V376.4z"/>
      <path class="st0" d="M322.5,264.8c2.2,0,4,1.8,4,4v107.6c0,2.2-1.8,4-4,4h-11.1c-2.2,0-4-1.8-4-4V268.8c0-2.2,1.8-4,4-4H322.5z"/>
      <path class="st0" d="M401.4,268.8v107.6c0,2.3-1.8,4-4,4h-7.7c-2.4,0-4.5-1.6-5.4-3.8l-23.9-65.8c0.5-0.2,0.9-0.5,1.2-0.9 c-0.4,0.4-0.7,0.7-1.2,0.9c0-0.3-0.5-0.2-0.5,0.2v48.8h5c2.8,0,4.2,3.4,2.2,5.4l-13.3,13.3c-1.2,1.2-3.2,1.2-4.4,0L336.1,365 c-2-2-0.6-5.4,2.2-5.4h4.3v-90.9c0-2.2,1.8-4,4-4h9.3c2.4,0,4.5,1.6,5.3,3.8l13.7,38l8.8,24.9c0,0.3,0.5,0.2,0.5-0.2v-62.6 c0-2.2,1.8-4,4-4h9.3C399.7,264.8,401.4,266.6,401.4,268.8z"/>
      <path class="st0" d="M547.1,275.9l-13.3,13.3c-2,2-5.4,0.6-5.4-2.2v-5H524c-0.8,0-1.6,0.8-1.6,1.6v92.9c0,2.2-1.8,4-4,4h-11 c-2.2,0-4-1.8-4-4v-92.9c0-0.8-0.8-1.6-1.6-1.6H487c-2.2,0-4-1.8-4-4v-9.1c0-2.2,1.8-4,4-4h41.4v-4.5c0-2.8,3.4-4.2,5.4-2.2 l13.3,13.3C548.4,272.6,548.4,274.6,547.1,275.9z"/>
      <path class="st0" d="M573.9,281.6c-0.8,0-1.6,0.8-1.6,1.6v27.7c0,0.8,0.8,1.6,1.6,1.6h16.8c2.2,0,4,1.8,4,4v8.2c0,2.2-1.8,4-4,4 h-16.8c-0.8,0-1.6,0.8-1.6,1.6v31.4c0,0.8,0.8,1.6,1.6,1.6H600c2.2,0,4,1.8,4,4v9.1c0,2.2-1.8,4-4,4h-42.8c-2.2,0-4-1.8-4-4V268.8 c0-2.2,1.8-4,4-4h41.5c2.2,0,4,1.8,4,4v8.8c0,2.2-1.8,4-4,4H573.9z"/>
    </g>
    <path class="st0" d="M 481.6 185.871 L 474.8 185.871 L 474.8 354.226 C 474.8 371.327 463.6 382.4 445.8 382.4 C 428 382.4 416.8 371.327 416.8 354.226 L 416.8 270.096 C 416.8 267.923 418.6 266.144 420.8 266.144 L 432 266.144 C 434.2 266.144 436 267.923 436 270.096 L 436 354.62 C 436 360.652 438.1 365.693 445.8 365.693 C 453.5 365.693 455.6 360.652 455.6 354.62 L 455.6 185.871 L 447.6 185.871 C 444 185.871 442.3 181.62 444.8 179.148 L 461.8 162.342 C 463.4 160.76 465.9 160.76 467.5 162.342 L 484.5 179.148 C 486.9 181.62 485.1 185.871 481.6 185.871 Z" style=""/>
    <path class="st0" d="M312.9,152.9h-7.4v87c0,2.2-1.8,4-4,4h-11.1c-2.2,0-4-1.8-4-4v-87H279c-3.6,0-5.4-4.3-2.8-6.8l17-17 c1.6-1.6,4.1-1.6,5.7,0l17,17C318.3,148.6,316.5,152.9,312.9,152.9z"/>
  </g>
  <g>
    <path class="st1" d="M230.5,430.9c0-1.2-0.5-2.2-1.4-2.9c-0.9-0.7-2.6-1.3-4.9-1.8c-2.3-0.5-4.2-1.1-5.5-1.8s-2.4-1.5-3-2.5 s-1-2.1-1-3.4c0-2.2,0.9-4.1,2.8-5.6s4.2-2.3,7.2-2.3c3.1,0,5.5,0.8,7.4,2.4c1.9,1.6,2.8,3.6,2.8,6h-4.6c0-1.3-0.5-2.3-1.6-3.3 c-1.1-0.9-2.4-1.4-4-1.4c-1.7,0-3,0.4-3.9,1.1c-0.9,0.7-1.4,1.7-1.4,2.9c0,1.1,0.4,1.9,1.3,2.5c0.9,0.6,2.5,1.1,4.8,1.6 c2.3,0.5,4.2,1.1,5.6,1.8s2.5,1.6,3.2,2.6c0.7,1,1,2.2,1,3.7c0,2.4-1,4.3-2.9,5.8s-4.4,2.2-7.5,2.2c-2.2,0-4.1-0.4-5.7-1.1 c-1.7-0.8-3-1.8-3.9-3.2s-1.4-2.8-1.4-4.4h4.6c0.1,1.5,0.7,2.8,1.9,3.7c1.2,0.9,2.7,1.4,4.6,1.4c1.7,0,3.1-0.4,4.2-1.1 C229.9,433,230.5,432,230.5,430.9z"/>
    <path class="st1" d="M252.2,438.5c-3.6,0-6.6-1.2-8.9-3.6s-3.4-5.6-3.4-9.6v-0.8c0-2.7,0.5-5.1,1.5-7.2c1-2.1,2.4-3.7,4.3-4.9 s3.8-1.8,6-1.8c3.5,0,6.2,1.2,8.2,3.5c1.9,2.3,2.9,5.6,2.9,9.9v1.9h-18.2c0.1,2.7,0.8,4.8,2.3,6.4c1.5,1.6,3.4,2.5,5.7,2.5 c1.6,0,3-0.3,4.1-1s2.1-1.5,3-2.6l2.8,2.2C260.1,436.8,256.7,438.5,252.2,438.5z M251.7,414.4c-1.9,0-3.4,0.7-4.7,2 c-1.3,1.4-2,3.2-2.3,5.7h13.5v-0.3c-0.1-2.3-0.8-4.1-1.9-5.4C255.1,415,253.6,414.4,251.7,414.4z"/>
    <path class="st1" d="M273.1,438h-4.6v-38.2h4.6V438z"/>
    <path class="st1" d="M285.4,438h-4.6v-38.2h4.6V438z"/>
    <path class="st1" d="M297.1,411.1l0.1,3c2-2.3,4.6-3.5,8-3.5c3.8,0,6.3,1.4,7.7,4.3c0.9-1.3,2.1-2.3,3.5-3.1 c1.4-0.8,3.1-1.2,5.1-1.2c5.9,0,8.9,3.1,9,9.4v18h-4.6v-17.8c0-1.9-0.4-3.4-1.3-4.3c-0.9-1-2.4-1.4-4.4-1.4c-1.7,0-3.1,0.5-4.3,1.5 c-1.1,1-1.8,2.4-2,4.1V438h-4.6v-17.6c0-3.9-1.9-5.9-5.7-5.9c-3,0-5.1,1.3-6.2,3.9V438h-4.6v-26.9H297.1z"/>
    <path class="st1" d="M336.2,424.3c0-2.6,0.5-5,1.6-7.1s2.5-3.7,4.3-4.9s4-1.7,6.3-1.7c3.7,0,6.6,1.3,8.9,3.8 c2.3,2.5,3.4,5.9,3.4,10.1v0.3c0,2.6-0.5,5-1.5,7.1c-1,2.1-2.4,3.7-4.3,4.9c-1.9,1.2-4,1.7-6.4,1.7c-3.6,0-6.6-1.3-8.9-3.8 c-2.3-2.5-3.4-5.9-3.4-10.1V424.3z M340.8,424.8c0,3,0.7,5.4,2.1,7.2c1.4,1.8,3.2,2.7,5.6,2.7c2.3,0,4.2-0.9,5.6-2.7 c1.4-1.8,2.1-4.4,2.1-7.7c0-3-0.7-5.3-2.1-7.2c-1.4-1.8-3.3-2.7-5.6-2.7c-2.3,0-4.1,0.9-5.5,2.7S340.8,421.5,340.8,424.8z"/>
    <path class="st1" d="M379.5,415.2c-0.7-0.1-1.5-0.2-2.3-0.2c-3,0-5.1,1.3-6.1,3.9V438h-4.6v-26.9h4.5l0.1,3.1 c1.5-2.4,3.6-3.6,6.4-3.6c0.9,0,1.6,0.1,2,0.3V415.2z"/>
    <path class="st1" d="M394.4,438.5c-3.6,0-6.6-1.2-8.9-3.6s-3.4-5.6-3.4-9.6v-0.8c0-2.7,0.5-5.1,1.5-7.2c1-2.1,2.4-3.7,4.3-4.9 s3.8-1.8,6-1.8c3.5,0,6.2,1.2,8.2,3.5c1.9,2.3,2.9,5.6,2.9,9.9v1.9h-18.2c0.1,2.7,0.8,4.8,2.3,6.4c1.5,1.6,3.4,2.5,5.7,2.5 c1.6,0,3-0.3,4.1-1s2.1-1.5,3-2.6l2.8,2.2C402.3,436.8,398.9,438.5,394.4,438.5z M393.9,414.4c-1.9,0-3.4,0.7-4.7,2 c-1.3,1.4-2,3.2-2.3,5.7h13.5v-0.3c-0.1-2.3-0.8-4.1-1.9-5.4C397.3,415,395.8,414.4,393.9,414.4z"/>
    <path class="st1" d="M410.3,435.6c0-0.8,0.2-1.5,0.7-2c0.5-0.5,1.2-0.8,2.1-0.8s1.7,0.3,2.2,0.8c0.5,0.5,0.7,1.2,0.7,2 c0,0.8-0.2,1.4-0.7,1.9c-0.5,0.5-1.2,0.8-2.2,0.8s-1.7-0.3-2.1-0.8C410.6,437,410.3,436.4,410.3,435.6z"/>
    <path class="st1" d="M446.4,424.8c0,4.1-0.9,7.4-2.8,9.9s-4.4,3.7-7.6,3.7c-3.4,0-6-1.2-7.9-3.6l-0.2,3.1h-4.2v-38.2h4.6v14.3 c1.9-2.3,4.4-3.5,7.7-3.5s5.8,1.2,7.7,3.7c1.9,2.5,2.8,5.9,2.8,10.1V424.8z M441.8,424.3c0-3.1-0.6-5.6-1.8-7.3 c-1.2-1.7-3-2.6-5.2-2.6c-3,0-5.2,1.4-6.5,4.2v11.6c1.4,2.8,3.6,4.2,6.6,4.2c2.2,0,3.9-0.9,5.1-2.6 C441.2,430.3,441.8,427.8,441.8,424.3z"/>
    <path class="st1" d="M452.3,404c0-0.7,0.2-1.4,0.7-1.9s1.1-0.8,2-0.8s1.6,0.3,2,0.8s0.7,1.1,0.7,1.9s-0.2,1.4-0.7,1.9 c-0.5,0.5-1.1,0.7-2,0.7s-1.6-0.2-2-0.7C452.5,405.3,452.3,404.7,452.3,404z M457.2,438h-4.6v-26.9h4.6V438z"/>
    <path class="st1" d="M469,411.1l0.1,3.4c2.1-2.6,4.7-3.9,8.1-3.9c5.7,0,8.6,3.2,8.6,9.6V438h-4.6v-17.8c0-1.9-0.5-3.4-1.3-4.3 c-0.9-0.9-2.2-1.4-4.1-1.4c-1.5,0-2.8,0.4-3.9,1.2s-2,1.8-2.6,3.1V438h-4.6v-26.9H469z"/>
    <path class="st1" d="M491.6,424.3c0-4.1,1-7.5,2.9-10c2-2.5,4.5-3.8,7.7-3.8c3.2,0,5.6,1.1,7.5,3.2v-14h4.6V438h-4.2l-0.2-2.9 c-1.8,2.3-4.4,3.4-7.7,3.4c-3.1,0-5.7-1.3-7.6-3.8c-2-2.6-2.9-5.9-2.9-10V424.3z M496.2,424.8c0,3.1,0.6,5.4,1.9,7.2 c1.3,1.7,3,2.6,5.2,2.6c2.9,0,5-1.3,6.4-3.9v-12.4c-1.4-2.5-3.5-3.8-6.3-3.8c-2.3,0-4,0.9-5.3,2.6 C496.8,418.9,496.2,421.4,496.2,424.8z"/>
    <path class="st1" d="M523.7,438v-23.4h-4.3v-3.6h4.3v-2.8c0-2.9,0.8-5.1,2.3-6.7c1.5-1.6,3.7-2.4,6.5-2.4c1.1,0,2.1,0.1,3.2,0.4 l-0.2,3.7c-0.8-0.1-1.6-0.2-2.5-0.2c-1.5,0-2.6,0.4-3.5,1.3s-1.2,2.1-1.2,3.8v2.8h5.7v3.6h-5.7V438H523.7z"/>
    <path class="st1" d="M555.7,438c-0.3-0.5-0.5-1.5-0.6-2.8c-2.1,2.2-4.7,3.3-7.7,3.3c-2.7,0-4.8-0.8-6.5-2.3 c-1.7-1.5-2.5-3.4-2.5-5.7c0-2.8,1.1-5,3.2-6.5s5.1-2.3,9-2.3h4.5v-2.1c0-1.6-0.5-2.9-1.4-3.8c-1-1-2.4-1.4-4.3-1.4 c-1.6,0-3,0.4-4.1,1.2c-1.1,0.8-1.7,1.8-1.7,3h-4.6c0-1.3,0.5-2.6,1.4-3.9c1-1.3,2.2-2.2,3.9-3c1.6-0.7,3.4-1.1,5.4-1.1 c3.1,0,5.5,0.8,7.3,2.3s2.7,3.7,2.7,6.4v12.4c0,2.5,0.3,4.4,0.9,5.9v0.4H555.7z M548.1,434.5c1.4,0,2.8-0.4,4.1-1.1 c1.3-0.7,2.2-1.7,2.8-2.9v-5.5h-3.6c-5.6,0-8.5,1.7-8.5,5c0,1.4,0.5,2.6,1.4,3.4C545.4,434.1,546.6,434.5,548.1,434.5z"/>
    <path class="st1" d="M582.5,430.9c0-1.2-0.5-2.2-1.4-2.9c-0.9-0.7-2.6-1.3-4.9-1.8c-2.3-0.5-4.2-1.1-5.5-1.8 c-1.4-0.7-2.4-1.5-3-2.5c-0.7-1-1-2.1-1-3.4c0-2.2,0.9-4.1,2.8-5.6c1.9-1.5,4.2-2.3,7.2-2.3c3.1,0,5.5,0.8,7.4,2.4 c1.9,1.6,2.8,3.6,2.8,6h-4.6c0-1.3-0.5-2.3-1.6-3.3c-1.1-0.9-2.4-1.4-4-1.4c-1.7,0-3,0.4-3.9,1.1c-0.9,0.7-1.4,1.7-1.4,2.9 c0,1.1,0.4,1.9,1.3,2.5c0.9,0.6,2.5,1.1,4.8,1.6c2.3,0.5,4.2,1.1,5.6,1.8c1.4,0.7,2.5,1.6,3.2,2.6c0.7,1,1,2.2,1,3.7 c0,2.4-1,4.3-2.9,5.8s-4.4,2.2-7.5,2.2c-2.2,0-4.1-0.4-5.7-1.1c-1.7-0.8-3-1.8-3.9-3.2s-1.4-2.8-1.4-4.4h4.6 c0.1,1.5,0.7,2.8,1.9,3.7c1.2,0.9,2.7,1.4,4.6,1.4c1.7,0,3.1-0.4,4.2-1.1C582,433,582.5,432,582.5,430.9z"/>
    <path class="st1" d="M599.4,404.6v6.5h5v3.6h-5v16.7c0,1.1,0.2,1.9,0.7,2.4c0.4,0.5,1.2,0.8,2.3,0.8c0.5,0,1.3-0.1,2.2-0.3v3.7 c-1.2,0.3-2.4,0.5-3.5,0.5c-2.1,0-3.6-0.6-4.7-1.9s-1.6-3-1.6-5.3v-16.7h-4.9v-3.6h4.9v-6.5H599.4z"/>
  </g>
</svg>