<?xml version="1.0" encoding="UTF-8" standalone="no"?>
<!DOCTYPE svg PUBLIC "-//W3C//DTD SVG 1.1//EN" "http://www.w3.org/Graphics/SVG/1.1/DTD/svg11.dtd">
<svg version="1.1" xmlns="http://www.w3.org/2000/svg" xmlns:xlink="http://www.w3.org/1999/xlink" preserveAspectRatio="xMidYMid meet" viewBox="0 0 221 184" width="221" height="184"><defs><path d="M36.74 67.66C36.19 67.66 31.78 67.66 31.23 67.66C29.99 67.66 28.91 66.82 28.6 65.68C28 63.46 23.26 45.72 22.67 43.5C22.51 42.98 22.1 42.67 21.58 42.67C21.39 42.67 19.87 42.67 19.68 42.67C19.26 42.67 18.85 43.09 18.85 43.5C18.85 45.71 18.85 63.37 18.85 65.57C18.85 66.72 17.92 67.66 16.79 67.66C16.21 67.66 11.59 67.66 11.02 67.66C9.88 67.66 8.95 66.72 8.95 65.57C8.95 59.97 8.95 15.16 8.95 9.56C8.95 8.42 9.88 7.48 11.02 7.48C12.35 7.48 23.03 7.48 24.37 7.48C35.92 7.48 38.24 15.24 38.24 25.49C38.24 34.91 36.33 38.51 31.79 40.9C31.38 41.06 31.12 41.58 31.28 42.05C31.74 43.62 34.06 51.5 38.24 65.68C37.96 67 37.46 67.66 36.74 67.66ZM19.68 34.65C19.98 34.65 22.41 34.65 22.72 34.65C27.15 34.65 28.49 32.57 28.49 25.23C28.49 17.89 27.15 15.81 22.72 15.81C22.41 15.81 19.98 15.81 19.68 15.81C19.26 15.81 18.85 16.23 18.85 16.64C18.85 17.79 18.85 23.51 18.85 33.82C19.13 34.38 19.4 34.65 19.68 34.65Z" id="c5nvHUgGoK"></path><path d="M94.59 53.44C94.59 62.76 88.55 68.7 79.89 68.7C70.82 68.7 65.2 62.29 65.2 53.34C65.2 52.92 65.2 49.59 65.2 49.18C65.2 48.03 66.13 47.09 67.26 47.09C67.77 47.09 71.81 47.09 72.31 47.09C73.45 47.09 74.38 48.03 74.38 49.18C74.38 49.52 74.38 52.27 74.38 52.61C74.38 57.3 75.92 59.95 79.84 59.95C82.47 59.95 85.15 58.7 85.15 54.17C85.15 48.6 81.03 44.86 75.97 40.01C71.03 35.17 65.66 29.66 65.66 21.07C65.66 13.42 69.89 6.49 79.94 6.49C88.61 6.49 93.92 11.59 93.92 22.84C93.92 23.04 93.92 24.62 93.92 24.82C93.92 25.8 93.09 26.64 92.11 26.64C91.52 26.64 86.82 26.64 86.23 26.64C85.41 26.64 84.69 25.91 84.69 25.08C84.69 24.9 84.69 23.48 84.69 23.31C84.69 17.22 83.04 15.03 79.89 15.03C76.59 15.03 75.1 17.53 75.1 20.6C75.1 25.34 78.55 28.72 83.76 33.92C89.89 40.01 94.59 45.17 94.59 53.44Z" id="a5ewnDxpaU"></path><path d="M108.14 9.56C108.14 11.81 108.14 29.8 108.14 32.05C108.14 32.21 108.4 32.31 108.45 32.15C109.39 29.88 116.85 11.68 117.78 9.41C118.3 8.26 119.43 7.48 120.67 7.48C121.23 7.48 125.73 7.48 126.29 7.48C127.27 7.48 127.94 8.47 127.53 9.41C126.61 11.54 119.27 28.62 118.35 30.75C118.2 31.17 118.09 31.84 118.25 32.31C119.28 35.65 127.53 62.34 128.56 65.68C128.82 66.67 128.15 67.66 127.06 67.66C126.47 67.66 121.73 67.66 121.14 67.66C119.9 67.66 118.82 66.82 118.51 65.68C117.85 63.29 112.57 44.22 111.91 41.84C111.8 41.52 111.39 41.52 111.34 41.73C111.05 42.36 108.74 47.35 108.45 47.98C108.3 48.4 108.14 49.07 108.14 49.54C108.14 51.14 108.14 63.97 108.14 65.57C108.14 66.72 107.22 67.66 106.08 67.66C105.51 67.66 100.93 67.66 100.36 67.66C99.23 67.66 98.3 66.72 98.3 65.57C98.3 59.97 98.3 15.16 98.3 9.56C98.3 8.42 99.23 7.48 100.36 7.48C100.74 7.48 102.65 7.48 106.08 7.48C107.46 8.11 108.14 8.8 108.14 9.56Z" id="ejPcbwJwH"></path><path d="M47.26 138.71C46.78 138.71 42.94 138.71 42.46 138.71C41.33 138.71 40.4 137.77 40.4 136.63C40.4 132.37 40.4 98.35 40.4 94.1C40.4 93.99 40.25 93.99 40.25 94.1C39.45 98.35 33.1 132.37 32.31 136.63C32.05 137.88 30.97 138.71 29.83 138.71C29.64 138.71 28.12 138.71 27.93 138.71C26.79 138.71 25.71 137.77 25.45 136.63C24.68 132.38 18.54 98.44 17.77 94.2C17.77 94.1 17.62 94.1 17.62 94.2C17.62 98.44 17.62 132.38 17.62 136.63C17.62 137.77 16.69 138.71 15.55 138.71C15.1 138.71 11.47 138.71 11.02 138.71C9.88 138.71 8.95 137.77 8.95 136.63C8.95 131.02 8.95 86.22 8.95 80.62C8.95 79.47 9.88 78.53 11.02 78.53C11.92 78.53 19.18 78.53 20.09 78.53C21.22 78.53 22.31 79.37 22.56 80.62C23.21 84.09 28.36 111.91 29.01 115.39C29.11 115.54 29.27 115.54 29.32 115.39C29.97 111.91 35.21 84.09 35.87 80.62C36.12 79.37 37.21 78.53 38.34 78.53C39.23 78.53 46.37 78.53 47.26 78.53C48.39 78.53 49.32 79.47 49.32 80.62C49.32 84.35 49.32 103.02 49.32 136.63C48.7 138.01 48.01 138.71 47.26 138.71Z" id="f47M7Eyc6l"></path><path d="M67.42 80.62C67.42 86.22 67.42 131.02 67.42 136.63C67.42 137.77 66.49 138.71 65.35 138.71C64.78 138.71 60.2 138.71 59.63 138.71C58.5 138.71 57.57 137.77 57.57 136.63C57.57 131.02 57.57 86.22 57.57 80.62C57.57 79.47 58.5 78.53 59.63 78.53C60.01 78.53 61.92 78.53 65.35 78.53C66.73 79.16 67.42 79.85 67.42 80.62Z" id="cggAqnjRD"></path><path d="M106.03 136.63C106.03 137.82 105.1 138.71 103.97 138.71C103.57 138.71 100.4 138.71 100 138.71C98.76 138.71 97.68 137.88 97.21 136.73C95.98 133.3 86.13 105.9 84.89 102.48C85.15 102.37 85.36 102.22 85.51 102.01C85.31 102.22 85.15 102.37 84.89 102.48C84.89 102.32 84.64 102.37 84.64 102.58C84.64 104.28 84.64 112.74 84.64 127.99C86.18 127.99 87.04 127.99 87.21 127.99C88.66 127.99 89.38 129.75 88.35 130.8C87.66 131.49 82.18 137.03 81.49 137.72C80.87 138.34 79.84 138.34 79.22 137.72C78.54 137.02 73.05 131.39 72.37 130.69C71.33 129.65 72.06 127.88 73.5 127.88C73.65 127.88 74.39 127.88 75.72 127.88C75.72 99.49 75.72 83.72 75.72 80.56C75.72 79.42 76.64 78.48 77.78 78.48C78.26 78.48 82.09 78.48 82.57 78.48C83.81 78.48 84.89 79.32 85.31 80.46C85.78 81.78 88.13 88.37 92.37 100.24C95.09 108.02 96.6 112.34 96.91 113.2C96.91 113.36 97.16 113.31 97.16 113.1C97.16 109.84 97.16 83.77 97.16 80.51C97.16 79.37 98.09 78.43 99.23 78.43C99.7 78.43 103.54 78.43 104.02 78.43C105.15 78.53 106.03 79.47 106.03 80.62C106.03 91.82 106.03 131.02 106.03 136.63Z" id="g1eQnGL13H"></path><path d="M174.29 91.24C173.26 92.28 171.5 91.55 171.5 90.09C171.5 89.92 171.5 89.05 171.5 87.49C170.14 87.49 169.39 87.49 169.24 87.49C168.82 87.49 168.41 87.9 168.41 88.32C168.41 93.16 168.41 131.84 168.41 136.68C168.41 137.82 167.48 138.76 166.35 138.76C165.78 138.76 161.24 138.76 160.68 138.76C159.54 138.76 158.62 137.82 158.62 136.68C158.62 131.84 158.62 93.16 158.62 88.32C158.62 87.9 158.2 87.49 157.79 87.49C157.03 87.49 150.92 87.49 150.16 87.49C149.03 87.49 148.1 86.55 148.1 85.41C148.1 84.93 148.1 81.14 148.1 80.67C148.1 79.52 149.03 78.59 150.16 78.59C151.58 78.59 158.7 78.59 171.5 78.59C171.5 77.18 171.5 76.4 171.5 76.24C171.5 74.79 173.26 74.06 174.29 75.1C174.97 75.79 180.46 81.33 181.14 82.02C181.81 82.59 181.81 83.64 181.14 84.31C179.77 85.7 174.97 90.54 174.29 91.24Z" id="eBaDwRKez"></path><path d="M194.14 88.11C194.14 89.55 194.14 101.09 194.14 102.53C194.14 102.95 194.55 103.36 194.96 103.36C195.83 103.36 202.76 103.36 203.62 103.36C204.76 103.36 205.68 104.3 205.68 105.45C205.68 105.87 205.68 109.29 205.68 109.71C205.68 110.86 204.76 111.8 203.62 111.8C202.76 111.8 195.83 111.8 194.96 111.8C194.55 111.8 194.14 112.21 194.14 112.63C194.14 114.26 194.14 127.34 194.14 128.97C194.14 129.39 194.55 129.81 194.96 129.81C196.31 129.81 207.07 129.81 208.42 129.81C209.55 129.81 210.48 130.74 210.48 131.89C210.48 132.36 210.48 136.15 210.48 136.63C210.48 137.77 209.55 138.71 208.42 138.71C206.21 138.71 188.56 138.71 186.35 138.71C185.22 138.71 184.29 137.77 184.29 136.63C184.29 131.02 184.29 86.22 184.29 80.62C184.29 79.47 185.22 78.53 186.35 78.53C188.49 78.53 205.61 78.53 207.75 78.53C208.88 78.53 209.81 79.47 209.81 80.62C209.81 81.07 209.81 84.74 209.81 85.2C209.81 86.34 208.88 87.28 207.75 87.28C206.89 87.28 202.63 87.28 194.96 87.28C194.41 87.56 194.14 87.83 194.14 88.11Z" id="a1covogf5X"></path><path d="M143.36 36.3C143.36 89.47 143.36 119.01 143.36 124.92C143.36 133.92 137.58 139.75 128.41 139.75C119.23 139.75 113.46 133.92 113.46 124.92C113.46 120.49 113.46 85.07 113.46 80.64C113.46 79.49 114.38 78.56 115.52 78.56C116.1 78.56 120.71 78.56 121.29 78.56C122.43 78.56 123.35 79.49 123.35 80.64C123.35 85.09 123.35 120.68 123.35 125.13C123.35 128.3 124.44 130.96 128.41 130.96C132.38 130.96 133.46 128.3 133.46 125.13C133.46 119.21 133.46 89.6 133.46 36.3C130.98 36.3 129.61 36.3 129.33 36.3C127.48 36.3 126.6 34.07 127.89 32.76C128.77 31.88 135.78 24.8 136.66 23.92C137.48 23.09 138.77 23.09 139.59 23.92C140.47 24.8 147.48 31.88 148.36 32.76C149.6 34.07 148.67 36.3 146.86 36.3C146.4 36.3 145.23 36.3 143.36 36.3Z" id="b4FHOb1WSr"></path><path d="M54.95 21.49C54.95 48.57 54.95 63.61 54.95 66.62C54.95 67.76 54.02 68.7 52.89 68.7C52.32 68.7 47.74 68.7 47.17 68.7C46.03 68.7 45.1 67.76 45.1 66.62C45.1 63.61 45.1 48.57 45.1 21.49C42.81 21.49 41.54 21.49 41.29 21.49C39.43 21.49 38.5 19.26 39.84 17.96C40.72 17.08 47.73 10.03 48.61 9.15C49.43 8.32 50.72 8.32 51.55 9.15C52.42 10.03 59.44 17.08 60.31 17.96C61.55 19.26 60.62 21.49 58.76 21.49C58.26 21.49 56.98 21.49 54.95 21.49Z" id="a14h3JfPE7"></path><path d="M17.2 163.49C16.74 163.12 15.86 162.81 14.68 162.55C13.49 162.29 12.51 161.98 11.84 161.61C11.17 161.25 10.6 160.83 10.29 160.31C9.99 159.79 9.78 159.22 9.78 158.54C9.78 157.4 10.24 156.41 11.22 155.63C12.2 154.84 13.39 154.43 14.93 154.43C16.53 154.43 17.77 154.84 18.75 155.68C19.73 156.51 20.19 157.55 20.19 158.8C19.96 158.8 18.06 158.8 17.82 158.8C17.82 158.12 17.56 157.6 17 157.08C16.43 156.61 15.76 156.35 14.93 156.35C14.06 156.35 13.39 156.56 12.92 156.93C12.46 157.29 12.2 157.81 12.2 158.44C12.2 159.01 12.41 159.43 12.87 159.74C13.34 160.05 14.16 160.31 15.35 160.57C16.53 160.83 17.51 161.14 18.23 161.51C18.96 161.87 19.52 162.34 19.88 162.86C20.24 163.38 20.4 164.01 20.4 164.79C20.4 166.04 19.88 167.03 18.9 167.81C17.92 168.59 16.64 168.95 15.04 168.95C13.9 168.95 12.92 168.74 12.1 168.38C11.22 167.96 10.55 167.44 10.09 166.71C9.62 165.98 9.37 165.26 9.37 164.42C9.6 164.42 11.5 164.42 11.74 164.42C11.79 165.2 12.1 165.88 12.72 166.35C13.34 166.82 14.11 167.08 15.09 167.08C15.97 167.08 16.69 166.87 17.25 166.5C17.62 166.09 17.92 165.57 17.92 164.99C17.92 164.37 17.67 163.85 17.2 163.49Z" id="b15YJTnShY"></path><path d="M24.52 167.08C23.34 165.83 22.77 164.16 22.77 162.08C22.77 162.04 22.77 161.71 22.77 161.66C22.77 160.26 23.03 159.01 23.54 157.92C24.06 156.82 24.78 155.99 25.76 155.37C26.74 154.74 27.72 154.43 28.85 154.43C30.66 154.43 32.05 155.05 33.08 156.25C34.06 157.45 34.58 159.17 34.58 161.4C34.58 161.47 34.58 161.8 34.58 162.39C28.95 162.39 25.82 162.39 25.19 162.39C25.25 163.8 25.61 164.89 26.38 165.72C27.15 166.56 28.13 167.03 29.32 167.03C30.14 167.03 30.86 166.87 31.43 166.5C32 166.14 32.51 165.72 32.98 165.15C33.12 165.27 34.28 166.18 34.42 166.3C33.18 168.07 31.43 168.95 29.11 168.95C27.26 168.95 25.71 168.33 24.52 167.08ZM26.43 157.45C25.76 158.18 25.4 159.11 25.25 160.41C25.71 160.41 28.03 160.41 32.2 160.41C32.2 160.32 32.2 160.27 32.2 160.26C32.15 159.06 31.79 158.12 31.23 157.45C30.61 156.72 29.83 156.41 28.85 156.41C27.87 156.41 27.1 156.77 26.43 157.45Z" id="bWV6e99A6"></path><path d="M37.52 168.69L37.52 148.81L39.89 148.81L39.89 168.69L37.52 168.69Z" id="b3NyrY0NSO"></path><path d="M43.86 168.69L43.86 148.81L46.23 148.81L46.23 168.69L43.86 168.69Z" id="a2eQpbBaKU"></path><path d="M52.31 156.25C53.34 155.05 54.68 154.43 56.44 154.43C58.39 154.43 59.68 155.16 60.41 156.67C60.87 155.99 61.49 155.47 62.21 155.05C62.93 154.64 63.81 154.43 64.84 154.43C67.88 154.43 69.43 156.04 69.48 159.32C69.48 159.95 69.48 163.07 69.48 168.69L67.11 168.69C67.11 163.13 67.11 160.04 67.11 159.43C67.11 158.44 66.9 157.66 66.44 157.19C65.97 156.67 65.2 156.46 64.17 156.46C63.29 156.46 62.57 156.72 61.95 157.24C61.38 157.76 61.02 158.49 60.92 159.37C60.92 159.99 60.92 163.1 60.92 168.69L58.55 168.69C58.55 163.19 58.55 160.14 58.55 159.53C58.55 157.5 57.57 156.46 55.61 156.46C54.06 156.46 52.98 157.13 52.41 158.49C52.41 159.17 52.41 162.57 52.41 168.69L50.04 168.69L50.04 154.69L52.26 154.69C52.29 155.63 52.31 156.15 52.31 156.25Z" id="cn1kSCVd"></path><path d="M73.24 157.86C73.81 156.77 74.53 155.94 75.46 155.31C76.39 154.69 77.52 154.43 78.71 154.43C80.61 154.43 82.11 155.1 83.29 156.41C84.48 157.71 85.05 159.48 85.05 161.66C85.05 161.68 85.05 161.8 85.05 161.82C85.05 163.17 84.79 164.42 84.27 165.52C83.76 166.61 83.04 167.44 82.06 168.07C81.08 168.69 80 168.95 78.76 168.95C76.9 168.95 75.36 168.27 74.17 166.97C72.98 165.67 72.42 163.9 72.42 161.72C72.42 161.71 72.42 161.65 72.42 161.56C72.59 159.82 72.86 158.59 73.24 157.86ZM75.87 165.57C76.59 166.5 77.52 166.97 78.76 166.97C79.94 166.97 80.92 166.5 81.65 165.57C82.37 164.63 82.73 163.28 82.73 161.56C82.73 160 82.37 158.8 81.65 157.81C80.92 156.87 79.94 156.41 78.76 156.41C77.57 156.41 76.64 156.87 75.92 157.81C75.2 158.75 74.79 160.1 74.79 161.82C74.79 163.38 75.15 164.63 75.87 165.57Z" id="e9QlMMMEa"></path><path d="M93.55 156.72C92.01 156.72 90.92 157.4 90.41 158.75C90.41 159.41 90.41 162.73 90.41 168.69L88.04 168.69L88.04 154.69L90.36 154.69C90.39 155.66 90.41 156.19 90.41 156.3C91.18 155.05 92.27 154.43 93.71 154.43C94.17 154.43 94.53 154.48 94.74 154.58C94.74 154.73 94.74 155.48 94.74 156.82C94.22 156.75 93.83 156.72 93.55 156.72Z" id="bkbM0rKll"></path><path d="M97.83 167.08C96.65 165.83 96.08 164.16 96.08 162.08C96.08 162.04 96.08 161.71 96.08 161.66C96.08 160.26 96.34 159.01 96.85 157.92C97.37 156.82 98.09 155.99 99.07 155.37C100.05 154.74 101.03 154.43 102.16 154.43C103.97 154.43 105.36 155.05 106.39 156.25C107.37 157.45 107.89 159.17 107.89 161.4C107.89 161.47 107.89 161.8 107.89 162.39C102.26 162.39 99.13 162.39 98.5 162.39C98.55 163.8 98.92 164.89 99.69 165.72C100.46 166.56 101.44 167.03 102.63 167.03C103.45 167.03 104.17 166.87 104.74 166.5C105.31 166.14 105.82 165.72 106.29 165.15C106.43 165.27 107.59 166.18 107.73 166.3C106.49 168.07 104.74 168.95 102.42 168.95C100.57 168.95 99.02 168.33 97.83 167.08ZM99.74 157.45C99.07 158.18 98.71 159.11 98.55 160.41C99.02 160.41 101.34 160.41 105.51 160.41C105.51 160.32 105.51 160.27 105.51 160.26C105.46 159.06 105.1 158.12 104.54 157.45C103.92 156.72 103.14 156.41 102.16 156.41C101.18 156.41 100.41 156.77 99.74 157.45Z" id="bAet2rajO"></path><path d="M110.98 166.4C111.24 166.14 111.6 165.98 112.06 165.98C112.53 165.98 112.94 166.14 113.2 166.4C113.45 166.66 113.56 167.03 113.56 167.44C113.56 167.86 113.45 168.17 113.2 168.43C112.94 168.69 112.58 168.85 112.06 168.85C111.55 168.85 111.19 168.69 110.98 168.43C110.77 168.17 110.62 167.86 110.62 167.44C110.62 167.03 110.72 166.66 110.98 166.4Z" id="d4EQtoeBa"></path><path d="M127.79 166.97C126.81 168.27 125.52 168.9 123.87 168.9C122.12 168.9 120.77 168.27 119.8 167.03C119.79 167.13 119.75 167.67 119.69 168.64L117.53 168.64L117.53 148.75L119.9 148.75C119.9 153.22 119.9 155.7 119.9 156.2C120.88 155 122.17 154.38 123.87 154.38C125.57 154.38 126.86 155 127.84 156.3C128.82 157.6 129.28 159.37 129.28 161.56C129.28 161.58 129.28 161.66 129.28 161.82C128.94 164.39 128.44 166.11 127.79 166.97ZM125.93 157.76C125.31 156.87 124.38 156.41 123.25 156.41C121.7 156.41 120.57 157.13 119.9 158.59C119.9 159.2 119.9 164.03 119.9 164.63C120.62 166.09 121.75 166.82 123.3 166.82C124.44 166.82 125.31 166.35 125.93 165.46C126.55 164.68 126.86 163.38 126.86 161.56C126.86 159.95 126.55 158.64 125.93 157.76Z" id="eGgt1dByP"></path><path d="M132.63 150C132.89 149.74 133.2 149.59 133.66 149.59C134.13 149.59 134.49 149.74 134.69 150C134.9 150.26 135.06 150.58 135.06 150.99C135.06 151.41 134.95 151.72 134.69 151.98C134.44 152.24 134.13 152.35 133.66 152.35C133.2 152.35 132.84 152.24 132.63 151.98C132.37 151.67 132.27 151.36 132.27 150.99C132.27 150.63 132.37 150.26 132.63 150ZM132.43 168.69L132.43 154.69L134.8 154.69L134.8 168.69L132.43 168.69Z" id="frlbCCsY6"></path><path d="M140.93 156.46C142.01 155.1 143.36 154.43 145.11 154.43C148.05 154.43 149.54 156.09 149.54 159.43C149.54 160.04 149.54 163.13 149.54 168.69L147.17 168.69C147.17 163.13 147.17 160.04 147.17 159.43C147.17 158.44 146.91 157.66 146.5 157.19C146.04 156.72 145.37 156.46 144.39 156.46C143.61 156.46 142.94 156.67 142.38 157.08C141.81 157.5 141.34 158.02 141.04 158.7C141.04 159.36 141.04 162.69 141.04 168.69L138.66 168.69L138.66 154.69L140.88 154.69C140.91 155.75 140.93 156.34 140.93 156.46Z" id="a80cD2n8tZ"></path><path d="M154.03 156.35C155.06 155.05 156.35 154.38 158 154.38C159.65 154.38 160.88 154.95 161.86 156.04C161.86 155.56 161.86 153.13 161.86 148.75L164.23 148.75L164.23 168.69L162.07 168.69C162.01 167.79 161.97 167.28 161.97 167.18C161.04 168.38 159.7 168.95 158 168.95C156.4 168.95 155.06 168.27 154.08 166.97C153.05 165.62 152.58 163.9 152.58 161.77C152.58 161.75 152.58 161.68 152.58 161.56C152.89 158.96 153.37 157.22 154.03 156.35ZM155.88 165.57C156.55 166.45 157.43 166.92 158.56 166.92C160.06 166.92 161.14 166.24 161.86 164.89C161.86 164.25 161.86 159.08 161.86 158.44C161.14 157.13 160.06 156.46 158.62 156.46C157.43 156.46 156.55 156.93 155.88 157.81C155.21 158.75 154.9 160.05 154.9 161.82C154.9 163.43 155.21 164.63 155.88 165.57Z" id="b12o7JH8l"></path><path d="M169.08 156.51L166.86 156.51L166.86 154.64L169.08 154.64C169.08 153.76 169.08 153.28 169.08 153.18C169.08 151.67 169.49 150.52 170.27 149.69C171.04 148.86 172.17 148.44 173.62 148.44C174.18 148.44 174.7 148.49 175.27 148.65C175.26 148.84 175.17 150.38 175.16 150.58C174.75 150.52 174.34 150.47 173.88 150.47C173.1 150.47 172.53 150.68 172.07 151.15C171.61 151.62 171.45 152.24 171.45 153.13C171.45 153.22 171.45 153.71 171.45 154.58L174.39 154.58L174.39 156.46L171.45 156.46L171.45 168.69L169.08 168.69L169.08 156.51Z" id="a2MAVjg30b"></path><path d="M185.27 167.23C184.19 168.38 182.85 168.95 181.3 168.95C179.91 168.95 178.82 168.53 177.95 167.75C177.07 166.97 176.66 165.98 176.66 164.79C176.66 163.33 177.23 162.18 178.31 161.4C179.39 160.62 180.94 160.21 182.95 160.21C183.1 160.21 183.88 160.21 185.27 160.21C185.27 159.55 185.27 159.19 185.27 159.11C185.27 158.28 185.01 157.6 184.55 157.13C184.03 156.61 183.31 156.41 182.33 156.41C181.51 156.41 180.78 156.61 180.22 157.03C179.65 157.45 179.34 157.97 179.34 158.59C179.1 158.59 177.21 158.59 176.97 158.59C176.97 157.92 177.23 157.24 177.69 156.56C178.21 155.89 178.82 155.42 179.7 155C180.53 154.64 181.45 154.43 182.48 154.43C184.08 154.43 185.32 154.84 186.25 155.63C187.18 156.41 187.64 157.55 187.64 158.96C187.64 159.6 187.64 164.77 187.64 165.41C187.64 166.71 187.79 167.7 188.1 168.48C188.1 168.5 188.1 168.57 188.1 168.69L185.58 168.69C185.41 168.17 185.3 167.68 185.27 167.23ZM183.77 166.3C184.44 165.93 184.91 165.41 185.22 164.79C185.22 164.6 185.22 163.64 185.22 161.92C184.1 161.92 183.48 161.92 183.36 161.92C180.47 161.92 178.98 162.81 178.98 164.53C178.98 165.26 179.24 165.88 179.7 166.3C180.27 166.66 180.89 166.87 181.66 166.87C182.38 166.87 183.1 166.66 183.77 166.3Z" id="ifoR0atUS"></path><path d="M198.67 163.49C198.21 163.12 197.33 162.81 196.15 162.55C194.96 162.29 193.98 161.98 193.31 161.61C192.59 161.25 192.07 160.83 191.76 160.31C191.4 159.79 191.25 159.22 191.25 158.54C191.25 157.4 191.71 156.41 192.69 155.63C193.67 154.84 194.86 154.43 196.4 154.43C198 154.43 199.24 154.84 200.22 155.68C201.2 156.51 201.66 157.55 201.66 158.8C201.43 158.8 199.53 158.8 199.29 158.8C199.29 158.12 199.03 157.6 198.47 157.08C197.9 156.61 197.23 156.35 196.4 156.35C195.53 156.35 194.86 156.56 194.39 156.93C193.93 157.29 193.67 157.81 193.67 158.44C193.67 159.01 193.88 159.43 194.34 159.74C194.81 160.05 195.63 160.31 196.82 160.57C198 160.83 198.98 161.14 199.7 161.51C200.43 161.87 200.99 162.34 201.35 162.86C201.71 163.38 201.87 164.01 201.87 164.79C201.87 166.04 201.35 167.03 200.37 167.81C199.39 168.59 198.11 168.95 196.51 168.95C195.37 168.95 194.39 168.74 193.57 168.38C192.69 167.96 192.02 167.44 191.56 166.71C191.09 165.98 190.84 165.26 190.84 164.42C191.07 164.42 192.97 164.42 193.21 164.42C193.26 165.2 193.57 165.88 194.19 166.35C194.81 166.82 195.58 167.08 196.56 167.08C197.44 167.08 198.16 166.87 198.72 166.5C199.14 166.09 199.39 165.57 199.39 164.99C199.39 164.37 199.14 163.85 198.67 163.49Z" id="hg6GadvRy"></path><path d="M208.11 154.69L210.68 154.69L210.68 156.56L208.11 156.56C208.11 161.78 208.11 164.68 208.11 165.26C208.11 165.83 208.21 166.24 208.47 166.5C208.67 166.76 209.09 166.92 209.65 166.92C209.91 166.92 210.32 166.87 210.79 166.76C210.79 166.96 210.79 168.5 210.79 168.69C210.17 168.85 209.55 168.95 208.98 168.95C207.9 168.95 207.13 168.64 206.56 167.96C205.99 167.29 205.74 166.4 205.74 165.2C205.74 164.62 205.74 161.73 205.74 156.51L203.21 156.51L203.21 154.64L205.74 154.64L205.74 151.25L208.11 151.25L208.11 154.69Z" id="a12R21tpag"></path><path d="M184.56 66.04C171.39 66.04 160.71 56.33 160.71 44.35C160.71 32.38 171.39 22.67 184.56 22.67C189.04 22.67 193.23 23.79 196.81 25.74C203.76 29.53 208.41 36.45 208.41 44.35C208.41 56.33 197.74 66.04 184.56 66.04ZM190.18 10.05L179.59 10.05L179.59 14.99L190.18 14.99L190.18 10.05ZM184.56 17.88L184.56 19.65M200.5 24.5L202.02 23.03L200.5 24.5ZM169.89 23.83L168.51 23.03" id="hjBNQb6f0"></path><path d="M186.67 32.56C186.67 49.01 186.67 58.15 186.67 59.98C186.67 60.67 186.37 61.24 186 61.24C185.82 61.24 184.34 61.24 184.16 61.24C183.79 61.24 183.49 60.67 183.49 59.98C183.49 58.15 183.49 49.01 183.49 32.56C182.75 32.56 182.34 32.56 182.26 32.56C181.66 32.56 181.36 31.2 181.79 30.41C182.07 29.88 184.34 25.59 184.62 25.05C184.89 24.55 185.3 24.55 185.57 25.05C185.85 25.59 188.12 29.88 188.4 30.41C188.8 31.2 188.5 32.56 187.9 32.56C187.74 32.56 187.33 32.56 186.67 32.56Z" id="easUFBL45"></path><path d="M175.68 50.2C175.68 52.64 179.68 54.62 184.62 54.62C184.62 54.62 184.62 54.62 184.62 54.62C189.55 54.62 193.56 52.64 193.56 50.2C193.56 50.2 193.56 50.2 193.56 50.2C193.56 48.59 191.58 47.15 188.58 46.56C187.78 46.4 181.45 45.15 180.66 44.99C177.65 44.39 175.68 42.95 175.68 41.35C175.68 41.35 175.68 41.35 175.68 41.35C175.68 38.91 179.68 36.92 184.62 36.92C184.62 36.92 184.62 36.92 184.62 36.92C189.55 36.92 193.56 38.91 193.56 41.35" id="bafZ7hvdpg"></path><path d="" id="d7Un8Xw2lj"></path></defs><g><g><g><use xlink:href="#c5nvHUgGoK" opacity="1" fill="#f16d26" fill-opacity="1"></use><g><use xlink:href="#c5nvHUgGoK" opacity="1" fill-opacity="0" stroke="#000000" stroke-width="1" stroke-opacity="0"></use></g></g><g><use xlink:href="#a5ewnDxpaU" opacity="1" fill="#f16d26" fill-opacity="1"></use><g><use xlink:href="#a5ewnDxpaU" opacity="1" fill-opacity="0" stroke="#000000" stroke-width="1" stroke-opacity="0"></use></g></g><g><use xlink:href="#ejPcbwJwH" opacity="1" fill="#f16d26" fill-opacity="1"></use><g><use xlink:href="#ejPcbwJwH" opacity="1" fill-opacity="0" stroke="#000000" stroke-width="1" stroke-opacity="0"></use></g></g><g><use xlink:href="#f47M7Eyc6l" opacity="1" fill="#f16d26" fill-opacity="1"></use><g><use xlink:href="#f47M7Eyc6l" opacity="1" fill-opacity="0" stroke="#000000" stroke-width="1" stroke-opacity="0"></use></g></g><g><use xlink:href="#cggAqnjRD" opacity="1" fill="#f16d26" fill-opacity="1"></use><g><use xlink:href="#cggAqnjRD" opacity="1" fill-opacity="0" stroke="#000000" stroke-width="1" stroke-opacity="0"></use></g></g><g><use xlink:href="#g1eQnGL13H" opacity="1" fill="#f16d26" fill-opacity="1"></use><g><use xlink:href="#g1eQnGL13H" opacity="1" fill-opacity="0" stroke="#000000" stroke-width="1" stroke-opacity="0"></use></g></g><g><use xlink:href="#eBaDwRKez" opacity="1" fill="#f16d26" fill-opacity="1"></use><g><use xlink:href="#eBaDwRKez" opacity="1" fill-opacity="0" stroke="#000000" stroke-width="1" stroke-opacity="0"></use></g></g><g><use xlink:href="#a1covogf5X" opacity="1" fill="#f16d26" fill-opacity="1"></use><g><use xlink:href="#a1covogf5X" opacity="1" fill-opacity="0" stroke="#000000" stroke-width="1" stroke-opacity="0"></use></g></g><g><use xlink:href="#b4FHOb1WSr" opacity="1" fill="#f16d26" fill-opacity="1"></use><g><use xlink:href="#b4FHOb1WSr" opacity="1" fill-opacity="0" stroke="#000000" stroke-width="1" stroke-opacity="0"></use></g></g><g><use xlink:href="#a14h3JfPE7" opacity="1" fill="#f16d26" fill-opacity="1"></use><g><use xlink:href="#a14h3JfPE7" opacity="1" fill-opacity="0" stroke="#000000" stroke-width="1" stroke-opacity="0"></use></g></g><g><use xlink:href="#b15YJTnShY" opacity="1" fill="#ffffff" fill-opacity="1"></use><g><use xlink:href="#b15YJTnShY" opacity="1" fill-opacity="0" stroke="#000000" stroke-width="1" stroke-opacity="0"></use></g></g><g><use xlink:href="#bWV6e99A6" opacity="1" fill="#ffffff" fill-opacity="1"></use><g><use xlink:href="#bWV6e99A6" opacity="1" fill-opacity="0" stroke="#000000" stroke-width="1" stroke-opacity="0"></use></g></g><g><use xlink:href="#b3NyrY0NSO" opacity="1" fill="#ffffff" fill-opacity="1"></use><g><use xlink:href="#b3NyrY0NSO" opacity="1" fill-opacity="0" stroke="#000000" stroke-width="1" stroke-opacity="0"></use></g></g><g><use xlink:href="#a2eQpbBaKU" opacity="1" fill="#ffffff" fill-opacity="1"></use><g><use xlink:href="#a2eQpbBaKU" opacity="1" fill-opacity="0" stroke="#000000" stroke-width="1" stroke-opacity="0"></use></g></g><g><use xlink:href="#cn1kSCVd" opacity="1" fill="#ffffff" fill-opacity="1"></use><g><use xlink:href="#cn1kSCVd" opacity="1" fill-opacity="0" stroke="#000000" stroke-width="1" stroke-opacity="0"></use></g></g><g><use xlink:href="#e9QlMMMEa" opacity="1" fill="#ffffff" fill-opacity="1"></use><g><use xlink:href="#e9QlMMMEa" opacity="1" fill-opacity="0" stroke="#000000" stroke-width="1" stroke-opacity="0"></use></g></g><g><use xlink:href="#bkbM0rKll" opacity="1" fill="#ffffff" fill-opacity="1"></use><g><use xlink:href="#bkbM0rKll" opacity="1" fill-opacity="0" stroke="#000000" stroke-width="1" stroke-opacity="0"></use></g></g><g><use xlink:href="#bAet2rajO" opacity="1" fill="#ffffff" fill-opacity="1"></use><g><use xlink:href="#bAet2rajO" opacity="1" fill-opacity="0" stroke="#000000" stroke-width="1" stroke-opacity="0"></use></g></g><g><use xlink:href="#d4EQtoeBa" opacity="1" fill="#ffffff" fill-opacity="1"></use><g><use xlink:href="#d4EQtoeBa" opacity="1" fill-opacity="0" stroke="#000000" stroke-width="1" stroke-opacity="0"></use></g></g><g><use xlink:href="#eGgt1dByP" opacity="1" fill="#ffffff" fill-opacity="1"></use><g><use xlink:href="#eGgt1dByP" opacity="1" fill-opacity="0" stroke="#000000" stroke-width="1" stroke-opacity="0"></use></g></g><g><use xlink:href="#frlbCCsY6" opacity="1" fill="#ffffff" fill-opacity="1"></use><g><use xlink:href="#frlbCCsY6" opacity="1" fill-opacity="0" stroke="#000000" stroke-width="1" stroke-opacity="0"></use></g></g><g><use xlink:href="#a80cD2n8tZ" opacity="1" fill="#ffffff" fill-opacity="1"></use><g><use xlink:href="#a80cD2n8tZ" opacity="1" fill-opacity="0" stroke="#000000" stroke-width="1" stroke-opacity="0"></use></g></g><g><use xlink:href="#b12o7JH8l" opacity="1" fill="#ffffff" fill-opacity="1"></use><g><use xlink:href="#b12o7JH8l" opacity="1" fill-opacity="0" stroke="#000000" stroke-width="1" stroke-opacity="0"></use></g></g><g><use xlink:href="#a2MAVjg30b" opacity="1" fill="#ffffff" fill-opacity="1"></use><g><use xlink:href="#a2MAVjg30b" opacity="1" fill-opacity="0" stroke="#000000" stroke-width="1" stroke-opacity="0"></use></g></g><g><use xlink:href="#ifoR0atUS" opacity="1" fill="#ffffff" fill-opacity="1"></use><g><use xlink:href="#ifoR0atUS" opacity="1" fill-opacity="0" stroke="#000000" stroke-width="1" stroke-opacity="0"></use></g></g><g><use xlink:href="#hg6GadvRy" opacity="1" fill="#ffffff" fill-opacity="1"></use><g><use xlink:href="#hg6GadvRy" opacity="1" fill-opacity="0" stroke="#000000" stroke-width="1" stroke-opacity="0"></use></g></g><g><use xlink:href="#a12R21tpag" opacity="1" fill="#ffffff" fill-opacity="1"></use><g><use xlink:href="#a12R21tpag" opacity="1" fill-opacity="0" stroke="#000000" stroke-width="1" stroke-opacity="0"></use></g></g><g><use xlink:href="#hjBNQb6f0" opacity="0.99" fill="#000000" fill-opacity="0"></use><use xlink:href="#hjBNQb6f0" opacity="0.99" fill="#3a0707" fill-opacity="0"></use><g><use xlink:href="#hjBNQb6f0" opacity="0.99" fill-opacity="0" stroke="#f16d26" stroke-width="7" stroke-opacity="1"></use></g></g><g><use xlink:href="#easUFBL45" opacity="1" fill="#f16d26" fill-opacity="1"></use><g><use xlink:href="#easUFBL45" opacity="1" fill-opacity="0" stroke="#000000" stroke-width="2" stroke-opacity="0"></use></g></g><g><use xlink:href="#bafZ7hvdpg" opacity="1" fill="#000000" fill-opacity="0"></use><g><use xlink:href="#bafZ7hvdpg" opacity="1" fill-opacity="0" stroke="#f16d26" stroke-width="5" stroke-opacity="1"></use></g></g><g><g><use xlink:href="#d7Un8Xw2lj" opacity="1" fill-opacity="0" stroke="#f16d26" stroke-width="5" stroke-opacity="1"></use></g></g></g></g></svg>