<svg width="35" height="29" viewBox="0 0 35 29" fill="none" xmlns="http://www.w3.org/2000/svg">
<mask id="path-1-inside-1" fill="transparent">
<path d="M17.4472 1.44385L4.69214 6.11084V13.1113C4.69214 19.5868 10.1343 25.6422 17.4472 27.1123C24.7601 25.6422 30.2022 19.5868 30.2022 13.1113V6.11084L17.4472 1.44385Z"/>
</mask>
<path d="M17.4472 1.44385L4.69214 6.11084V13.1113C4.69214 19.5868 10.1343 25.6422 17.4472 27.1123C24.7601 25.6422 30.2022 19.5868 30.2022 13.1113V6.11084L17.4472 1.44385Z" fill="transparent"/>
<path d="M17.4472 1.44385L18.1344 -0.434373L17.4472 -0.685827L16.7599 -0.434373L17.4472 1.44385ZM4.69214 6.11084L4.00491 4.23262L2.69214 4.71295V6.11084H4.69214ZM17.4472 27.1123L17.053 29.0731L17.4472 29.1523L17.8413 29.0731L17.4472 27.1123ZM30.2022 6.11084H32.2022V4.71295L30.8894 4.23262L30.2022 6.11084ZM16.7599 -0.434373L4.00491 4.23262L5.37937 7.98906L18.1344 3.32207L16.7599 -0.434373ZM2.69214 6.11084V13.1113H6.69214V6.11084H2.69214ZM2.69214 13.1113C2.69214 20.7084 8.98248 27.4507 17.053 29.0731L17.8413 25.1515C11.2861 23.8337 6.69214 18.4651 6.69214 13.1113H2.69214ZM17.8413 29.0731C25.9119 27.4507 32.2022 20.7084 32.2022 13.1113H28.2022C28.2022 18.4651 23.6083 23.8337 17.053 25.1515L17.8413 29.0731ZM32.2022 13.1113V6.11084H28.2022V13.1113H32.2022ZM30.8894 4.23262L18.1344 -0.434373L16.7599 3.32207L29.515 7.98906L30.8894 4.23262Z" fill="white" fill-opacity="0.2" mask="url(#path-1-inside-1)"/>
<path d="M16.6863 10.4274H18.9685L21.4714 8.30767C21.5421 8.24747 21.6263 8.19969 21.719 8.16708C21.8117 8.13447 21.9111 8.11768 22.0115 8.11768C22.112 8.11768 22.2114 8.13447 22.3041 8.16708C22.3968 8.19969 22.481 8.24747 22.5517 8.30767L24.5144 9.9713C24.6561 10.0916 24.7356 10.2544 24.7356 10.4241C24.7356 10.5938 24.6561 10.7566 24.5144 10.877L22.7723 12.3543H16.6863V13.639C16.6863 13.8093 16.6061 13.9727 16.4635 14.0932C16.3208 14.2136 16.1273 14.2813 15.9255 14.2813C15.7238 14.2813 15.5303 14.2136 15.3876 14.0932C15.2449 13.9727 15.1648 13.8093 15.1648 13.639V11.712C15.1648 11.3713 15.3251 11.0445 15.6104 10.8036C15.8958 10.5627 16.2828 10.4274 16.6863 10.4274ZM12.1218 13.639V16.2083L10.3797 17.6792C10.238 17.7996 10.1584 17.9624 10.1584 18.1321C10.1584 18.3018 10.238 18.4646 10.3797 18.5849L12.3424 20.2485C12.4131 20.3087 12.4973 20.3565 12.59 20.3891C12.6827 20.4217 12.7821 20.4385 12.8825 20.4385C12.983 20.4385 13.0824 20.4217 13.1751 20.3891C13.2678 20.3565 13.3519 20.3087 13.4227 20.2485L16.6863 17.4929H19.7293C19.9311 17.4929 20.1246 17.4253 20.2672 17.3048C20.4099 17.1844 20.49 17.021 20.49 16.8506V16.2083H21.2508C21.4526 16.2083 21.6461 16.1406 21.7887 16.0202C21.9314 15.8997 22.0115 15.7363 22.0115 15.566V14.9236H22.7723C22.9741 14.9236 23.1676 14.856 23.3102 14.7355C23.4529 14.615 23.533 14.4517 23.533 14.2813V13.639H18.2078V14.2813C18.2078 14.622 18.0475 14.9488 17.7622 15.1897C17.4768 15.4306 17.0898 15.566 16.6863 15.566H15.1648C14.7613 15.566 14.3743 15.4306 14.0889 15.1897C13.8036 14.9488 13.6433 14.622 13.6433 14.2813V12.3543L12.1218 13.639Z" fill="white"/>
<defs>
</defs>
</svg>
